<svg width="24" height="24" viewBox="0 0 24 24" fill="none" xmlns="http://www.w3.org/2000/svg">
<g clip-path="url(#clip0_25707_29829)">
<path d="M12 0C14.2152 0 16.2882 0.602625 18.0694 1.64925H10.3313V0.118125C10.8769 0.042 11.4334 0 12 0ZM10.3313 12.9416H23.9599C23.9839 12.6308 24 12.3173 24 12C24 11.6827 23.9839 11.3693 23.9599 11.0584H10.3313V12.9416ZM10.3313 5.41388H22.0298C21.5839 4.73625 21.0728 4.10512 20.5024 3.5325H10.3313V5.41388ZM10.3313 9.18075H23.6637C23.5069 8.52975 23.2992 7.89825 23.0408 7.29338H10.3313V9.18075ZM12 24C14.2152 24 16.2885 23.3974 18.0694 22.3507H5.93065C7.71152 23.3974 9.7849 24 12 24ZM0.959275 16.7066H23.0412C23.2988 16.1036 23.5058 15.4744 23.6625 14.8253H0.337524C0.494274 15.474 0.701649 16.1032 0.959275 16.7066ZM3.49765 20.4675H20.5024C21.0728 19.8949 21.5839 19.2638 22.0298 18.5861H1.97027C2.41615 19.2638 2.92727 19.8949 3.49765 20.4675Z" fill="#C64252"/>
<path d="M2.87137 4.21554C2.14762 5.06341 1.54087 6.01291 1.07362 7.04004L1.20225 7.44091H1.752L1.30762 7.76116L1.47487 8.28204L1.03537 7.95691L0.591 8.28204L0.602625 8.24604C0.274125 9.24391 0.070125 10.2988 0.01575 11.393L0.012375 11.5288C0.006 11.6855 0 11.8423 0 12.0002C0 12.3174 0.016125 12.6309 0.040125 12.9418H10.3312V11.0585V9.18091V7.29354V5.41404V3.53266V1.64941V0.118286C9.81412 0.190286 9.30825 0.295286 8.81437 0.431036L8.94937 0.851036H9.49912L9.05475 1.17129L9.22687 1.69704L8.7825 1.37191L8.33812 1.69216L8.51025 1.17129L8.06588 0.851036H8.61562L8.74387 0.451286C7.80487 0.715661 6.91312 1.09066 6.08287 1.56241L6.00375 1.60779C5.46225 1.92091 4.947 2.27416 4.46287 2.66529L4.29187 2.80554C3.81375 3.20679 3.36825 3.64554 2.958 4.11616M1.47487 10.9202L1.03537 10.595L0.591 10.9153L0.75825 10.3944L0.31875 10.0742H0.863625L1.03575 9.55329L1.203 10.0742H1.75275L1.30837 10.3944L1.47487 10.9202ZM3.02812 12.2342L2.58375 11.9143L2.13937 12.2345L2.3115 11.7088L1.86712 11.3885H2.412L2.58412 10.8725L2.75137 11.3934H3.30112L2.85675 11.7137L3.02812 12.2342ZM2.856 9.08041L3.02812 9.59641L2.58375 9.27616L2.139 9.59641L2.31112 9.07554L1.86675 8.75529H2.41162L2.58375 8.23441L2.751 8.76016H3.30075L2.856 9.08041ZM2.856 6.44229L3.02812 6.96804L2.58375 6.64291L2.13937 6.96316L2.3115 6.44229L1.86712 6.12204H2.412L2.58412 5.60116L2.75137 6.12204H3.30112L2.856 6.44229ZM4.5765 10.9202L4.13212 10.595L3.69262 10.9153L3.85987 10.3944L3.4155 10.0742H3.96975L4.13212 9.55329L4.30425 10.0742H4.84912L4.40962 10.3944L4.5765 10.9202ZM4.40925 7.76116L4.5765 8.28204L4.13212 7.95691L3.69262 8.28204L3.85987 7.75629L3.41512 7.43641H3.96937L4.13175 6.92041L4.30387 7.44129H4.84875L4.40925 7.76116ZM4.40925 5.12341L4.5765 5.64916L4.13212 5.32404L3.69262 5.64429L3.85987 5.12341L3.4155 4.80316H3.96975L4.13212 4.28229L4.30425 4.80316H4.84912L4.40925 5.12341ZM6.12487 12.2342L5.6805 11.9139L5.241 12.2342L5.40825 11.7084L4.96875 11.3882H5.51362L5.68087 10.8722L5.853 11.393H6.39787L5.95837 11.7133L6.12487 12.2342ZM5.95762 9.08041L6.12487 9.59641L5.6805 9.27616L5.241 9.59641L5.40825 9.07554L4.96875 8.75529H5.51362L5.68087 8.23441L5.853 8.76016H6.39787L5.95762 9.08041ZM5.95762 6.44229L6.12487 6.96804L5.6805 6.64291L5.241 6.96316L5.40825 6.44229L4.96875 6.12204H5.51362L5.68087 5.60116L5.853 6.12204H6.39787L5.95762 6.44229ZM5.95762 3.80904L6.12487 4.32991L5.6805 4.00479L5.241 4.32991L5.40825 3.80416L4.96875 3.48391H5.51362L5.68087 2.96304L5.853 3.48879H6.39787L5.95762 3.80904ZM7.67325 10.9202L7.23375 10.595L6.78937 10.9153L6.95662 10.3944L6.51712 10.0742H7.062L7.23412 9.55329L7.40137 10.0742H7.95112L7.50675 10.3944L7.67325 10.9202ZM7.506 7.76116L7.67325 8.28204L7.23375 7.95691L6.78937 8.28204L6.95662 7.75629L6.51712 7.43604H7.062L7.23412 6.92004L7.40137 7.44091H7.95112L7.506 7.76116ZM7.506 5.12341L7.67325 5.64916L7.23375 5.32404L6.78937 5.64429L6.95662 5.12341L6.51712 4.80316H7.062L7.23412 4.28229L7.40137 4.80316H7.95112L7.506 5.12341ZM7.506 2.49016L7.67325 3.01104L7.23375 2.69079L6.78937 3.01104L6.95625 2.49016L6.51675 2.16991H7.06162L7.23375 1.64904L7.401 2.16991H7.95075L7.506 2.49016ZM9.22612 12.2342L8.78175 11.9139L8.33737 12.2342L8.5095 11.7084L8.06512 11.3882H8.61487L8.78212 10.8722L8.94937 11.393H9.49912L9.05475 11.7133L9.22612 12.2342ZM9.05437 9.08041L9.2265 9.59641L8.78212 9.27616L8.33775 9.59641L8.50987 9.07554L8.0655 8.75529H8.61525L8.7825 8.23441L8.94975 8.76016H9.4995L9.05437 9.08041ZM9.05437 6.44229L9.2265 6.96804L8.78212 6.64291L8.33775 6.96316L8.50987 6.44229L8.0655 6.12204H8.61525L8.7825 5.60116L8.94975 6.12204H9.4995L9.05437 6.44229ZM9.05437 3.80904L9.2265 4.32991L8.78212 4.00479L8.33775 4.32991L8.50987 3.80416L8.0655 3.48391H8.61525L8.7825 2.96304L8.94975 3.48879H9.4995L9.05437 3.80904Z" fill="#2B497A"/>
</g>
<defs>
<clipPath id="clip0_25707_29829">
<rect width="24" height="24" fill="white"/>
</clipPath>
</defs>
</svg>
