<svg width="305" height="165" viewBox="0 0 305 165" fill="none" xmlns="http://www.w3.org/2000/svg">
<g clip-path="url(#clip0_25707_21769)">
<path d="M134.219 62.7183C134.219 57.8509 138.171 53.8983 143.036 53.8983H162.063C166.831 53.8983 170.701 57.7694 170.701 62.5398V67.9495H134.219V62.7183Z" fill="#FF12A0" stroke="black" stroke-width="3" stroke-miterlimit="10"/>
<path d="M146.057 45.3997V54.1949C146.937 57.4034 149.078 59.7235 151.572 60.1347C154.62 60.6391 157.7 58.2104 158.863 54.1949V44.6005L146.057 45.3997Z" fill="#F9CFCD" stroke="black" stroke-width="3" stroke-miterlimit="10"/>
<path d="M174.486 33.6014C174.486 36.1542 172.415 38.226 169.859 38.226C169.715 38.226 169.572 38.2182 169.428 38.2066C166.686 45.5198 160.085 50.6759 152.371 50.6759C144.657 50.6759 137.796 45.3142 135.163 37.7682C135.128 37.7682 135.093 37.7682 135.058 37.7682C132.506 37.7682 130.435 35.6964 130.435 33.1397C130.435 32.4569 130.582 31.8051 130.85 31.2193C131.443 29.9157 132.626 28.938 134.057 28.6238C134.481 24.0584 135.163 15.0242 139.078 16.81C142.993 18.5957 147.146 10.6376 152.371 10.6376C161.904 10.6376 169.971 18.7461 170.724 29.0505C172.868 29.454 174.486 31.3357 174.486 33.5975V33.6014Z" fill="#F9CFCD" stroke="black" stroke-width="3" stroke-miterlimit="10"/>
<path d="M130.448 29.1281C130.976 28.5772 131.68 27.6836 133.403 27.107C135.125 26.5304 136.095 27.2808 136.685 27.2769C136.638 25.6009 136.685 25.2611 136.853 22.7152C137.164 21.0392 137.594 19.5649 138.04 18.3195C138.238 19.4019 138.723 21.2642 140.057 23.1924C141.581 25.3999 143.447 26.5716 144.443 27.107C144.284 26.2302 144.137 24.7753 144.564 23.076C144.808 22.0906 145.18 21.2913 145.514 20.7055C146.666 22.0983 149.078 24.6279 152.984 26.2806C156.09 27.5958 158.875 27.8208 160.574 27.8208C160.446 27.6385 159.892 27.0515 159.073 25.9001C158.253 24.7486 157.825 22.6758 157.825 21.9477C158.449 22.5717 160.669 24.6221 161.534 25.0333C162.278 25.3868 165.45 27.107 165.45 27.107L168.757 28.2645C169.902 26.8445 172.099 27.8532 172.72 28.2645C174.548 29.476 174.994 31.0702 174.451 34.6995C177.375 20.6046 170.514 7.6271 160.019 3.87933C153.309 1.48169 145.522 2.99864 139.82 7.18094C132.564 12.5 128.586 19.8518 130.448 29.1281Z" fill="#0FC8FF"/>
<path d="M130.448 29.1281L128.977 29.4232L129.543 32.2423L131.532 30.1654L130.448 29.1281ZM136.685 27.2769L136.695 28.7769L138.227 28.7668L138.184 27.2353L136.685 27.2769ZM136.853 22.7152L135.378 22.4421L135.363 22.5285L135.357 22.616L136.853 22.7152ZM138.04 18.3195L139.516 18.0499C139.394 17.3823 138.839 16.8798 138.162 16.8245C137.486 16.7692 136.857 17.1749 136.628 17.8138L138.04 18.3195ZM140.057 23.1924L141.291 22.3401L141.29 22.3389L140.057 23.1924ZM144.443 27.107L143.734 28.4284L146.475 29.9007L145.919 26.8393L144.443 27.107ZM144.564 23.076L146.019 23.4412L146.02 23.437L144.564 23.076ZM145.514 20.7055L146.67 19.7495L145.285 18.0754L144.21 19.9633L145.514 20.7055ZM152.984 26.2806L153.568 24.8993L153.568 24.8992L152.984 26.2806ZM160.574 27.8208V29.3208H163.459L161.801 26.9591L160.574 27.8208ZM157.825 21.9477L158.885 20.887L156.325 18.3264V21.9477H157.825ZM161.534 25.0333L162.178 23.6787L161.534 25.0333ZM165.45 27.107L164.735 28.4256L164.841 28.483L164.955 28.5228L165.45 27.107ZM168.757 28.2645L168.262 29.6803L169.261 30.03L169.925 29.2058L168.757 28.2645ZM172.72 28.2645L171.891 29.5148L172.72 28.2645ZM174.451 34.6995L172.967 34.4774L175.919 35.0042L174.451 34.6995ZM160.019 3.87933L159.514 5.29185L159.515 5.29196L160.019 3.87933ZM139.82 7.18094L140.707 8.39074L140.708 8.39041L139.82 7.18094ZM131.532 30.1654C132.077 29.5955 132.551 28.9739 133.879 28.5294L132.926 25.6845C130.809 26.3933 129.874 27.5589 129.365 28.0908L131.532 30.1654ZM133.879 28.5294C134.44 28.3415 134.834 28.3745 135.151 28.4432C135.341 28.4843 135.494 28.5347 135.731 28.6065C135.9 28.6577 136.285 28.7796 136.695 28.7769L136.675 25.7769C136.79 25.7762 136.833 25.8057 136.6 25.7353C136.436 25.6855 136.128 25.5851 135.786 25.5111C135.04 25.3497 134.088 25.2959 132.926 25.6845L133.879 28.5294ZM138.184 27.2353C138.14 25.6426 138.18 25.3757 138.35 22.8143L135.357 22.616C135.189 25.1466 135.137 25.5591 135.185 27.3185L138.184 27.2353ZM138.328 22.9882C138.622 21.4016 139.03 20.0054 139.452 18.8253L136.628 17.8138C136.159 19.1244 135.705 20.6767 135.378 22.4421L138.328 22.9882ZM136.565 18.5891C136.786 19.7994 137.328 21.885 138.823 24.0459L141.29 22.3389C140.117 20.6433 139.69 19.0044 139.516 18.0499L136.565 18.5891ZM138.823 24.0447C140.531 26.5194 142.62 27.8304 143.734 28.4284L145.153 25.7856C144.273 25.3128 142.631 24.2804 141.291 22.3401L138.823 24.0447ZM145.919 26.8393C145.783 26.0888 145.661 24.8643 146.019 23.4412L143.109 22.7107C142.613 24.6863 142.786 26.3715 142.968 27.3747L145.919 26.8393ZM146.02 23.437C146.224 22.6127 146.536 21.9417 146.817 21.4477L144.21 19.9633C143.825 20.641 143.392 21.5684 143.108 22.715L146.02 23.437ZM144.358 21.6615C145.596 23.1585 148.191 25.8814 152.399 27.662L153.568 24.8992C149.965 23.3743 147.735 21.0381 146.67 19.7495L144.358 21.6615ZM152.399 27.6619C155.745 29.0787 158.744 29.3208 160.574 29.3208V26.3208C159.006 26.3208 156.435 26.1129 153.568 24.8993L152.399 27.6619ZM161.801 26.9591C161.724 26.8486 161.616 26.7207 161.55 26.6423C161.464 26.5395 161.365 26.4218 161.243 26.2733C161.003 25.9805 160.681 25.573 160.295 25.0301L157.851 26.7701C158.284 27.3786 158.649 27.8403 158.922 28.1744C159.057 28.3394 159.172 28.4746 159.251 28.5691C159.35 28.6881 159.359 28.7019 159.346 28.6826L161.801 26.9591ZM160.295 25.0301C160.032 24.6611 159.777 24.0478 159.586 23.363C159.394 22.6736 159.325 22.1203 159.325 21.9477H156.325C156.325 22.5031 156.469 23.3503 156.696 24.1672C156.925 24.9887 157.294 25.9876 157.851 26.7701L160.295 25.0301ZM156.764 23.0083C157.105 23.3496 157.843 24.0426 158.607 24.7042C158.99 25.0361 159.393 25.3718 159.766 25.6568C160.112 25.9215 160.52 26.2121 160.89 26.388L162.178 23.6787C162.116 23.6489 161.922 23.529 161.589 23.2741C161.282 23.0395 160.929 22.7465 160.571 22.4364C159.852 21.814 159.168 21.1698 158.885 20.887L156.764 23.0083ZM160.89 26.388C161.221 26.5454 162.161 27.0425 163.063 27.5252C163.504 27.7612 163.922 27.9864 164.23 28.1527C164.384 28.2358 164.511 28.3041 164.599 28.3516C164.642 28.3754 164.677 28.3939 164.7 28.4065C164.712 28.4128 164.72 28.4176 164.726 28.4208C164.729 28.4224 164.732 28.4236 164.733 28.4244C164.734 28.4248 164.734 28.4251 164.735 28.4253C164.735 28.4254 164.735 28.4255 164.735 28.4256C164.735 28.4256 164.735 28.4256 164.735 28.4256C164.735 28.4256 164.735 28.4256 165.45 27.107C166.165 25.7883 166.165 25.7883 166.165 25.7883C166.165 25.7883 166.165 25.7883 166.165 25.7882C166.165 25.7882 166.165 25.7881 166.165 25.788C166.164 25.7878 166.164 25.7875 166.163 25.787C166.161 25.7862 166.159 25.7849 166.156 25.7833C166.15 25.7799 166.141 25.775 166.129 25.7687C166.105 25.7559 166.071 25.7371 166.026 25.7131C165.938 25.6652 165.81 25.5963 165.655 25.5127C165.345 25.3453 164.924 25.1184 164.479 24.8802C163.609 24.4144 162.591 23.8746 162.178 23.6787L160.89 26.388ZM164.955 28.5228L168.262 29.6803L169.253 26.8487L165.946 25.6912L164.955 28.5228ZM169.925 29.2058C170.015 29.0936 170.184 28.9748 170.693 29.0581C171.21 29.1428 171.717 29.3997 171.891 29.5148L173.548 27.0141C173.102 26.718 172.2 26.2649 171.177 26.0975C170.146 25.9286 168.643 26.0154 167.589 27.3231L169.925 29.2058ZM171.891 29.5148C172.561 29.9585 172.867 30.3787 173.027 30.9678C173.215 31.6604 173.232 32.7111 172.967 34.4774L175.934 34.9216C176.213 33.0586 176.279 31.4975 175.922 30.1828C175.538 28.7646 174.707 27.782 173.548 27.0141L171.891 29.5148ZM175.919 35.0042C178.963 20.3351 171.866 6.51707 160.524 2.4667L159.515 5.29196C169.162 8.73714 175.787 20.8742 172.982 34.3948L175.919 35.0042ZM160.524 2.46681C153.292 -0.117477 144.988 1.52981 138.933 5.97147L140.708 8.39041C146.055 4.46748 153.327 3.08085 159.514 5.29185L160.524 2.46681ZM138.934 5.97114C131.321 11.5513 126.975 19.4469 128.977 29.4232L131.919 28.833C130.198 20.2567 133.807 13.4487 140.707 8.39074L138.934 5.97114Z" fill="black"/>
<path d="M135.666 37.428C138.025 37.428 139.936 35.3083 139.936 32.6935C139.936 30.0786 138.025 27.9589 135.666 27.9589C133.308 27.9589 131.396 30.0786 131.396 32.6935C131.396 35.3083 133.308 37.428 135.666 37.428Z" fill="#F9CFCD"/>
<path d="M169.986 37.3846C172.218 37.3846 174.027 35.448 174.027 33.059C174.027 30.67 172.218 28.7333 169.986 28.7333C167.754 28.7333 165.945 30.67 165.945 33.059C165.945 35.448 167.754 37.3846 169.986 37.3846Z" fill="#F9CFCD"/>
</g>
<path d="M185.936 12.2186L182.66 5.10448" stroke="#FFFA00" stroke-width="2" stroke-linecap="round"/>
<path d="M187.838 6.9863L180.758 10.3361" stroke="#FFFA00" stroke-width="2" stroke-linecap="round"/>
<circle cx="116.686" cy="55.8378" r="1.55319" transform="rotate(20.3213 116.686 55.8378)" fill="#FFFA00"/>
<circle cx="110.911" cy="29.28" r="2.94064" transform="rotate(20.3213 110.911 29.28)" fill="#0FC8FF"/>
<circle cx="121.843" cy="9.56158" r="3.28402" transform="rotate(20.3213 121.843 9.56158)" stroke="#FF16D0"/>
<circle cx="184.298" cy="52.6203" r="3.29297" transform="rotate(20.3213 184.298 52.6203)" fill="#0FC8FF"/>
<path d="M184.912 49.3895C183.748 49.1694 182.566 49.6003 181.81 50.4776C183.007 51.8902 183.657 52.2897 184.274 52.6353C184.264 51.9196 184.277 51.1593 184.912 49.3895Z" fill="#FFFA00"/>
<path d="M187.406 51.5357C185.538 51.8759 184.951 52.2612 184.299 52.649C184.951 53.0139 185.578 53.3397 186.79 54.7677C187.04 54.4783 187.246 54.1431 187.387 53.7638C187.663 53.0175 187.651 52.2338 187.406 51.5357Z" fill="#FFFA00"/>
<path d="M181.195 53.7043C181.507 54.5997 182.201 55.3545 183.158 55.7086C183.332 55.7731 183.508 55.818 183.685 55.8517C184.307 54.1102 184.285 53.4005 184.274 52.6633C183.673 53.02 182.995 53.3781 181.195 53.7043Z" fill="#FFFA00"/>
<path d="M87.2485 107.676C86.9818 107.676 86.7738 107.602 86.6245 107.452C86.4858 107.303 86.4165 107.095 86.4165 106.828V97.1325C86.4165 96.8551 86.4912 96.6471 86.6405 96.5085C86.7898 96.3591 86.9978 96.2845 87.2645 96.2845H91.0885C92.3045 96.2845 93.2432 96.5885 93.9045 97.1965C94.5658 97.7938 94.8965 98.6365 94.8965 99.7245C94.8965 100.823 94.5658 101.676 93.9045 102.284C93.2432 102.882 92.3045 103.18 91.0885 103.18H88.0805V106.828C88.0805 107.095 88.0112 107.303 87.8725 107.452C87.7338 107.602 87.5258 107.676 87.2485 107.676ZM88.0805 101.852H90.8485C91.6485 101.852 92.2512 101.676 92.6565 101.324C93.0725 100.962 93.2805 100.428 93.2805 99.7245C93.2805 99.0311 93.0725 98.5085 92.6565 98.1565C92.2512 97.7938 91.6485 97.6125 90.8485 97.6125H88.0805V101.852ZM99.7951 107.708C98.9418 107.708 98.2058 107.548 97.5871 107.228C96.9791 106.898 96.5045 106.434 96.1631 105.836C95.8325 105.228 95.6671 104.508 95.6671 103.676C95.6671 102.866 95.8325 102.156 96.1631 101.548C96.4938 100.94 96.9471 100.466 97.5231 100.124C98.0991 99.7831 98.7551 99.6125 99.4911 99.6125C100.035 99.6125 100.52 99.7031 100.947 99.8845C101.374 100.055 101.736 100.311 102.035 100.652C102.344 100.983 102.574 101.388 102.723 101.868C102.883 102.348 102.963 102.887 102.963 103.484C102.963 103.666 102.91 103.804 102.803 103.9C102.696 103.986 102.536 104.028 102.323 104.028H96.9471V103.036H101.875L101.603 103.26C101.603 102.727 101.523 102.274 101.363 101.9C101.214 101.527 100.984 101.244 100.675 101.052C100.376 100.85 100.003 100.748 99.5551 100.748C99.0538 100.748 98.6271 100.866 98.2751 101.1C97.9338 101.335 97.6725 101.66 97.4911 102.076C97.3098 102.492 97.2191 102.978 97.2191 103.532V103.628C97.2191 104.567 97.4378 105.276 97.8751 105.756C98.3231 106.226 98.9685 106.46 99.8111 106.46C100.131 106.46 100.467 106.418 100.819 106.332C101.182 106.247 101.523 106.103 101.843 105.9C102.024 105.794 102.184 105.746 102.323 105.756C102.472 105.767 102.59 105.815 102.675 105.9C102.771 105.986 102.83 106.092 102.851 106.22C102.872 106.348 102.851 106.482 102.787 106.62C102.723 106.748 102.611 106.866 102.451 106.972C102.088 107.218 101.667 107.404 101.187 107.532C100.707 107.65 100.243 107.708 99.7951 107.708ZM105.541 107.676C105.274 107.676 105.072 107.607 104.933 107.468C104.794 107.319 104.725 107.116 104.725 106.86V100.46C104.725 100.194 104.794 99.9911 104.933 99.8525C105.072 99.7138 105.264 99.6445 105.509 99.6445C105.765 99.6445 105.957 99.7138 106.085 99.8525C106.224 99.9911 106.293 100.194 106.293 100.46V101.628H106.133C106.304 100.988 106.618 100.503 107.077 100.172C107.536 99.8418 108.122 99.6498 108.837 99.5965C109.029 99.5858 109.178 99.6338 109.285 99.7405C109.402 99.8471 109.466 100.012 109.477 100.236C109.498 100.46 109.45 100.642 109.333 100.78C109.216 100.908 109.034 100.983 108.789 101.004L108.485 101.036C107.792 101.1 107.264 101.319 106.901 101.692C106.538 102.066 106.357 102.578 106.357 103.228V106.86C106.357 107.116 106.288 107.319 106.149 107.468C106.021 107.607 105.818 107.676 105.541 107.676ZM113.351 107.708C112.882 107.708 112.397 107.655 111.895 107.548C111.405 107.442 110.951 107.26 110.535 107.004C110.397 106.908 110.301 106.802 110.247 106.684C110.194 106.567 110.173 106.45 110.183 106.332C110.205 106.204 110.253 106.098 110.327 106.012C110.413 105.916 110.514 105.858 110.631 105.836C110.759 105.815 110.893 105.842 111.031 105.916C111.447 106.151 111.847 106.316 112.231 106.412C112.615 106.498 112.994 106.54 113.367 106.54C113.933 106.54 114.359 106.439 114.647 106.236C114.935 106.034 115.079 105.762 115.079 105.42C115.079 105.143 114.983 104.93 114.791 104.78C114.599 104.62 114.311 104.498 113.927 104.412L112.407 104.108C111.746 103.97 111.245 103.724 110.903 103.372C110.562 103.02 110.391 102.572 110.391 102.028C110.391 101.538 110.525 101.111 110.791 100.748C111.058 100.386 111.431 100.108 111.911 99.9165C112.391 99.7138 112.946 99.6125 113.575 99.6125C114.045 99.6125 114.487 99.6711 114.903 99.7885C115.319 99.9058 115.703 100.082 116.055 100.316C116.194 100.391 116.285 100.492 116.327 100.62C116.37 100.738 116.375 100.855 116.343 100.972C116.322 101.09 116.269 101.196 116.183 101.292C116.098 101.378 115.991 101.431 115.863 101.452C115.746 101.463 115.613 101.431 115.463 101.356C115.143 101.154 114.823 101.01 114.503 100.924C114.194 100.839 113.885 100.796 113.575 100.796C113.01 100.796 112.583 100.903 112.295 101.116C112.018 101.319 111.879 101.596 111.879 101.948C111.879 102.215 111.965 102.434 112.135 102.604C112.306 102.775 112.573 102.898 112.935 102.972L114.455 103.276C115.149 103.415 115.671 103.65 116.023 103.98C116.386 104.311 116.567 104.759 116.567 105.324C116.567 106.06 116.274 106.642 115.687 107.068C115.101 107.495 114.322 107.708 113.351 107.708ZM121.757 107.708C120.968 107.708 120.285 107.543 119.709 107.212C119.144 106.882 118.701 106.412 118.381 105.804C118.061 105.196 117.901 104.482 117.901 103.66C117.901 103.031 117.992 102.471 118.173 101.98C118.355 101.49 118.611 101.068 118.941 100.716C119.283 100.354 119.688 100.082 120.157 99.9005C120.637 99.7085 121.171 99.6125 121.757 99.6125C122.536 99.6125 123.208 99.7778 123.773 100.108C124.349 100.439 124.797 100.908 125.117 101.516C125.437 102.114 125.597 102.828 125.597 103.66C125.597 104.279 125.507 104.839 125.325 105.34C125.144 105.842 124.883 106.268 124.541 106.62C124.211 106.972 123.805 107.244 123.325 107.436C122.856 107.618 122.333 107.708 121.757 107.708ZM121.757 106.46C122.195 106.46 122.579 106.354 122.909 106.14C123.24 105.927 123.496 105.612 123.677 105.196C123.869 104.78 123.965 104.268 123.965 103.66C123.965 102.743 123.763 102.05 123.357 101.58C122.952 101.111 122.419 100.876 121.757 100.876C121.309 100.876 120.92 100.983 120.589 101.196C120.259 101.399 119.997 101.708 119.805 102.124C119.624 102.54 119.533 103.052 119.533 103.66C119.533 104.567 119.736 105.26 120.141 105.74C120.547 106.22 121.085 106.46 121.757 106.46ZM128.212 107.676C127.956 107.676 127.759 107.607 127.62 107.468C127.482 107.319 127.412 107.116 127.412 106.86V100.46C127.412 100.194 127.482 99.9911 127.62 99.8525C127.759 99.7138 127.951 99.6445 128.196 99.6445C128.452 99.6445 128.644 99.7138 128.772 99.8525C128.911 99.9911 128.98 100.194 128.98 100.46V101.708L128.804 101.42C129.039 100.823 129.407 100.375 129.908 100.076C130.41 99.7671 130.986 99.6125 131.636 99.6125C132.255 99.6125 132.767 99.7298 133.172 99.9645C133.588 100.188 133.898 100.535 134.1 101.004C134.303 101.463 134.404 102.044 134.404 102.748V106.86C134.404 107.116 134.335 107.319 134.196 107.468C134.058 107.607 133.86 107.676 133.604 107.676C133.338 107.676 133.135 107.607 132.996 107.468C132.858 107.319 132.788 107.116 132.788 106.86V102.844C132.788 102.172 132.655 101.682 132.388 101.372C132.132 101.063 131.727 100.908 131.172 100.908C130.522 100.908 129.999 101.111 129.604 101.516C129.22 101.922 129.028 102.466 129.028 103.148V106.86C129.028 107.404 128.756 107.676 128.212 107.676ZM139.127 107.708C138.583 107.708 138.092 107.602 137.655 107.388C137.228 107.175 136.892 106.887 136.647 106.524C136.402 106.162 136.279 105.751 136.279 105.292C136.279 104.716 136.423 104.263 136.711 103.932C137.01 103.591 137.495 103.351 138.167 103.212C138.85 103.063 139.767 102.988 140.919 102.988H141.671V103.98H140.935C140.167 103.98 139.559 104.018 139.111 104.092C138.663 104.167 138.343 104.295 138.151 104.476C137.97 104.647 137.879 104.887 137.879 105.196C137.879 105.602 138.018 105.932 138.295 106.188C138.572 106.434 138.956 106.556 139.447 106.556C139.842 106.556 140.188 106.466 140.487 106.284C140.786 106.092 141.02 105.836 141.191 105.516C141.372 105.196 141.463 104.828 141.463 104.412V102.572C141.463 101.964 141.335 101.527 141.079 101.26C140.823 100.994 140.402 100.86 139.815 100.86C139.474 100.86 139.116 100.903 138.743 100.988C138.38 101.074 138.002 101.218 137.607 101.42C137.426 101.506 137.271 101.532 137.143 101.5C137.015 101.468 136.914 101.399 136.839 101.292C136.764 101.175 136.722 101.052 136.711 100.924C136.711 100.786 136.743 100.652 136.807 100.524C136.882 100.396 137.004 100.3 137.175 100.236C137.644 100.012 138.108 99.8525 138.567 99.7565C139.026 99.6605 139.458 99.6125 139.863 99.6125C140.578 99.6125 141.164 99.7245 141.623 99.9485C142.092 100.172 142.439 100.514 142.663 100.972C142.887 101.431 142.999 102.023 142.999 102.748V106.86C142.999 107.116 142.935 107.319 142.807 107.468C142.679 107.607 142.492 107.676 142.247 107.676C142.012 107.676 141.826 107.607 141.687 107.468C141.548 107.319 141.479 107.116 141.479 106.86V105.82H141.623C141.538 106.215 141.378 106.556 141.143 106.844C140.919 107.122 140.636 107.335 140.295 107.484C139.954 107.634 139.564 107.708 139.127 107.708ZM147.737 107.708C146.905 107.708 146.276 107.468 145.849 106.988C145.433 106.498 145.225 105.794 145.225 104.876V96.9885C145.225 96.7218 145.294 96.5191 145.433 96.3805C145.572 96.2418 145.769 96.1725 146.025 96.1725C146.281 96.1725 146.478 96.2418 146.617 96.3805C146.766 96.5191 146.841 96.7218 146.841 96.9885V104.78C146.841 105.314 146.948 105.714 147.161 105.98C147.385 106.236 147.705 106.364 148.121 106.364C148.217 106.364 148.302 106.364 148.377 106.364C148.452 106.354 148.526 106.343 148.601 106.332C148.729 106.322 148.82 106.359 148.873 106.444C148.926 106.519 148.953 106.679 148.953 106.924C148.953 107.148 148.905 107.324 148.809 107.452C148.713 107.57 148.558 107.644 148.345 107.676C148.249 107.687 148.148 107.692 148.041 107.692C147.934 107.703 147.833 107.708 147.737 107.708ZM156.83 107.708C156.286 107.708 155.796 107.602 155.358 107.388C154.932 107.175 154.596 106.887 154.35 106.524C154.105 106.162 153.982 105.751 153.982 105.292C153.982 104.716 154.126 104.263 154.414 103.932C154.713 103.591 155.198 103.351 155.87 103.212C156.553 103.063 157.47 102.988 158.622 102.988H159.374V103.98H158.638C157.87 103.98 157.262 104.018 156.814 104.092C156.366 104.167 156.046 104.295 155.854 104.476C155.673 104.647 155.582 104.887 155.582 105.196C155.582 105.602 155.721 105.932 155.998 106.188C156.276 106.434 156.66 106.556 157.15 106.556C157.545 106.556 157.892 106.466 158.19 106.284C158.489 106.092 158.724 105.836 158.894 105.516C159.076 105.196 159.166 104.828 159.166 104.412V102.572C159.166 101.964 159.038 101.527 158.782 101.26C158.526 100.994 158.105 100.86 157.518 100.86C157.177 100.86 156.82 100.903 156.446 100.988C156.084 101.074 155.705 101.218 155.31 101.42C155.129 101.506 154.974 101.532 154.846 101.5C154.718 101.468 154.617 101.399 154.542 101.292C154.468 101.175 154.425 101.052 154.414 100.924C154.414 100.786 154.446 100.652 154.51 100.524C154.585 100.396 154.708 100.3 154.878 100.236C155.348 100.012 155.812 99.8525 156.27 99.7565C156.729 99.6605 157.161 99.6125 157.566 99.6125C158.281 99.6125 158.868 99.7245 159.326 99.9485C159.796 100.172 160.142 100.514 160.366 100.972C160.59 101.431 160.702 102.023 160.702 102.748V106.86C160.702 107.116 160.638 107.319 160.51 107.468C160.382 107.607 160.196 107.676 159.95 107.676C159.716 107.676 159.529 107.607 159.39 107.468C159.252 107.319 159.182 107.116 159.182 106.86V105.82H159.326C159.241 106.215 159.081 106.556 158.846 106.844C158.622 107.122 158.34 107.335 157.998 107.484C157.657 107.634 157.268 107.708 156.83 107.708ZM166.368 107.708C165.568 107.708 164.875 107.543 164.288 107.212C163.712 106.871 163.264 106.396 162.944 105.788C162.624 105.17 162.464 104.444 162.464 103.612C162.464 102.994 162.555 102.439 162.736 101.948C162.917 101.447 163.173 101.026 163.504 100.684C163.845 100.343 164.256 100.082 164.736 99.9005C165.227 99.7085 165.771 99.6125 166.368 99.6125C166.741 99.6125 167.131 99.6711 167.536 99.7885C167.952 99.8951 168.336 100.076 168.688 100.332C168.827 100.418 168.912 100.524 168.944 100.652C168.987 100.77 168.992 100.892 168.96 101.02C168.939 101.148 168.88 101.26 168.784 101.356C168.699 101.442 168.592 101.495 168.464 101.516C168.336 101.527 168.197 101.49 168.048 101.404C167.792 101.223 167.531 101.095 167.264 101.02C166.997 100.935 166.741 100.892 166.496 100.892C166.112 100.892 165.771 100.956 165.472 101.084C165.184 101.202 164.939 101.378 164.736 101.612C164.533 101.836 164.379 102.119 164.272 102.46C164.176 102.802 164.128 103.191 164.128 103.628C164.128 104.503 164.331 105.191 164.736 105.692C165.152 106.183 165.739 106.428 166.496 106.428C166.741 106.428 166.997 106.391 167.264 106.316C167.531 106.242 167.792 106.114 168.048 105.932C168.197 105.847 168.336 105.815 168.464 105.836C168.592 105.858 168.693 105.916 168.768 106.012C168.853 106.098 168.907 106.204 168.928 106.332C168.96 106.45 168.955 106.572 168.912 106.7C168.869 106.828 168.779 106.935 168.64 107.02C168.299 107.266 167.925 107.442 167.52 107.548C167.125 107.655 166.741 107.708 166.368 107.708ZM173.68 107.708C172.88 107.708 172.187 107.543 171.6 107.212C171.024 106.871 170.576 106.396 170.256 105.788C169.936 105.17 169.776 104.444 169.776 103.612C169.776 102.994 169.867 102.439 170.048 101.948C170.23 101.447 170.486 101.026 170.816 100.684C171.158 100.343 171.568 100.082 172.048 99.9005C172.539 99.7085 173.083 99.6125 173.68 99.6125C174.054 99.6125 174.443 99.6711 174.848 99.7885C175.264 99.8951 175.648 100.076 176 100.332C176.139 100.418 176.224 100.524 176.256 100.652C176.299 100.77 176.304 100.892 176.272 101.02C176.251 101.148 176.192 101.26 176.096 101.356C176.011 101.442 175.904 101.495 175.776 101.516C175.648 101.527 175.51 101.49 175.36 101.404C175.104 101.223 174.843 101.095 174.576 101.02C174.31 100.935 174.054 100.892 173.808 100.892C173.424 100.892 173.083 100.956 172.784 101.084C172.496 101.202 172.251 101.378 172.048 101.612C171.846 101.836 171.691 102.119 171.584 102.46C171.488 102.802 171.44 103.191 171.44 103.628C171.44 104.503 171.643 105.191 172.048 105.692C172.464 106.183 173.051 106.428 173.808 106.428C174.054 106.428 174.31 106.391 174.576 106.316C174.843 106.242 175.104 106.114 175.36 105.932C175.51 105.847 175.648 105.815 175.776 105.836C175.904 105.858 176.006 105.916 176.08 106.012C176.166 106.098 176.219 106.204 176.24 106.332C176.272 106.45 176.267 106.572 176.224 106.7C176.182 106.828 176.091 106.935 175.952 107.02C175.611 107.266 175.238 107.442 174.832 107.548C174.438 107.655 174.054 107.708 173.68 107.708ZM180.945 107.708C180.156 107.708 179.473 107.543 178.897 107.212C178.332 106.882 177.889 106.412 177.569 105.804C177.249 105.196 177.089 104.482 177.089 103.66C177.089 103.031 177.18 102.471 177.361 101.98C177.542 101.49 177.798 101.068 178.129 100.716C178.47 100.354 178.876 100.082 179.345 99.9005C179.825 99.7085 180.358 99.6125 180.945 99.6125C181.724 99.6125 182.396 99.7778 182.961 100.108C183.537 100.439 183.985 100.908 184.305 101.516C184.625 102.114 184.785 102.828 184.785 103.66C184.785 104.279 184.694 104.839 184.513 105.34C184.332 105.842 184.07 106.268 183.729 106.62C183.398 106.972 182.993 107.244 182.513 107.436C182.044 107.618 181.521 107.708 180.945 107.708ZM180.945 106.46C181.382 106.46 181.766 106.354 182.097 106.14C182.428 105.927 182.684 105.612 182.865 105.196C183.057 104.78 183.153 104.268 183.153 103.66C183.153 102.743 182.95 102.05 182.545 101.58C182.14 101.111 181.606 100.876 180.945 100.876C180.497 100.876 180.108 100.983 179.777 101.196C179.446 101.399 179.185 101.708 178.993 102.124C178.812 102.54 178.721 103.052 178.721 103.66C178.721 104.567 178.924 105.26 179.329 105.74C179.734 106.22 180.273 106.46 180.945 106.46ZM189.384 107.708C188.755 107.708 188.227 107.591 187.8 107.356C187.384 107.122 187.069 106.775 186.856 106.316C186.653 105.847 186.552 105.26 186.552 104.556V100.46C186.552 100.183 186.621 99.9805 186.76 99.8525C186.899 99.7138 187.096 99.6445 187.352 99.6445C187.608 99.6445 187.805 99.7138 187.944 99.8525C188.093 99.9805 188.168 100.183 188.168 100.46V104.572C188.168 105.202 188.296 105.666 188.552 105.964C188.808 106.263 189.213 106.412 189.768 106.412C190.376 106.412 190.867 106.21 191.24 105.804C191.624 105.388 191.816 104.844 191.816 104.172V100.46C191.816 100.183 191.885 99.9805 192.024 99.8525C192.163 99.7138 192.365 99.6445 192.632 99.6445C192.888 99.6445 193.085 99.7138 193.224 99.8525C193.363 99.9805 193.432 100.183 193.432 100.46V106.86C193.432 107.404 193.171 107.676 192.648 107.676C192.403 107.676 192.211 107.607 192.072 107.468C191.933 107.319 191.864 107.116 191.864 106.86V105.5L192.072 105.852C191.859 106.45 191.517 106.908 191.048 107.228C190.579 107.548 190.024 107.708 189.384 107.708ZM196.509 107.676C196.253 107.676 196.056 107.607 195.917 107.468C195.779 107.319 195.709 107.116 195.709 106.86V100.46C195.709 100.194 195.779 99.9911 195.917 99.8525C196.056 99.7138 196.248 99.6445 196.493 99.6445C196.749 99.6445 196.941 99.7138 197.069 99.8525C197.208 99.9911 197.277 100.194 197.277 100.46V101.708L197.101 101.42C197.336 100.823 197.704 100.375 198.205 100.076C198.707 99.7671 199.283 99.6125 199.933 99.6125C200.552 99.6125 201.064 99.7298 201.469 99.9645C201.885 100.188 202.195 100.535 202.397 101.004C202.6 101.463 202.701 102.044 202.701 102.748V106.86C202.701 107.116 202.632 107.319 202.493 107.468C202.355 107.607 202.157 107.676 201.901 107.676C201.635 107.676 201.432 107.607 201.293 107.468C201.155 107.319 201.085 107.116 201.085 106.86V102.844C201.085 102.172 200.952 101.682 200.685 101.372C200.429 101.063 200.024 100.908 199.469 100.908C198.819 100.908 198.296 101.111 197.901 101.516C197.517 101.922 197.325 102.466 197.325 103.148V106.86C197.325 107.404 197.053 107.676 196.509 107.676ZM208.256 107.708C207.616 107.708 207.077 107.596 206.64 107.372C206.203 107.148 205.877 106.818 205.664 106.38C205.451 105.943 205.344 105.41 205.344 104.78V101.004H204.384C204.171 101.004 204.005 100.951 203.888 100.844C203.771 100.727 203.712 100.572 203.712 100.38C203.712 100.178 203.771 100.023 203.888 99.9165C204.005 99.8098 204.171 99.7565 204.384 99.7565H205.344V98.1085C205.344 97.8418 205.413 97.6391 205.552 97.5005C205.701 97.3618 205.904 97.2925 206.16 97.2925C206.416 97.2925 206.613 97.3618 206.752 97.5005C206.891 97.6391 206.96 97.8418 206.96 98.1085V99.7565H208.832C209.045 99.7565 209.211 99.8098 209.328 99.9165C209.445 100.023 209.504 100.178 209.504 100.38C209.504 100.572 209.445 100.727 209.328 100.844C209.211 100.951 209.045 101.004 208.832 101.004H206.96V104.652C206.96 105.218 207.077 105.644 207.312 105.932C207.557 106.22 207.952 106.364 208.496 106.364C208.688 106.364 208.853 106.348 208.992 106.316C209.141 106.274 209.264 106.247 209.36 106.236C209.477 106.236 209.573 106.279 209.648 106.364C209.723 106.439 209.76 106.588 209.76 106.812C209.76 106.972 209.728 107.122 209.664 107.26C209.611 107.399 209.509 107.49 209.36 107.532C209.232 107.575 209.056 107.612 208.832 107.644C208.619 107.687 208.427 107.708 208.256 107.708Z" fill="#191C1E"/>
<path d="M21.6524 139.662C21.4564 139.662 21.3024 139.611 21.1904 139.508C21.0877 139.396 21.0364 139.238 21.0364 139.032V130.324C21.0364 130.119 21.0877 129.965 21.1904 129.862C21.3024 129.75 21.4611 129.694 21.6664 129.694H26.7484C26.9071 129.694 27.0284 129.736 27.1124 129.82C27.1964 129.904 27.2384 130.021 27.2384 130.17C27.2384 130.329 27.1964 130.45 27.1124 130.534C27.0284 130.618 26.9071 130.66 26.7484 130.66H22.1844V134.104H26.4544C26.6131 134.104 26.7344 134.146 26.8184 134.23C26.9117 134.314 26.9584 134.431 26.9584 134.58C26.9584 134.739 26.9117 134.86 26.8184 134.944C26.7344 135.028 26.6131 135.07 26.4544 135.07H22.1844V139.032C22.1844 139.452 22.0071 139.662 21.6524 139.662ZM31.1205 139.69C30.4579 139.69 29.8839 139.546 29.3985 139.256C28.9132 138.967 28.5352 138.561 28.2645 138.038C28.0032 137.506 27.8725 136.881 27.8725 136.162C27.8725 135.621 27.9472 135.136 28.0965 134.706C28.2459 134.268 28.4652 133.894 28.7545 133.586C29.0439 133.278 29.3845 133.045 29.7765 132.886C30.1779 132.718 30.6259 132.634 31.1205 132.634C31.7832 132.634 32.3572 132.779 32.8425 133.068C33.3279 133.358 33.7012 133.768 33.9625 134.3C34.2332 134.823 34.3685 135.444 34.3685 136.162C34.3685 136.704 34.2939 137.189 34.1445 137.618C33.9952 138.048 33.7759 138.421 33.4865 138.738C33.1972 139.046 32.8519 139.284 32.4505 139.452C32.0585 139.611 31.6152 139.69 31.1205 139.69ZM31.1205 138.78C31.5405 138.78 31.9092 138.678 32.2265 138.472C32.5439 138.267 32.7865 137.968 32.9545 137.576C33.1319 137.184 33.2205 136.713 33.2205 136.162C33.2205 135.313 33.0292 134.664 32.6465 134.216C32.2732 133.768 31.7645 133.544 31.1205 133.544C30.6912 133.544 30.3179 133.647 30.0005 133.852C29.6925 134.048 29.4499 134.342 29.2725 134.734C29.1045 135.117 29.0205 135.593 29.0205 136.162C29.0205 137.002 29.2119 137.651 29.5945 138.108C29.9772 138.556 30.4859 138.78 31.1205 138.78ZM36.6458 139.662C36.4592 139.662 36.3145 139.611 36.2118 139.508C36.1185 139.406 36.0718 139.261 36.0718 139.074V133.236C36.0718 133.05 36.1185 132.91 36.2118 132.816C36.3052 132.714 36.4405 132.662 36.6178 132.662C36.7952 132.662 36.9305 132.714 37.0238 132.816C37.1265 132.91 37.1778 133.05 37.1778 133.236V134.37H37.0378C37.1872 133.82 37.4718 133.395 37.8918 133.096C38.3118 132.798 38.8298 132.639 39.4458 132.62C39.5858 132.611 39.6978 132.644 39.7818 132.718C39.8658 132.784 39.9125 132.9 39.9218 133.068C39.9312 133.227 39.8938 133.353 39.8098 133.446C39.7258 133.54 39.5952 133.596 39.4178 133.614L39.1938 133.642C38.5592 133.698 38.0692 133.904 37.7238 134.258C37.3878 134.604 37.2198 135.08 37.2198 135.686V139.074C37.2198 139.261 37.1685 139.406 37.0658 139.508C36.9725 139.611 36.8325 139.662 36.6458 139.662ZM46.9948 139.69C46.5748 139.69 46.1501 139.639 45.7208 139.536C45.3008 139.434 44.9088 139.256 44.5448 139.004C44.4515 138.939 44.3861 138.864 44.3488 138.78C44.3115 138.687 44.2975 138.598 44.3068 138.514C44.3255 138.421 44.3628 138.342 44.4188 138.276C44.4841 138.211 44.5588 138.174 44.6428 138.164C44.7361 138.146 44.8388 138.164 44.9508 138.22C45.3148 138.444 45.6648 138.603 46.0008 138.696C46.3461 138.78 46.6868 138.822 47.0228 138.822C47.5548 138.822 47.9561 138.724 48.2268 138.528C48.4975 138.332 48.6328 138.066 48.6328 137.73C48.6328 137.469 48.5441 137.264 48.3668 137.114C48.1895 136.956 47.9095 136.834 47.5268 136.75L46.2528 136.47C45.6648 136.349 45.2261 136.139 44.9368 135.84C44.6568 135.542 44.5168 135.154 44.5168 134.678C44.5168 134.258 44.6241 133.899 44.8388 133.6C45.0628 133.292 45.3755 133.054 45.7768 132.886C46.1781 132.718 46.6448 132.634 47.1768 132.634C47.5875 132.634 47.9748 132.69 48.3388 132.802C48.7121 132.905 49.0481 133.073 49.3468 133.306C49.4401 133.372 49.5008 133.451 49.5288 133.544C49.5661 133.628 49.5708 133.717 49.5428 133.81C49.5241 133.894 49.4821 133.969 49.4168 134.034C49.3515 134.09 49.2721 134.123 49.1788 134.132C49.0855 134.142 48.9875 134.114 48.8848 134.048C48.6048 133.862 48.3201 133.726 48.0308 133.642C47.7415 133.549 47.4568 133.502 47.1768 133.502C46.6541 133.502 46.2575 133.605 45.9868 133.81C45.7161 134.016 45.5808 134.286 45.5808 134.622C45.5808 134.884 45.6648 135.098 45.8328 135.266C46.0008 135.434 46.2621 135.556 46.6168 135.63L47.8908 135.896C48.4975 136.027 48.9501 136.237 49.2488 136.526C49.5568 136.806 49.7108 137.189 49.7108 137.674C49.7108 138.29 49.4635 138.78 48.9688 139.144C48.4741 139.508 47.8161 139.69 46.9948 139.69ZM54.267 139.69C53.6044 139.69 53.0304 139.546 52.545 139.256C52.0597 138.967 51.6817 138.561 51.411 138.038C51.1497 137.506 51.019 136.881 51.019 136.162C51.019 135.621 51.0937 135.136 51.243 134.706C51.3924 134.268 51.6117 133.894 51.901 133.586C52.1904 133.278 52.531 133.045 52.923 132.886C53.3244 132.718 53.7724 132.634 54.267 132.634C54.9297 132.634 55.5037 132.779 55.989 133.068C56.4744 133.358 56.8477 133.768 57.109 134.3C57.3797 134.823 57.515 135.444 57.515 136.162C57.515 136.704 57.4404 137.189 57.291 137.618C57.1417 138.048 56.9224 138.421 56.633 138.738C56.3437 139.046 55.9984 139.284 55.597 139.452C55.205 139.611 54.7617 139.69 54.267 139.69ZM54.267 138.78C54.687 138.78 55.0557 138.678 55.373 138.472C55.6904 138.267 55.933 137.968 56.101 137.576C56.2784 137.184 56.367 136.713 56.367 136.162C56.367 135.313 56.1757 134.664 55.793 134.216C55.4197 133.768 54.911 133.544 54.267 133.544C53.8377 133.544 53.4644 133.647 53.147 133.852C52.839 134.048 52.5964 134.342 52.419 134.734C52.251 135.117 52.167 135.593 52.167 136.162C52.167 137.002 52.3584 137.651 52.741 138.108C53.1237 138.556 53.6324 138.78 54.267 138.78ZM62.1023 139.69C61.421 139.69 60.833 139.541 60.3383 139.242C59.8437 138.944 59.461 138.528 59.1903 137.996C58.929 137.455 58.7983 136.83 58.7983 136.12C58.7983 135.579 58.873 135.094 59.0223 134.664C59.1717 134.235 59.391 133.871 59.6803 133.572C59.9697 133.264 60.315 133.031 60.7163 132.872C61.127 132.714 61.589 132.634 62.1023 132.634C62.4383 132.634 62.7883 132.686 63.1523 132.788C63.5163 132.891 63.8477 133.068 64.1463 133.32C64.2397 133.386 64.3003 133.465 64.3283 133.558C64.3563 133.652 64.3563 133.745 64.3283 133.838C64.3003 133.922 64.2537 133.997 64.1883 134.062C64.123 134.118 64.039 134.151 63.9363 134.16C63.843 134.17 63.745 134.137 63.6423 134.062C63.3997 133.876 63.1523 133.745 62.9003 133.67C62.6483 133.596 62.4057 133.558 62.1723 133.558C61.8083 133.558 61.491 133.619 61.2203 133.74C60.9497 133.852 60.721 134.016 60.5343 134.23C60.3477 134.445 60.203 134.711 60.1003 135.028C60.007 135.346 59.9603 135.714 59.9603 136.134C59.9603 136.946 60.1517 137.59 60.5343 138.066C60.917 138.533 61.463 138.766 62.1723 138.766C62.4057 138.766 62.6437 138.729 62.8863 138.654C63.1383 138.58 63.3903 138.449 63.6423 138.262C63.745 138.188 63.843 138.155 63.9363 138.164C64.0297 138.174 64.109 138.211 64.1743 138.276C64.2397 138.332 64.2817 138.407 64.3003 138.5C64.3283 138.594 64.3283 138.687 64.3003 138.78C64.2723 138.864 64.2117 138.939 64.1183 139.004C63.8197 139.247 63.493 139.424 63.1383 139.536C62.7837 139.639 62.4383 139.69 62.1023 139.69ZM66.2588 139.634C66.0721 139.634 65.9321 139.583 65.8388 139.48C65.7455 139.368 65.6988 139.214 65.6988 139.018V133.292C65.6988 133.096 65.7455 132.947 65.8388 132.844C65.9321 132.742 66.0721 132.69 66.2588 132.69C66.4361 132.69 66.5761 132.742 66.6788 132.844C66.7815 132.947 66.8328 133.096 66.8328 133.292V139.018C66.8328 139.214 66.7815 139.368 66.6788 139.48C66.5855 139.583 66.4455 139.634 66.2588 139.634ZM66.2588 131.122C66.0255 131.122 65.8435 131.062 65.7128 130.94C65.5821 130.81 65.5168 130.637 65.5168 130.422C65.5168 130.198 65.5821 130.03 65.7128 129.918C65.8435 129.797 66.0255 129.736 66.2588 129.736C66.5015 129.736 66.6835 129.797 66.8048 129.918C66.9355 130.03 67.0008 130.198 67.0008 130.422C67.0008 130.637 66.9355 130.81 66.8048 130.94C66.6835 131.062 66.5015 131.122 66.2588 131.122ZM71.0947 139.69C70.628 139.69 70.208 139.602 69.8347 139.424C69.4707 139.238 69.1814 138.986 68.9667 138.668C68.752 138.351 68.6447 137.996 68.6447 137.604C68.6447 137.1 68.7707 136.704 69.0227 136.414C69.284 136.125 69.7087 135.92 70.2967 135.798C70.894 135.677 71.706 135.616 72.7327 135.616H73.3627V136.358H72.7467C71.9907 136.358 71.3934 136.396 70.9547 136.47C70.5254 136.536 70.222 136.652 70.0447 136.82C69.8767 136.988 69.7927 137.226 69.7927 137.534C69.7927 137.917 69.9234 138.23 70.1847 138.472C70.4554 138.715 70.8194 138.836 71.2767 138.836C71.65 138.836 71.9767 138.748 72.2567 138.57C72.546 138.393 72.77 138.15 72.9287 137.842C73.0967 137.534 73.1807 137.18 73.1807 136.778V135.182C73.1807 134.604 73.064 134.188 72.8307 133.936C72.5974 133.675 72.2147 133.544 71.6827 133.544C71.356 133.544 71.0294 133.586 70.7027 133.67C70.376 133.754 70.0307 133.89 69.6667 134.076C69.536 134.142 69.424 134.165 69.3307 134.146C69.2374 134.118 69.1627 134.067 69.1067 133.992C69.0507 133.918 69.018 133.834 69.0087 133.74C68.9994 133.638 69.018 133.54 69.0647 133.446C69.1207 133.353 69.2047 133.278 69.3167 133.222C69.7274 133.017 70.1334 132.868 70.5347 132.774C70.936 132.681 71.3187 132.634 71.6827 132.634C72.2707 132.634 72.756 132.732 73.1387 132.928C73.5214 133.115 73.806 133.404 73.9927 133.796C74.1794 134.179 74.2727 134.674 74.2727 135.28V139.074C74.2727 139.261 74.226 139.406 74.1327 139.508C74.0487 139.611 73.9227 139.662 73.7547 139.662C73.5774 139.662 73.442 139.611 73.3487 139.508C73.2554 139.406 73.2087 139.261 73.2087 139.074V137.982H73.3347C73.26 138.337 73.1154 138.64 72.9007 138.892C72.6954 139.144 72.4387 139.34 72.1307 139.48C71.8227 139.62 71.4774 139.69 71.0947 139.69ZM78.4485 139.69C77.7765 139.69 77.2632 139.485 76.9085 139.074C76.5539 138.664 76.3765 138.076 76.3765 137.31V130.17C76.3765 129.984 76.4232 129.844 76.5165 129.75C76.6099 129.648 76.7499 129.596 76.9365 129.596C77.1139 129.596 77.2539 129.648 77.3565 129.75C77.4592 129.844 77.5105 129.984 77.5105 130.17V137.226C77.5105 137.73 77.6085 138.108 77.8045 138.36C78.0099 138.603 78.3085 138.724 78.7005 138.724C78.7845 138.724 78.8592 138.72 78.9245 138.71C78.9899 138.701 79.0552 138.696 79.1205 138.696C79.2232 138.687 79.2932 138.71 79.3305 138.766C79.3772 138.822 79.4005 138.934 79.4005 139.102C79.4005 139.27 79.3632 139.396 79.2885 139.48C79.2139 139.564 79.0925 139.62 78.9245 139.648C78.8499 139.658 78.7705 139.667 78.6865 139.676C78.6025 139.686 78.5232 139.69 78.4485 139.69ZM81.0791 139.634C80.8924 139.634 80.7524 139.583 80.6591 139.48C80.5658 139.368 80.5191 139.214 80.5191 139.018V133.292C80.5191 133.096 80.5658 132.947 80.6591 132.844C80.7524 132.742 80.8924 132.69 81.0791 132.69C81.2564 132.69 81.3964 132.742 81.4991 132.844C81.6018 132.947 81.6531 133.096 81.6531 133.292V139.018C81.6531 139.214 81.6018 139.368 81.4991 139.48C81.4058 139.583 81.2658 139.634 81.0791 139.634ZM81.0791 131.122C80.8458 131.122 80.6638 131.062 80.5331 130.94C80.4024 130.81 80.3371 130.637 80.3371 130.422C80.3371 130.198 80.4024 130.03 80.5331 129.918C80.6638 129.797 80.8458 129.736 81.0791 129.736C81.3218 129.736 81.5038 129.797 81.6251 129.918C81.7558 130.03 81.8211 130.198 81.8211 130.422C81.8211 130.637 81.7558 130.81 81.6251 130.94C81.5038 131.062 81.3218 131.122 81.0791 131.122ZM83.899 139.564C83.7777 139.564 83.6797 139.536 83.605 139.48C83.5303 139.424 83.479 139.35 83.451 139.256C83.423 139.163 83.423 139.06 83.451 138.948C83.479 138.836 83.5397 138.729 83.633 138.626L87.581 133.348V133.642H83.843C83.6937 133.642 83.577 133.605 83.493 133.53C83.4183 133.446 83.381 133.334 83.381 133.194C83.381 133.054 83.4183 132.947 83.493 132.872C83.577 132.798 83.6937 132.76 83.843 132.76H88.141C88.281 132.76 88.393 132.788 88.477 132.844C88.5703 132.9 88.631 132.975 88.659 133.068C88.687 133.152 88.687 133.25 88.659 133.362C88.6403 133.465 88.589 133.568 88.505 133.67L84.487 139.004V138.682H88.421C88.729 138.682 88.883 138.827 88.883 139.116C88.883 139.256 88.841 139.368 88.757 139.452C88.6823 139.527 88.5703 139.564 88.421 139.564H83.899ZM90.8135 139.634C90.6268 139.634 90.4868 139.583 90.3935 139.48C90.3002 139.368 90.2535 139.214 90.2535 139.018V133.292C90.2535 133.096 90.3002 132.947 90.3935 132.844C90.4868 132.742 90.6268 132.69 90.8135 132.69C90.9908 132.69 91.1308 132.742 91.2335 132.844C91.3362 132.947 91.3875 133.096 91.3875 133.292V139.018C91.3875 139.214 91.3362 139.368 91.2335 139.48C91.1402 139.583 91.0002 139.634 90.8135 139.634ZM90.8135 131.122C90.5802 131.122 90.3982 131.062 90.2675 130.94C90.1368 130.81 90.0715 130.637 90.0715 130.422C90.0715 130.198 90.1368 130.03 90.2675 129.918C90.3982 129.797 90.5802 129.736 90.8135 129.736C91.0562 129.736 91.2382 129.797 91.3595 129.918C91.4902 130.03 91.5555 130.198 91.5555 130.422C91.5555 130.637 91.4902 130.81 91.3595 130.94C91.2382 131.062 91.0562 131.122 90.8135 131.122ZM94.0674 139.662C93.8807 139.662 93.7407 139.611 93.6474 139.508C93.5541 139.406 93.5074 139.261 93.5074 139.074V133.236C93.5074 133.05 93.5541 132.91 93.6474 132.816C93.7407 132.714 93.8761 132.662 94.0534 132.662C94.2307 132.662 94.3661 132.714 94.4594 132.816C94.5621 132.91 94.6134 133.05 94.6134 133.236V134.44L94.4594 134.272C94.6554 133.731 94.9727 133.325 95.4114 133.054C95.8594 132.774 96.3727 132.634 96.9514 132.634C97.4927 132.634 97.9407 132.732 98.2954 132.928C98.6594 133.124 98.9301 133.423 99.1074 133.824C99.2847 134.216 99.3734 134.716 99.3734 135.322V139.074C99.3734 139.261 99.3221 139.406 99.2194 139.508C99.1261 139.611 98.9907 139.662 98.8134 139.662C98.6267 139.662 98.4821 139.611 98.3794 139.508C98.2861 139.406 98.2394 139.261 98.2394 139.074V135.392C98.2394 134.758 98.1134 134.296 97.8614 134.006C97.6187 133.708 97.2267 133.558 96.6854 133.558C96.0601 133.558 95.5607 133.754 95.1874 134.146C94.8234 134.529 94.6414 135.042 94.6414 135.686V139.074C94.6414 139.466 94.4501 139.662 94.0674 139.662ZM104.474 142.21C103.98 142.21 103.494 142.15 103.018 142.028C102.552 141.916 102.127 141.734 101.744 141.482C101.632 141.417 101.558 141.338 101.52 141.244C101.492 141.151 101.488 141.058 101.506 140.964C101.525 140.88 101.567 140.801 101.632 140.726C101.698 140.661 101.772 140.619 101.856 140.6C101.95 140.582 102.043 140.596 102.136 140.642C102.547 140.894 102.939 141.067 103.312 141.16C103.686 141.254 104.054 141.3 104.418 141.3C105.081 141.3 105.58 141.123 105.916 140.768C106.262 140.414 106.434 139.9 106.434 139.228V137.646H106.574C106.434 138.188 106.136 138.617 105.678 138.934C105.23 139.252 104.703 139.41 104.096 139.41C103.471 139.41 102.93 139.27 102.472 138.99C102.015 138.701 101.66 138.3 101.408 137.786C101.166 137.273 101.044 136.68 101.044 136.008C101.044 135.504 101.114 135.047 101.254 134.636C101.394 134.216 101.595 133.862 101.856 133.572C102.127 133.274 102.449 133.045 102.822 132.886C103.205 132.718 103.63 132.634 104.096 132.634C104.712 132.634 105.244 132.793 105.692 133.11C106.14 133.418 106.43 133.838 106.56 134.37L106.42 134.538V133.236C106.42 133.05 106.467 132.91 106.56 132.816C106.663 132.714 106.803 132.662 106.98 132.662C107.167 132.662 107.307 132.714 107.4 132.816C107.494 132.91 107.54 133.05 107.54 133.236V139.074C107.54 140.11 107.279 140.89 106.756 141.412C106.243 141.944 105.482 142.21 104.474 142.21ZM104.306 138.486C104.745 138.486 105.123 138.388 105.44 138.192C105.758 137.987 106 137.698 106.168 137.324C106.346 136.951 106.434 136.512 106.434 136.008C106.434 135.252 106.243 134.655 105.86 134.216C105.478 133.768 104.96 133.544 104.306 133.544C103.877 133.544 103.504 133.647 103.186 133.852C102.869 134.048 102.622 134.333 102.444 134.706C102.276 135.07 102.192 135.504 102.192 136.008C102.192 136.764 102.384 137.366 102.766 137.814C103.149 138.262 103.662 138.486 104.306 138.486ZM110.34 140.894C110.246 141.016 110.148 141.086 110.046 141.104C109.943 141.123 109.854 141.104 109.78 141.048C109.705 140.992 109.663 140.913 109.654 140.81C109.654 140.708 109.7 140.596 109.794 140.474C109.943 140.278 110.046 140.078 110.102 139.872C110.158 139.676 110.186 139.494 110.186 139.326L110.242 139.62C109.999 139.62 109.803 139.55 109.654 139.41C109.514 139.261 109.444 139.074 109.444 138.85C109.444 138.626 109.509 138.444 109.64 138.304C109.78 138.155 109.962 138.08 110.186 138.08C110.428 138.08 110.62 138.164 110.76 138.332C110.9 138.491 110.97 138.724 110.97 139.032C110.97 139.228 110.951 139.429 110.914 139.634C110.876 139.849 110.811 140.064 110.718 140.278C110.624 140.493 110.498 140.698 110.34 140.894ZM118.758 139.69C118.338 139.69 117.914 139.639 117.484 139.536C117.064 139.434 116.672 139.256 116.308 139.004C116.215 138.939 116.15 138.864 116.112 138.78C116.075 138.687 116.061 138.598 116.07 138.514C116.089 138.421 116.126 138.342 116.182 138.276C116.248 138.211 116.322 138.174 116.406 138.164C116.5 138.146 116.602 138.164 116.714 138.22C117.078 138.444 117.428 138.603 117.764 138.696C118.11 138.78 118.45 138.822 118.786 138.822C119.318 138.822 119.72 138.724 119.99 138.528C120.261 138.332 120.396 138.066 120.396 137.73C120.396 137.469 120.308 137.264 120.13 137.114C119.953 136.956 119.673 136.834 119.29 136.75L118.016 136.47C117.428 136.349 116.99 136.139 116.7 135.84C116.42 135.542 116.28 135.154 116.28 134.678C116.28 134.258 116.388 133.899 116.602 133.6C116.826 133.292 117.139 133.054 117.54 132.886C117.942 132.718 118.408 132.634 118.94 132.634C119.351 132.634 119.738 132.69 120.102 132.802C120.476 132.905 120.812 133.073 121.11 133.306C121.204 133.372 121.264 133.451 121.292 133.544C121.33 133.628 121.334 133.717 121.306 133.81C121.288 133.894 121.246 133.969 121.18 134.034C121.115 134.09 121.036 134.123 120.942 134.132C120.849 134.142 120.751 134.114 120.648 134.048C120.368 133.862 120.084 133.726 119.794 133.642C119.505 133.549 119.22 133.502 118.94 133.502C118.418 133.502 118.021 133.605 117.75 133.81C117.48 134.016 117.344 134.286 117.344 134.622C117.344 134.884 117.428 135.098 117.596 135.266C117.764 135.434 118.026 135.556 118.38 135.63L119.654 135.896C120.261 136.027 120.714 136.237 121.012 136.526C121.32 136.806 121.474 137.189 121.474 137.674C121.474 138.29 121.227 138.78 120.732 139.144C120.238 139.508 119.58 139.69 118.758 139.69ZM123.763 139.662C123.576 139.662 123.436 139.611 123.343 139.508C123.249 139.406 123.203 139.261 123.203 139.074V130.17C123.203 129.984 123.249 129.844 123.343 129.75C123.436 129.648 123.576 129.596 123.763 129.596C123.94 129.596 124.08 129.648 124.183 129.75C124.285 129.844 124.337 129.984 124.337 130.17V134.272H124.155C124.351 133.731 124.668 133.325 125.107 133.054C125.555 132.774 126.068 132.634 126.647 132.634C127.188 132.634 127.636 132.732 127.991 132.928C128.355 133.124 128.625 133.423 128.803 133.824C128.98 134.216 129.069 134.716 129.069 135.322V139.074C129.069 139.261 129.017 139.406 128.915 139.508C128.821 139.611 128.686 139.662 128.509 139.662C128.322 139.662 128.177 139.611 128.075 139.508C127.981 139.406 127.935 139.261 127.935 139.074V135.392C127.935 134.758 127.809 134.296 127.557 134.006C127.314 133.708 126.922 133.558 126.381 133.558C125.755 133.558 125.256 133.754 124.883 134.146C124.519 134.529 124.337 135.042 124.337 135.686V139.074C124.337 139.466 124.145 139.662 123.763 139.662ZM133.988 139.69C133.325 139.69 132.751 139.546 132.266 139.256C131.78 138.967 131.402 138.561 131.132 138.038C130.87 137.506 130.74 136.881 130.74 136.162C130.74 135.621 130.814 135.136 130.964 134.706C131.113 134.268 131.332 133.894 131.622 133.586C131.911 133.278 132.252 133.045 132.644 132.886C133.045 132.718 133.493 132.634 133.988 132.634C134.65 132.634 135.224 132.779 135.71 133.068C136.195 133.358 136.568 133.768 136.83 134.3C137.1 134.823 137.236 135.444 137.236 136.162C137.236 136.704 137.161 137.189 137.012 137.618C136.862 138.048 136.643 138.421 136.354 138.738C136.064 139.046 135.719 139.284 135.318 139.452C134.926 139.611 134.482 139.69 133.988 139.69ZM133.988 138.78C134.408 138.78 134.776 138.678 135.094 138.472C135.411 138.267 135.654 137.968 135.822 137.576C135.999 137.184 136.088 136.713 136.088 136.162C136.088 135.313 135.896 134.664 135.514 134.216C135.14 133.768 134.632 133.544 133.988 133.544C133.558 133.544 133.185 133.647 132.868 133.852C132.56 134.048 132.317 134.342 132.14 134.734C131.972 135.117 131.888 135.593 131.888 136.162C131.888 137.002 132.079 137.651 132.462 138.108C132.844 138.556 133.353 138.78 133.988 138.78ZM139.499 142.182C139.312 142.182 139.172 142.131 139.079 142.028C138.986 141.935 138.939 141.795 138.939 141.608V133.236C138.939 133.05 138.986 132.91 139.079 132.816C139.172 132.714 139.308 132.662 139.485 132.662C139.672 132.662 139.812 132.714 139.905 132.816C140.008 132.91 140.059 133.05 140.059 133.236V134.566L139.905 134.37C140.054 133.838 140.348 133.418 140.787 133.11C141.235 132.793 141.767 132.634 142.383 132.634C142.99 132.634 143.517 132.779 143.965 133.068C144.422 133.348 144.772 133.754 145.015 134.286C145.267 134.809 145.393 135.434 145.393 136.162C145.393 136.881 145.267 137.506 145.015 138.038C144.772 138.561 144.427 138.967 143.979 139.256C143.531 139.546 142.999 139.69 142.383 139.69C141.767 139.69 141.24 139.536 140.801 139.228C140.362 138.911 140.064 138.491 139.905 137.968H140.073V141.608C140.073 141.795 140.022 141.935 139.919 142.028C139.816 142.131 139.676 142.182 139.499 142.182ZM142.145 138.78C142.574 138.78 142.943 138.678 143.251 138.472C143.568 138.267 143.811 137.968 143.979 137.576C144.156 137.184 144.245 136.713 144.245 136.162C144.245 135.313 144.054 134.664 143.671 134.216C143.298 133.768 142.789 133.544 142.145 133.544C141.725 133.544 141.356 133.647 141.039 133.852C140.722 134.048 140.474 134.342 140.297 134.734C140.129 135.117 140.045 135.593 140.045 136.162C140.045 137.002 140.236 137.651 140.619 138.108C141.002 138.556 141.51 138.78 142.145 138.78ZM147.661 142.182C147.474 142.182 147.334 142.131 147.241 142.028C147.148 141.935 147.101 141.795 147.101 141.608V133.236C147.101 133.05 147.148 132.91 147.241 132.816C147.334 132.714 147.47 132.662 147.647 132.662C147.834 132.662 147.974 132.714 148.067 132.816C148.17 132.91 148.221 133.05 148.221 133.236V134.566L148.067 134.37C148.216 133.838 148.51 133.418 148.949 133.11C149.397 132.793 149.929 132.634 150.545 132.634C151.152 132.634 151.679 132.779 152.127 133.068C152.584 133.348 152.934 133.754 153.177 134.286C153.429 134.809 153.555 135.434 153.555 136.162C153.555 136.881 153.429 137.506 153.177 138.038C152.934 138.561 152.589 138.967 152.141 139.256C151.693 139.546 151.161 139.69 150.545 139.69C149.929 139.69 149.402 139.536 148.963 139.228C148.524 138.911 148.226 138.491 148.067 137.968H148.235V141.608C148.235 141.795 148.184 141.935 148.081 142.028C147.978 142.131 147.838 142.182 147.661 142.182ZM150.307 138.78C150.736 138.78 151.105 138.678 151.413 138.472C151.73 138.267 151.973 137.968 152.141 137.576C152.318 137.184 152.407 136.713 152.407 136.162C152.407 135.313 152.216 134.664 151.833 134.216C151.46 133.768 150.951 133.544 150.307 133.544C149.887 133.544 149.518 133.647 149.201 133.852C148.884 134.048 148.636 134.342 148.459 134.734C148.291 135.117 148.207 135.593 148.207 136.162C148.207 137.002 148.398 137.651 148.781 138.108C149.164 138.556 149.672 138.78 150.307 138.78ZM155.823 139.634C155.637 139.634 155.497 139.583 155.403 139.48C155.31 139.368 155.263 139.214 155.263 139.018V133.292C155.263 133.096 155.31 132.947 155.403 132.844C155.497 132.742 155.637 132.69 155.823 132.69C156.001 132.69 156.141 132.742 156.243 132.844C156.346 132.947 156.397 133.096 156.397 133.292V139.018C156.397 139.214 156.346 139.368 156.243 139.48C156.15 139.583 156.01 139.634 155.823 139.634ZM155.823 131.122C155.59 131.122 155.408 131.062 155.277 130.94C155.147 130.81 155.081 130.637 155.081 130.422C155.081 130.198 155.147 130.03 155.277 129.918C155.408 129.797 155.59 129.736 155.823 129.736C156.066 129.736 156.248 129.797 156.369 129.918C156.5 130.03 156.565 130.198 156.565 130.422C156.565 130.637 156.5 130.81 156.369 130.94C156.248 131.062 156.066 131.122 155.823 131.122ZM159.077 139.662C158.89 139.662 158.75 139.611 158.657 139.508C158.564 139.406 158.517 139.261 158.517 139.074V133.236C158.517 133.05 158.564 132.91 158.657 132.816C158.75 132.714 158.886 132.662 159.063 132.662C159.24 132.662 159.376 132.714 159.469 132.816C159.572 132.91 159.623 133.05 159.623 133.236V134.44L159.469 134.272C159.665 133.731 159.982 133.325 160.421 133.054C160.869 132.774 161.382 132.634 161.961 132.634C162.502 132.634 162.95 132.732 163.305 132.928C163.669 133.124 163.94 133.423 164.117 133.824C164.294 134.216 164.383 134.716 164.383 135.322V139.074C164.383 139.261 164.332 139.406 164.229 139.508C164.136 139.611 164 139.662 163.823 139.662C163.636 139.662 163.492 139.611 163.389 139.508C163.296 139.406 163.249 139.261 163.249 139.074V135.392C163.249 134.758 163.123 134.296 162.871 134.006C162.628 133.708 162.236 133.558 161.695 133.558C161.07 133.558 160.57 133.754 160.197 134.146C159.833 134.529 159.651 135.042 159.651 135.686V139.074C159.651 139.466 159.46 139.662 159.077 139.662ZM169.484 142.21C168.99 142.21 168.504 142.15 168.028 142.028C167.562 141.916 167.137 141.734 166.754 141.482C166.642 141.417 166.568 141.338 166.53 141.244C166.502 141.151 166.498 141.058 166.516 140.964C166.535 140.88 166.577 140.801 166.642 140.726C166.708 140.661 166.782 140.619 166.866 140.6C166.96 140.582 167.053 140.596 167.146 140.642C167.557 140.894 167.949 141.067 168.322 141.16C168.696 141.254 169.064 141.3 169.428 141.3C170.091 141.3 170.59 141.123 170.926 140.768C171.272 140.414 171.444 139.9 171.444 139.228V137.646H171.584C171.444 138.188 171.146 138.617 170.688 138.934C170.24 139.252 169.713 139.41 169.106 139.41C168.481 139.41 167.94 139.27 167.482 138.99C167.025 138.701 166.67 138.3 166.418 137.786C166.176 137.273 166.054 136.68 166.054 136.008C166.054 135.504 166.124 135.047 166.264 134.636C166.404 134.216 166.605 133.862 166.866 133.572C167.137 133.274 167.459 133.045 167.832 132.886C168.215 132.718 168.64 132.634 169.106 132.634C169.722 132.634 170.254 132.793 170.702 133.11C171.15 133.418 171.44 133.838 171.57 134.37L171.43 134.538V133.236C171.43 133.05 171.477 132.91 171.57 132.816C171.673 132.714 171.813 132.662 171.99 132.662C172.177 132.662 172.317 132.714 172.41 132.816C172.504 132.91 172.55 133.05 172.55 133.236V139.074C172.55 140.11 172.289 140.89 171.766 141.412C171.253 141.944 170.492 142.21 169.484 142.21ZM169.316 138.486C169.755 138.486 170.133 138.388 170.45 138.192C170.768 137.987 171.01 137.698 171.178 137.324C171.356 136.951 171.444 136.512 171.444 136.008C171.444 135.252 171.253 134.655 170.87 134.216C170.488 133.768 169.97 133.544 169.316 133.544C168.887 133.544 168.514 133.647 168.196 133.852C167.879 134.048 167.632 134.333 167.454 134.706C167.286 135.07 167.202 135.504 167.202 136.008C167.202 136.764 167.394 137.366 167.776 137.814C168.159 138.262 168.672 138.486 169.316 138.486ZM175.349 140.894C175.256 141.016 175.158 141.086 175.055 141.104C174.953 141.123 174.864 141.104 174.789 141.048C174.715 140.992 174.673 140.913 174.663 140.81C174.663 140.708 174.71 140.596 174.803 140.474C174.953 140.278 175.055 140.078 175.111 139.872C175.167 139.676 175.195 139.494 175.195 139.326L175.251 139.62C175.009 139.62 174.813 139.55 174.663 139.41C174.523 139.261 174.453 139.074 174.453 138.85C174.453 138.626 174.519 138.444 174.649 138.304C174.789 138.155 174.971 138.08 175.195 138.08C175.438 138.08 175.629 138.164 175.769 138.332C175.909 138.491 175.979 138.724 175.979 139.032C175.979 139.228 175.961 139.429 175.923 139.634C175.886 139.849 175.821 140.064 175.727 140.278C175.634 140.493 175.508 140.698 175.349 140.894ZM183.614 139.69C183.148 139.69 182.728 139.602 182.354 139.424C181.99 139.238 181.701 138.986 181.486 138.668C181.272 138.351 181.164 137.996 181.164 137.604C181.164 137.1 181.29 136.704 181.542 136.414C181.804 136.125 182.228 135.92 182.816 135.798C183.414 135.677 184.226 135.616 185.252 135.616H185.882V136.358H185.266C184.51 136.358 183.913 136.396 183.474 136.47C183.045 136.536 182.742 136.652 182.564 136.82C182.396 136.988 182.312 137.226 182.312 137.534C182.312 137.917 182.443 138.23 182.704 138.472C182.975 138.715 183.339 138.836 183.796 138.836C184.17 138.836 184.496 138.748 184.776 138.57C185.066 138.393 185.29 138.15 185.448 137.842C185.616 137.534 185.7 137.18 185.7 136.778V135.182C185.7 134.604 185.584 134.188 185.35 133.936C185.117 133.675 184.734 133.544 184.202 133.544C183.876 133.544 183.549 133.586 183.222 133.67C182.896 133.754 182.55 133.89 182.186 134.076C182.056 134.142 181.944 134.165 181.85 134.146C181.757 134.118 181.682 134.067 181.626 133.992C181.57 133.918 181.538 133.834 181.528 133.74C181.519 133.638 181.538 133.54 181.584 133.446C181.64 133.353 181.724 133.278 181.836 133.222C182.247 133.017 182.653 132.868 183.054 132.774C183.456 132.681 183.838 132.634 184.202 132.634C184.79 132.634 185.276 132.732 185.658 132.928C186.041 133.115 186.326 133.404 186.512 133.796C186.699 134.179 186.792 134.674 186.792 135.28V139.074C186.792 139.261 186.746 139.406 186.652 139.508C186.568 139.611 186.442 139.662 186.274 139.662C186.097 139.662 185.962 139.611 185.868 139.508C185.775 139.406 185.728 139.261 185.728 139.074V137.982H185.854C185.78 138.337 185.635 138.64 185.42 138.892C185.215 139.144 184.958 139.34 184.65 139.48C184.342 139.62 183.997 139.69 183.614 139.69ZM189.456 139.662C189.269 139.662 189.129 139.611 189.036 139.508C188.943 139.406 188.896 139.261 188.896 139.074V133.236C188.896 133.05 188.943 132.91 189.036 132.816C189.129 132.714 189.265 132.662 189.442 132.662C189.619 132.662 189.755 132.714 189.848 132.816C189.951 132.91 190.002 133.05 190.002 133.236V134.44L189.848 134.272C190.044 133.731 190.361 133.325 190.8 133.054C191.248 132.774 191.761 132.634 192.34 132.634C192.881 132.634 193.329 132.732 193.684 132.928C194.048 133.124 194.319 133.423 194.496 133.824C194.673 134.216 194.762 134.716 194.762 135.322V139.074C194.762 139.261 194.711 139.406 194.608 139.508C194.515 139.611 194.379 139.662 194.202 139.662C194.015 139.662 193.871 139.611 193.768 139.508C193.675 139.406 193.628 139.261 193.628 139.074V135.392C193.628 134.758 193.502 134.296 193.25 134.006C193.007 133.708 192.615 133.558 192.074 133.558C191.449 133.558 190.949 133.754 190.576 134.146C190.212 134.529 190.03 135.042 190.03 135.686V139.074C190.03 139.466 189.839 139.662 189.456 139.662ZM199.443 139.69C198.836 139.69 198.304 139.546 197.847 139.256C197.399 138.967 197.049 138.561 196.797 138.038C196.554 137.506 196.433 136.881 196.433 136.162C196.433 135.434 196.554 134.809 196.797 134.286C197.049 133.754 197.399 133.348 197.847 133.068C198.304 132.779 198.836 132.634 199.443 132.634C200.059 132.634 200.586 132.788 201.025 133.096C201.464 133.404 201.758 133.82 201.907 134.342H201.753V130.17C201.753 129.984 201.8 129.844 201.893 129.75C201.996 129.648 202.14 129.596 202.327 129.596C202.504 129.596 202.64 129.648 202.733 129.75C202.836 129.844 202.887 129.984 202.887 130.17V139.074C202.887 139.261 202.84 139.406 202.747 139.508C202.654 139.611 202.514 139.662 202.327 139.662C202.15 139.662 202.01 139.611 201.907 139.508C201.814 139.406 201.767 139.261 201.767 139.074V137.744L201.921 137.94C201.772 138.472 201.473 138.897 201.025 139.214C200.586 139.532 200.059 139.69 199.443 139.69ZM199.681 138.78C200.101 138.78 200.47 138.678 200.787 138.472C201.104 138.267 201.347 137.968 201.515 137.576C201.692 137.184 201.781 136.713 201.781 136.162C201.781 135.313 201.59 134.664 201.207 134.216C200.834 133.768 200.325 133.544 199.681 133.544C199.252 133.544 198.878 133.647 198.561 133.852C198.253 134.048 198.01 134.342 197.833 134.734C197.665 135.117 197.581 135.593 197.581 136.162C197.581 137.002 197.772 137.651 198.155 138.108C198.538 138.556 199.046 138.78 199.681 138.78ZM212.069 139.69C211.453 139.69 210.921 139.532 210.473 139.214C210.034 138.897 209.74 138.472 209.591 137.94L209.745 137.786V139.074C209.745 139.261 209.693 139.406 209.591 139.508C209.497 139.611 209.362 139.662 209.185 139.662C208.998 139.662 208.858 139.611 208.765 139.508C208.671 139.406 208.625 139.261 208.625 139.074V130.17C208.625 129.984 208.671 129.844 208.765 129.75C208.858 129.648 208.998 129.596 209.185 129.596C209.362 129.596 209.502 129.648 209.605 129.75C209.707 129.844 209.759 129.984 209.759 130.17V134.342H209.591C209.749 133.82 210.048 133.404 210.487 133.096C210.925 132.788 211.453 132.634 212.069 132.634C212.685 132.634 213.217 132.779 213.665 133.068C214.113 133.348 214.458 133.754 214.701 134.286C214.953 134.809 215.079 135.434 215.079 136.162C215.079 136.881 214.953 137.506 214.701 138.038C214.458 138.561 214.108 138.967 213.651 139.256C213.203 139.546 212.675 139.69 212.069 139.69ZM211.831 138.78C212.26 138.78 212.629 138.678 212.937 138.472C213.254 138.267 213.497 137.968 213.665 137.576C213.842 137.184 213.931 136.713 213.931 136.162C213.931 135.313 213.739 134.664 213.357 134.216C212.983 133.768 212.475 133.544 211.831 133.544C211.411 133.544 211.042 133.647 210.725 133.852C210.407 134.048 210.16 134.342 209.983 134.734C209.815 135.117 209.731 135.593 209.731 136.162C209.731 137.002 209.922 137.651 210.305 138.108C210.687 138.556 211.196 138.78 211.831 138.78ZM217.361 139.662C217.174 139.662 217.029 139.611 216.927 139.508C216.833 139.406 216.787 139.261 216.787 139.074V133.236C216.787 133.05 216.833 132.91 216.927 132.816C217.02 132.714 217.155 132.662 217.333 132.662C217.51 132.662 217.645 132.714 217.739 132.816C217.841 132.91 217.893 133.05 217.893 133.236V134.37H217.753C217.902 133.82 218.187 133.395 218.607 133.096C219.027 132.798 219.545 132.639 220.161 132.62C220.301 132.611 220.413 132.644 220.497 132.718C220.581 132.784 220.627 132.9 220.637 133.068C220.646 133.227 220.609 133.353 220.525 133.446C220.441 133.54 220.31 133.596 220.133 133.614L219.909 133.642C219.274 133.698 218.784 133.904 218.439 134.258C218.103 134.604 217.935 135.08 217.935 135.686V139.074C217.935 139.261 217.883 139.406 217.781 139.508C217.687 139.611 217.547 139.662 217.361 139.662ZM223.878 139.69C223.411 139.69 222.991 139.602 222.618 139.424C222.254 139.238 221.965 138.986 221.75 138.668C221.535 138.351 221.428 137.996 221.428 137.604C221.428 137.1 221.554 136.704 221.806 136.414C222.067 136.125 222.492 135.92 223.08 135.798C223.677 135.677 224.489 135.616 225.516 135.616H226.146V136.358H225.53C224.774 136.358 224.177 136.396 223.738 136.47C223.309 136.536 223.005 136.652 222.828 136.82C222.66 136.988 222.576 137.226 222.576 137.534C222.576 137.917 222.707 138.23 222.968 138.472C223.239 138.715 223.603 138.836 224.06 138.836C224.433 138.836 224.76 138.748 225.04 138.57C225.329 138.393 225.553 138.15 225.712 137.842C225.88 137.534 225.964 137.18 225.964 136.778V135.182C225.964 134.604 225.847 134.188 225.614 133.936C225.381 133.675 224.998 133.544 224.466 133.544C224.139 133.544 223.813 133.586 223.486 133.67C223.159 133.754 222.814 133.89 222.45 134.076C222.319 134.142 222.207 134.165 222.114 134.146C222.021 134.118 221.946 134.067 221.89 133.992C221.834 133.918 221.801 133.834 221.792 133.74C221.783 133.638 221.801 133.54 221.848 133.446C221.904 133.353 221.988 133.278 222.1 133.222C222.511 133.017 222.917 132.868 223.318 132.774C223.719 132.681 224.102 132.634 224.466 132.634C225.054 132.634 225.539 132.732 225.922 132.928C226.305 133.115 226.589 133.404 226.776 133.796C226.963 134.179 227.056 134.674 227.056 135.28V139.074C227.056 139.261 227.009 139.406 226.916 139.508C226.832 139.611 226.706 139.662 226.538 139.662C226.361 139.662 226.225 139.611 226.132 139.508C226.039 139.406 225.992 139.261 225.992 139.074V137.982H226.118C226.043 138.337 225.899 138.64 225.684 138.892C225.479 139.144 225.222 139.34 224.914 139.48C224.606 139.62 224.261 139.69 223.878 139.69ZM229.72 139.662C229.533 139.662 229.393 139.611 229.3 139.508C229.206 139.406 229.16 139.261 229.16 139.074V133.236C229.16 133.05 229.206 132.91 229.3 132.816C229.393 132.714 229.528 132.662 229.706 132.662C229.883 132.662 230.018 132.714 230.112 132.816C230.214 132.91 230.266 133.05 230.266 133.236V134.44L230.112 134.272C230.308 133.731 230.625 133.325 231.064 133.054C231.512 132.774 232.025 132.634 232.604 132.634C233.145 132.634 233.593 132.732 233.948 132.928C234.312 133.124 234.582 133.423 234.76 133.824C234.937 134.216 235.026 134.716 235.026 135.322V139.074C235.026 139.261 234.974 139.406 234.872 139.508C234.778 139.611 234.643 139.662 234.466 139.662C234.279 139.662 234.134 139.611 234.032 139.508C233.938 139.406 233.892 139.261 233.892 139.074V135.392C233.892 134.758 233.766 134.296 233.514 134.006C233.271 133.708 232.879 133.558 232.338 133.558C231.712 133.558 231.213 133.754 230.84 134.146C230.476 134.529 230.294 135.042 230.294 135.686V139.074C230.294 139.466 230.102 139.662 229.72 139.662ZM239.707 139.69C239.1 139.69 238.568 139.546 238.111 139.256C237.663 138.967 237.313 138.561 237.061 138.038C236.818 137.506 236.697 136.881 236.697 136.162C236.697 135.434 236.818 134.809 237.061 134.286C237.313 133.754 237.663 133.348 238.111 133.068C238.568 132.779 239.1 132.634 239.707 132.634C240.323 132.634 240.85 132.788 241.289 133.096C241.727 133.404 242.021 133.82 242.171 134.342H242.017V130.17C242.017 129.984 242.063 129.844 242.157 129.75C242.259 129.648 242.404 129.596 242.591 129.596C242.768 129.596 242.903 129.648 242.997 129.75C243.099 129.844 243.151 129.984 243.151 130.17V139.074C243.151 139.261 243.104 139.406 243.011 139.508C242.917 139.611 242.777 139.662 242.591 139.662C242.413 139.662 242.273 139.611 242.171 139.508C242.077 139.406 242.031 139.261 242.031 139.074V137.744L242.185 137.94C242.035 138.472 241.737 138.897 241.289 139.214C240.85 139.532 240.323 139.69 239.707 139.69ZM239.945 138.78C240.365 138.78 240.733 138.678 241.051 138.472C241.368 138.267 241.611 137.968 241.779 137.576C241.956 137.184 242.045 136.713 242.045 136.162C242.045 135.313 241.853 134.664 241.471 134.216C241.097 133.768 240.589 133.544 239.945 133.544C239.515 133.544 239.142 133.647 238.825 133.852C238.517 134.048 238.274 134.342 238.097 134.734C237.929 135.117 237.845 135.593 237.845 136.162C237.845 137.002 238.036 137.651 238.419 138.108C238.801 138.556 239.31 138.78 239.945 138.78ZM249.448 139.662C249.262 139.662 249.122 139.611 249.028 139.508C248.935 139.406 248.888 139.261 248.888 139.074V133.236C248.888 133.05 248.935 132.91 249.028 132.816C249.122 132.714 249.257 132.662 249.434 132.662C249.612 132.662 249.747 132.714 249.84 132.816C249.943 132.91 249.994 133.05 249.994 133.236V134.44L249.84 134.272C250.036 133.731 250.354 133.325 250.792 133.054C251.24 132.774 251.754 132.634 252.332 132.634C252.874 132.634 253.322 132.732 253.676 132.928C254.04 133.124 254.311 133.423 254.488 133.824C254.666 134.216 254.754 134.716 254.754 135.322V139.074C254.754 139.261 254.703 139.406 254.6 139.508C254.507 139.611 254.372 139.662 254.194 139.662C254.008 139.662 253.863 139.611 253.76 139.508C253.667 139.406 253.62 139.261 253.62 139.074V135.392C253.62 134.758 253.494 134.296 253.242 134.006C253 133.708 252.608 133.558 252.066 133.558C251.441 133.558 250.942 133.754 250.568 134.146C250.204 134.529 250.022 135.042 250.022 135.686V139.074C250.022 139.466 249.831 139.662 249.448 139.662ZM259.911 139.69C259.193 139.69 258.572 139.55 258.049 139.27C257.536 138.981 257.135 138.575 256.845 138.052C256.565 137.53 256.425 136.904 256.425 136.176C256.425 135.467 256.565 134.851 256.845 134.328C257.125 133.796 257.508 133.381 257.993 133.082C258.488 132.784 259.057 132.634 259.701 132.634C260.159 132.634 260.569 132.714 260.933 132.872C261.297 133.022 261.605 133.241 261.857 133.53C262.119 133.82 262.315 134.17 262.445 134.58C262.585 134.991 262.655 135.453 262.655 135.966C262.655 136.116 262.613 136.228 262.529 136.302C262.445 136.368 262.324 136.4 262.165 136.4H257.293V135.658H261.899L261.675 135.84C261.675 135.336 261.601 134.912 261.451 134.566C261.302 134.212 261.083 133.941 260.793 133.754C260.513 133.568 260.159 133.474 259.729 133.474C259.253 133.474 258.847 133.586 258.511 133.81C258.185 134.025 257.937 134.328 257.769 134.72C257.601 135.103 257.517 135.551 257.517 136.064V136.148C257.517 137.007 257.723 137.66 258.133 138.108C258.553 138.556 259.146 138.78 259.911 138.78C260.229 138.78 260.541 138.738 260.849 138.654C261.167 138.57 261.475 138.43 261.773 138.234C261.904 138.15 262.021 138.113 262.123 138.122C262.235 138.122 262.324 138.155 262.389 138.22C262.455 138.276 262.497 138.351 262.515 138.444C262.543 138.528 262.534 138.622 262.487 138.724C262.45 138.827 262.371 138.916 262.249 138.99C261.941 139.214 261.577 139.387 261.157 139.508C260.737 139.63 260.322 139.69 259.911 139.69ZM266.566 139.662C266.408 139.662 266.268 139.62 266.146 139.536C266.025 139.452 265.927 139.317 265.852 139.13L263.766 133.46C263.71 133.302 263.692 133.162 263.71 133.04C263.738 132.919 263.799 132.826 263.892 132.76C263.986 132.695 264.102 132.662 264.242 132.662C264.382 132.662 264.494 132.695 264.578 132.76C264.672 132.826 264.746 132.947 264.802 133.124L266.762 138.724H266.426L268.442 133.124C268.508 132.956 268.587 132.84 268.68 132.774C268.783 132.7 268.914 132.662 269.072 132.662C269.222 132.662 269.348 132.7 269.45 132.774C269.553 132.849 269.632 132.966 269.688 133.124L271.662 138.724H271.34L273.328 133.096C273.394 132.928 273.473 132.816 273.566 132.76C273.66 132.695 273.772 132.662 273.902 132.662C274.052 132.662 274.164 132.7 274.238 132.774C274.322 132.849 274.369 132.947 274.378 133.068C274.388 133.19 274.364 133.32 274.308 133.46L272.222 139.13C272.157 139.308 272.059 139.443 271.928 139.536C271.807 139.62 271.667 139.662 271.508 139.662C271.35 139.662 271.21 139.62 271.088 139.536C270.967 139.443 270.874 139.308 270.808 139.13L268.736 133.446H269.338L267.28 139.13C267.215 139.308 267.122 139.443 267 139.536C266.879 139.62 266.734 139.662 266.566 139.662ZM114.21 159.69C113.491 159.69 112.871 159.55 112.348 159.27C111.835 158.981 111.433 158.575 111.144 158.052C110.864 157.53 110.724 156.904 110.724 156.176C110.724 155.467 110.864 154.851 111.144 154.328C111.424 153.796 111.807 153.381 112.292 153.082C112.787 152.784 113.356 152.634 114 152.634C114.457 152.634 114.868 152.714 115.232 152.872C115.596 153.022 115.904 153.241 116.156 153.53C116.417 153.82 116.613 154.17 116.744 154.58C116.884 154.991 116.954 155.453 116.954 155.966C116.954 156.116 116.912 156.228 116.828 156.302C116.744 156.368 116.623 156.4 116.464 156.4H111.592V155.658H116.198L115.974 155.84C115.974 155.336 115.899 154.912 115.75 154.566C115.601 154.212 115.381 153.941 115.092 153.754C114.812 153.568 114.457 153.474 114.028 153.474C113.552 153.474 113.146 153.586 112.81 153.81C112.483 154.025 112.236 154.328 112.068 154.72C111.9 155.103 111.816 155.551 111.816 156.064V156.148C111.816 157.007 112.021 157.66 112.432 158.108C112.852 158.556 113.445 158.78 114.21 158.78C114.527 158.78 114.84 158.738 115.148 158.654C115.465 158.57 115.773 158.43 116.072 158.234C116.203 158.15 116.319 158.113 116.422 158.122C116.534 158.122 116.623 158.155 116.688 158.22C116.753 158.276 116.795 158.351 116.814 158.444C116.842 158.528 116.833 158.622 116.786 158.724C116.749 158.827 116.669 158.916 116.548 158.99C116.24 159.214 115.876 159.387 115.456 159.508C115.036 159.63 114.621 159.69 114.21 159.69ZM118.569 159.648C118.447 159.648 118.34 159.611 118.247 159.536C118.153 159.462 118.102 159.364 118.093 159.242C118.093 159.112 118.153 158.976 118.275 158.836L120.725 155.756V156.344L118.429 153.474C118.307 153.325 118.247 153.19 118.247 153.068C118.256 152.947 118.307 152.849 118.401 152.774C118.494 152.7 118.601 152.662 118.723 152.662C118.863 152.662 118.979 152.69 119.073 152.746C119.175 152.793 119.269 152.872 119.353 152.984L121.355 155.518H120.963L122.979 152.984C123.063 152.872 123.151 152.793 123.245 152.746C123.338 152.69 123.455 152.662 123.595 152.662C123.725 152.662 123.833 152.7 123.917 152.774C124.01 152.849 124.057 152.952 124.057 153.082C124.066 153.204 124.01 153.339 123.889 153.488L121.607 156.316V155.798L124.057 158.836C124.169 158.976 124.22 159.112 124.211 159.242C124.211 159.364 124.164 159.462 124.071 159.536C123.977 159.611 123.865 159.648 123.735 159.648C123.604 159.648 123.487 159.62 123.385 159.564C123.291 159.518 123.198 159.438 123.105 159.326L120.949 156.61H121.355L119.199 159.326C119.115 159.429 119.021 159.508 118.919 159.564C118.825 159.62 118.709 159.648 118.569 159.648ZM126.456 162.182C126.269 162.182 126.129 162.131 126.036 162.028C125.943 161.935 125.896 161.795 125.896 161.608V153.236C125.896 153.05 125.943 152.91 126.036 152.816C126.129 152.714 126.265 152.662 126.442 152.662C126.629 152.662 126.769 152.714 126.862 152.816C126.965 152.91 127.016 153.05 127.016 153.236V154.566L126.862 154.37C127.011 153.838 127.305 153.418 127.744 153.11C128.192 152.793 128.724 152.634 129.34 152.634C129.947 152.634 130.474 152.779 130.922 153.068C131.379 153.348 131.729 153.754 131.972 154.286C132.224 154.809 132.35 155.434 132.35 156.162C132.35 156.881 132.224 157.506 131.972 158.038C131.729 158.561 131.384 158.967 130.936 159.256C130.488 159.546 129.956 159.69 129.34 159.69C128.724 159.69 128.197 159.536 127.758 159.228C127.319 158.911 127.021 158.491 126.862 157.968H127.03V161.608C127.03 161.795 126.979 161.935 126.876 162.028C126.773 162.131 126.633 162.182 126.456 162.182ZM129.102 158.78C129.531 158.78 129.9 158.678 130.208 158.472C130.525 158.267 130.768 157.968 130.936 157.576C131.113 157.184 131.202 156.713 131.202 156.162C131.202 155.313 131.011 154.664 130.628 154.216C130.255 153.768 129.746 153.544 129.102 153.544C128.682 153.544 128.313 153.647 127.996 153.852C127.679 154.048 127.431 154.342 127.254 154.734C127.086 155.117 127.002 155.593 127.002 156.162C127.002 157.002 127.193 157.651 127.576 158.108C127.959 158.556 128.467 158.78 129.102 158.78ZM137.124 159.69C136.406 159.69 135.785 159.55 135.262 159.27C134.749 158.981 134.348 158.575 134.058 158.052C133.778 157.53 133.638 156.904 133.638 156.176C133.638 155.467 133.778 154.851 134.058 154.328C134.338 153.796 134.721 153.381 135.206 153.082C135.701 152.784 136.27 152.634 136.914 152.634C137.372 152.634 137.782 152.714 138.146 152.872C138.51 153.022 138.818 153.241 139.07 153.53C139.332 153.82 139.528 154.17 139.658 154.58C139.798 154.991 139.868 155.453 139.868 155.966C139.868 156.116 139.826 156.228 139.742 156.302C139.658 156.368 139.537 156.4 139.378 156.4H134.506V155.658H139.112L138.888 155.84C138.888 155.336 138.814 154.912 138.664 154.566C138.515 154.212 138.296 153.941 138.006 153.754C137.726 153.568 137.372 153.474 136.942 153.474C136.466 153.474 136.06 153.586 135.724 153.81C135.398 154.025 135.15 154.328 134.982 154.72C134.814 155.103 134.73 155.551 134.73 156.064V156.148C134.73 157.007 134.936 157.66 135.346 158.108C135.766 158.556 136.359 158.78 137.124 158.78C137.442 158.78 137.754 158.738 138.062 158.654C138.38 158.57 138.688 158.43 138.986 158.234C139.117 158.15 139.234 158.113 139.336 158.122C139.448 158.122 139.537 158.155 139.602 158.22C139.668 158.276 139.71 158.351 139.728 158.444C139.756 158.528 139.747 158.622 139.7 158.724C139.663 158.827 139.584 158.916 139.462 158.99C139.154 159.214 138.79 159.387 138.37 159.508C137.95 159.63 137.535 159.69 137.124 159.69ZM142.083 159.662C141.897 159.662 141.752 159.611 141.649 159.508C141.556 159.406 141.509 159.261 141.509 159.074V153.236C141.509 153.05 141.556 152.91 141.649 152.816C141.743 152.714 141.878 152.662 142.055 152.662C142.233 152.662 142.368 152.714 142.461 152.816C142.564 152.91 142.615 153.05 142.615 153.236V154.37H142.475C142.625 153.82 142.909 153.395 143.329 153.096C143.749 152.798 144.267 152.639 144.883 152.62C145.023 152.611 145.135 152.644 145.219 152.718C145.303 152.784 145.35 152.9 145.359 153.068C145.369 153.227 145.331 153.353 145.247 153.446C145.163 153.54 145.033 153.596 144.855 153.614L144.631 153.642C143.997 153.698 143.507 153.904 143.161 154.258C142.825 154.604 142.657 155.08 142.657 155.686V159.074C142.657 159.261 142.606 159.406 142.503 159.508C142.41 159.611 142.27 159.662 142.083 159.662ZM147.087 159.634C146.9 159.634 146.76 159.583 146.667 159.48C146.574 159.368 146.527 159.214 146.527 159.018V153.292C146.527 153.096 146.574 152.947 146.667 152.844C146.76 152.742 146.9 152.69 147.087 152.69C147.264 152.69 147.404 152.742 147.507 152.844C147.61 152.947 147.661 153.096 147.661 153.292V159.018C147.661 159.214 147.61 159.368 147.507 159.48C147.414 159.583 147.274 159.634 147.087 159.634ZM147.087 151.122C146.854 151.122 146.672 151.062 146.541 150.94C146.41 150.81 146.345 150.637 146.345 150.422C146.345 150.198 146.41 150.03 146.541 149.918C146.672 149.797 146.854 149.736 147.087 149.736C147.33 149.736 147.512 149.797 147.633 149.918C147.764 150.03 147.829 150.198 147.829 150.422C147.829 150.637 147.764 150.81 147.633 150.94C147.512 151.062 147.33 151.122 147.087 151.122ZM152.847 159.69C152.128 159.69 151.507 159.55 150.985 159.27C150.471 158.981 150.07 158.575 149.781 158.052C149.501 157.53 149.361 156.904 149.361 156.176C149.361 155.467 149.501 154.851 149.781 154.328C150.061 153.796 150.443 153.381 150.929 153.082C151.423 152.784 151.993 152.634 152.637 152.634C153.094 152.634 153.505 152.714 153.869 152.872C154.233 153.022 154.541 153.241 154.793 153.53C155.054 153.82 155.25 154.17 155.381 154.58C155.521 154.991 155.591 155.453 155.591 155.966C155.591 156.116 155.549 156.228 155.465 156.302C155.381 156.368 155.259 156.4 155.101 156.4H150.229V155.658H154.835L154.611 155.84C154.611 155.336 154.536 154.912 154.387 154.566C154.237 154.212 154.018 153.941 153.729 153.754C153.449 153.568 153.094 153.474 152.665 153.474C152.189 153.474 151.783 153.586 151.447 153.81C151.12 154.025 150.873 154.328 150.705 154.72C150.537 155.103 150.453 155.551 150.453 156.064V156.148C150.453 157.007 150.658 157.66 151.069 158.108C151.489 158.556 152.081 158.78 152.847 158.78C153.164 158.78 153.477 158.738 153.785 158.654C154.102 158.57 154.41 158.43 154.709 158.234C154.839 158.15 154.956 158.113 155.059 158.122C155.171 158.122 155.259 158.155 155.325 158.22C155.39 158.276 155.432 158.351 155.451 158.444C155.479 158.528 155.469 158.622 155.423 158.724C155.385 158.827 155.306 158.916 155.185 158.99C154.877 159.214 154.513 159.387 154.093 159.508C153.673 159.63 153.257 159.69 152.847 159.69ZM157.792 159.662C157.605 159.662 157.465 159.611 157.372 159.508C157.279 159.406 157.232 159.261 157.232 159.074V153.236C157.232 153.05 157.279 152.91 157.372 152.816C157.465 152.714 157.601 152.662 157.778 152.662C157.955 152.662 158.091 152.714 158.184 152.816C158.287 152.91 158.338 153.05 158.338 153.236V154.44L158.184 154.272C158.38 153.731 158.697 153.325 159.136 153.054C159.584 152.774 160.097 152.634 160.676 152.634C161.217 152.634 161.665 152.732 162.02 152.928C162.384 153.124 162.655 153.423 162.832 153.824C163.009 154.216 163.098 154.716 163.098 155.322V159.074C163.098 159.261 163.047 159.406 162.944 159.508C162.851 159.611 162.715 159.662 162.538 159.662C162.351 159.662 162.207 159.611 162.104 159.508C162.011 159.406 161.964 159.261 161.964 159.074V155.392C161.964 154.758 161.838 154.296 161.586 154.006C161.343 153.708 160.951 153.558 160.41 153.558C159.785 153.558 159.285 153.754 158.912 154.146C158.548 154.529 158.366 155.042 158.366 155.686V159.074C158.366 159.466 158.175 159.662 157.792 159.662ZM168.073 159.69C167.392 159.69 166.804 159.541 166.309 159.242C165.814 158.944 165.432 158.528 165.161 157.996C164.9 157.455 164.769 156.83 164.769 156.12C164.769 155.579 164.844 155.094 164.993 154.664C165.142 154.235 165.362 153.871 165.651 153.572C165.94 153.264 166.286 153.031 166.687 152.872C167.098 152.714 167.56 152.634 168.073 152.634C168.409 152.634 168.759 152.686 169.123 152.788C169.487 152.891 169.818 153.068 170.117 153.32C170.21 153.386 170.271 153.465 170.299 153.558C170.327 153.652 170.327 153.745 170.299 153.838C170.271 153.922 170.224 153.997 170.159 154.062C170.094 154.118 170.01 154.151 169.907 154.16C169.814 154.17 169.716 154.137 169.613 154.062C169.37 153.876 169.123 153.745 168.871 153.67C168.619 153.596 168.376 153.558 168.143 153.558C167.779 153.558 167.462 153.619 167.191 153.74C166.92 153.852 166.692 154.016 166.505 154.23C166.318 154.445 166.174 154.711 166.071 155.028C165.978 155.346 165.931 155.714 165.931 156.134C165.931 156.946 166.122 157.59 166.505 158.066C166.888 158.533 167.434 158.766 168.143 158.766C168.376 158.766 168.614 158.729 168.857 158.654C169.109 158.58 169.361 158.449 169.613 158.262C169.716 158.188 169.814 158.155 169.907 158.164C170 158.174 170.08 158.211 170.145 158.276C170.21 158.332 170.252 158.407 170.271 158.5C170.299 158.594 170.299 158.687 170.271 158.78C170.243 158.864 170.182 158.939 170.089 159.004C169.79 159.247 169.464 159.424 169.109 159.536C168.754 159.639 168.409 159.69 168.073 159.69ZM174.599 159.69C173.88 159.69 173.259 159.55 172.737 159.27C172.223 158.981 171.822 158.575 171.533 158.052C171.253 157.53 171.113 156.904 171.113 156.176C171.113 155.467 171.253 154.851 171.533 154.328C171.813 153.796 172.195 153.381 172.681 153.082C173.175 152.784 173.745 152.634 174.389 152.634C174.846 152.634 175.257 152.714 175.621 152.872C175.985 153.022 176.293 153.241 176.545 153.53C176.806 153.82 177.002 154.17 177.133 154.58C177.273 154.991 177.343 155.453 177.343 155.966C177.343 156.116 177.301 156.228 177.217 156.302C177.133 156.368 177.011 156.4 176.853 156.4H171.981V155.658H176.587L176.363 155.84C176.363 155.336 176.288 154.912 176.139 154.566C175.989 154.212 175.77 153.941 175.481 153.754C175.201 153.568 174.846 153.474 174.417 153.474C173.941 153.474 173.535 153.586 173.199 153.81C172.872 154.025 172.625 154.328 172.457 154.72C172.289 155.103 172.205 155.551 172.205 156.064V156.148C172.205 157.007 172.41 157.66 172.821 158.108C173.241 158.556 173.833 158.78 174.599 158.78C174.916 158.78 175.229 158.738 175.537 158.654C175.854 158.57 176.162 158.43 176.461 158.234C176.591 158.15 176.708 158.113 176.811 158.122C176.923 158.122 177.011 158.155 177.077 158.22C177.142 158.276 177.184 158.351 177.203 158.444C177.231 158.528 177.221 158.622 177.175 158.724C177.137 158.827 177.058 158.916 176.937 158.99C176.629 159.214 176.265 159.387 175.845 159.508C175.425 159.63 175.009 159.69 174.599 159.69ZM181.28 159.69C180.86 159.69 180.435 159.639 180.006 159.536C179.586 159.434 179.194 159.256 178.83 159.004C178.737 158.939 178.671 158.864 178.634 158.78C178.597 158.687 178.583 158.598 178.592 158.514C178.611 158.421 178.648 158.342 178.704 158.276C178.769 158.211 178.844 158.174 178.928 158.164C179.021 158.146 179.124 158.164 179.236 158.22C179.6 158.444 179.95 158.603 180.286 158.696C180.631 158.78 180.972 158.822 181.308 158.822C181.84 158.822 182.241 158.724 182.512 158.528C182.783 158.332 182.918 158.066 182.918 157.73C182.918 157.469 182.829 157.264 182.652 157.114C182.475 156.956 182.195 156.834 181.812 156.75L180.538 156.47C179.95 156.349 179.511 156.139 179.222 155.84C178.942 155.542 178.802 155.154 178.802 154.678C178.802 154.258 178.909 153.899 179.124 153.6C179.348 153.292 179.661 153.054 180.062 152.886C180.463 152.718 180.93 152.634 181.462 152.634C181.873 152.634 182.26 152.69 182.624 152.802C182.997 152.905 183.333 153.073 183.632 153.306C183.725 153.372 183.786 153.451 183.814 153.544C183.851 153.628 183.856 153.717 183.828 153.81C183.809 153.894 183.767 153.969 183.702 154.034C183.637 154.09 183.557 154.123 183.464 154.132C183.371 154.142 183.273 154.114 183.17 154.048C182.89 153.862 182.605 153.726 182.316 153.642C182.027 153.549 181.742 153.502 181.462 153.502C180.939 153.502 180.543 153.605 180.272 153.81C180.001 154.016 179.866 154.286 179.866 154.622C179.866 154.884 179.95 155.098 180.118 155.266C180.286 155.434 180.547 155.556 180.902 155.63L182.176 155.896C182.783 156.027 183.235 156.237 183.534 156.526C183.842 156.806 183.996 157.189 183.996 157.674C183.996 158.29 183.749 158.78 183.254 159.144C182.759 159.508 182.101 159.69 181.28 159.69Z" fill="#6C7A81"/>
<defs>
<clipPath id="clip0_25707_21769">
<rect width="49" height="69" fill="white" transform="translate(128 0.999878)"/>
</clipPath>
</defs>
</svg>
