<svg width="276" height="245" viewBox="0 0 276 245" fill="none" xmlns="http://www.w3.org/2000/svg">
<path d="M213.211 151.019C213.211 191.68 180.243 224.642 139.574 224.642C98.9049 224.642 65.9363 191.68 65.9363 151.019C65.9363 110.358 98.9049 77.3955 139.574 77.3955C180.243 77.3955 213.211 110.358 213.211 151.019Z" fill="#0FC8FF" stroke="black" stroke-width="0.5"/>
<mask id="mask0_2071_9883" style="mask-type:alpha" maskUnits="userSpaceOnUse" x="0" y="0" width="276" height="225">
<path d="M275.206 121.317C275.206 134.535 209.402 176.823 203.279 187.532C190.648 209.625 166.85 224.515 139.574 224.515C116.091 224.515 95.1865 213.479 81.7659 196.311C72.0419 183.872 0.205811 115.073 0.205811 98.062C0.205811 57.5723 99.0766 0 139.574 0C180.071 0 275.206 80.827 275.206 121.317Z" fill="#D9D9D9"/>
</mask>
<g mask="url(#mask0_2071_9883)">
<path d="M226.446 79.8522C206.736 72.7537 189.548 82.6532 184.037 92.2736L198.703 97.2203H221.588C223.176 92.2083 226.446 81.5708 226.446 79.8522Z" fill="black" stroke="black" stroke-width="0.5"/>
<mask id="path-4-inside-1_2071_9883" fill="white">
<path fill-rule="evenodd" clip-rule="evenodd" d="M166.169 104.599C165.672 105.468 164.951 106.278 164.044 107.007C164.992 109.138 167.365 112.548 171.335 116.834L157.23 125.053L134.905 122.438L132.289 117.675C134.126 116.011 137.879 111.812 139.274 107.479C138.069 106.634 137.127 105.66 136.521 104.599C136.481 104.601 136.44 104.603 136.399 104.603C135.109 104.603 134.064 103.432 134.064 101.988C134.064 100.572 135.068 99.4189 136.323 99.3739C138.163 95.6007 144.192 92.8336 151.345 92.8336C158.498 92.8336 164.526 95.6007 166.367 99.3739C167.621 99.4192 168.626 100.572 168.626 101.988C168.626 103.432 167.58 104.603 166.29 104.603C166.25 104.603 166.209 104.601 166.169 104.599Z"/>
</mask>
<path fill-rule="evenodd" clip-rule="evenodd" d="M166.169 104.599C165.672 105.468 164.951 106.278 164.044 107.007C164.992 109.138 167.365 112.548 171.335 116.834L157.23 125.053L134.905 122.438L132.289 117.675C134.126 116.011 137.879 111.812 139.274 107.479C138.069 106.634 137.127 105.66 136.521 104.599C136.481 104.601 136.44 104.603 136.399 104.603C135.109 104.603 134.064 103.432 134.064 101.988C134.064 100.572 135.068 99.4189 136.323 99.3739C138.163 95.6007 144.192 92.8336 151.345 92.8336C158.498 92.8336 164.526 95.6007 166.367 99.3739C167.621 99.4192 168.626 100.572 168.626 101.988C168.626 103.432 167.58 104.603 166.29 104.603C166.25 104.603 166.209 104.601 166.169 104.599Z" fill="#F99382"/>
<path d="M166.169 104.599L166.198 104.1L165.888 104.082L165.735 104.351L166.169 104.599ZM164.044 107.007L163.731 106.618L163.431 106.859L163.587 107.21L164.044 107.007ZM171.335 116.834L171.586 117.266L172.125 116.952L171.701 116.495L171.335 116.834ZM157.23 125.053L157.171 125.55L157.337 125.569L157.481 125.485L157.23 125.053ZM134.905 122.438L134.466 122.679L134.59 122.905L134.846 122.935L134.905 122.438ZM132.289 117.675L131.953 117.304L131.661 117.57L131.851 117.916L132.289 117.675ZM139.274 107.479L139.75 107.632L139.863 107.281L139.561 107.069L139.274 107.479ZM136.521 104.599L136.955 104.351L136.802 104.082L136.492 104.1L136.521 104.599ZM136.323 99.3739L136.341 99.8736L136.641 99.8628L136.772 99.5931L136.323 99.3739ZM166.367 99.3739L165.918 99.5931L166.049 99.8628L166.349 99.8736L166.367 99.3739ZM165.735 104.351C165.275 105.156 164.599 105.92 163.731 106.618L164.358 107.397C165.303 106.637 166.07 105.78 166.603 104.847L165.735 104.351ZM163.587 107.21C164.569 109.417 166.986 112.874 170.968 117.174L171.701 116.495C167.744 112.221 165.415 108.86 164.501 106.804L163.587 107.21ZM171.083 116.402L156.978 124.621L157.481 125.485L171.586 117.266L171.083 116.402ZM157.288 124.556L134.963 121.941L134.846 122.935L157.171 125.55L157.288 124.556ZM135.343 122.197L132.727 117.434L131.851 117.916L134.466 122.679L135.343 122.197ZM132.625 118.045C134.488 116.358 138.315 112.087 139.75 107.632L138.798 107.325C137.442 111.536 133.764 115.664 131.953 117.304L132.625 118.045ZM139.561 107.069C138.401 106.256 137.517 105.334 136.955 104.351L136.087 104.847C136.738 105.986 137.736 107.011 138.987 107.888L139.561 107.069ZM136.492 104.1C136.461 104.102 136.43 104.103 136.399 104.103V105.103C136.45 105.103 136.5 105.101 136.55 105.098L136.492 104.1ZM136.399 104.103C135.437 104.103 134.564 103.21 134.564 101.988H133.564C133.564 103.653 134.782 105.103 136.399 105.103V104.103ZM134.564 101.988C134.564 100.79 135.404 99.9072 136.341 99.8736L136.305 98.8742C134.733 98.9306 133.564 100.354 133.564 101.988H134.564ZM136.772 99.5931C137.622 97.8505 139.474 96.2823 142.044 95.1461C144.604 94.014 147.83 93.3336 151.345 93.3336V92.3336C147.707 92.3336 144.342 93.0368 141.64 94.2315C138.947 95.4222 136.864 97.124 135.874 99.1547L136.772 99.5931ZM151.345 93.3336C154.86 93.3336 158.085 94.014 160.646 95.1461C163.216 96.2823 165.068 97.8505 165.918 99.5931L166.816 99.1547C165.826 97.124 163.743 95.4222 161.05 94.2315C158.348 93.0368 154.983 92.3336 151.345 92.3336V93.3336ZM166.349 99.8736C167.286 99.9074 168.126 100.79 168.126 101.988H169.126C169.126 100.354 167.956 98.9309 166.385 98.8742L166.349 99.8736ZM168.126 101.988C168.126 103.21 167.252 104.103 166.29 104.103V105.103C167.908 105.103 169.126 103.653 169.126 101.988H168.126ZM166.29 104.103C166.259 104.103 166.228 104.102 166.198 104.1L166.14 105.098C166.19 105.101 166.24 105.103 166.29 105.103V104.103Z" fill="black" mask="url(#path-4-inside-1_2071_9883)"/>
<path d="M209.43 52.9387L212.363 63.3714L211.033 66.5604L202.494 57.4321C202.364 57.9853 202.346 57.3502 203.31 50.3851C204.273 43.42 207.791 49.1853 209.43 52.9387Z" fill="#F99382" stroke="black" stroke-width="0.5"/>
<path d="M227.699 91.6778C225.599 83.8435 215.132 62.1834 190.064 38.2175C188.605 37.0697 185.829 35.945 186.394 40.6284C187.802 44.0912 191.297 51.7283 194.017 54.5748C189.498 51.3133 180.181 47.396 179.062 57.8191C176.38 57.475 171.08 58.9563 171.335 67.6345C171.454 71.7142 175.448 77.9366 180.633 74.9516C183.118 77.7887 188.553 87.352 190.443 102.927C190.407 102.972 190.409 102.993 190.45 102.988C190.448 102.968 190.445 102.948 190.443 102.927C191.251 101.917 211.244 88.8764 227.699 91.6778Z" fill="#F99382" stroke="black" stroke-width="0.5"/>
<path d="M205.675 75.0586C204.185 75.4179 200.498 76.9566 197.662 80.2369" stroke="black" stroke-width="0.5"/>
<path d="M203.238 74.0545C202.188 74.3338 199.577 75.485 197.534 77.8555" stroke="black" stroke-width="0.5"/>
<path d="M178.105 57.7621C179.778 57.6709 184.39 58.5081 189.452 62.5869" stroke="black" stroke-width="0.5"/>
<path d="M181.453 75.9325C180.601 74.8065 178.348 72.1354 176.149 70.4591" stroke="black" stroke-width="0.5"/>
<path d="M72.1326 37.7468L69.7997 48.3299L71.3106 51.4378L79.3144 41.837C79.4753 42.3819 79.4572 41.7468 78.0975 34.848C76.7377 27.9493 73.5544 33.906 72.1326 37.7468Z" fill="#F99382" stroke="black" stroke-width="0.5"/>
<path d="M56.1057 77.4649C57.755 69.5235 66.9684 47.3013 90.6278 21.9437C92.0184 20.7145 94.7255 19.4333 94.429 24.1413C93.2213 27.6787 90.1676 35.5029 87.6151 38.5C91.9402 34.9859 101.019 30.5432 102.731 40.8855C105.389 40.3889 110.764 41.5653 111.006 50.2438C111.119 54.3236 107.487 60.7639 102.14 58.0796C99.8219 61.054 94.9413 70.9118 93.9439 86.5697C93.9823 86.6123 93.9817 86.6335 93.9401 86.631C93.9413 86.6106 93.9426 86.5901 93.9439 86.5697C93.0789 85.6074 72.3746 73.7288 56.1057 77.4649Z" fill="#F99382" stroke="black" stroke-width="0.5"/>
<path d="M107.707 38.4003C110.068 39.0948 115.289 42.8966 113.956 50.8946" stroke="black"/>
<path d="M174.169 55.2843C171.808 55.9788 166.586 59.7806 167.92 67.7786" stroke="black"/>
<path d="M77.1448 59.6146C78.6522 59.8883 82.4216 61.214 85.4404 64.3271" stroke="black" stroke-width="0.5"/>
<path d="M79.5214 58.4743C80.5856 58.6932 83.2575 59.6935 85.4322 61.9435" stroke="black" stroke-width="0.5"/>
<path d="M103.683 40.7742C102.008 40.7786 97.4511 41.8777 92.6301 46.2387" stroke="black" stroke-width="0.5"/>
<path d="M101.378 59.1065C102.164 57.9336 104.261 55.1379 106.361 53.3386" stroke="black" stroke-width="0.5"/>
<path d="M166.039 97.5528C166.039 101.004 162.289 99.6357 151.456 97.1362C142.706 99.6357 136.873 101.004 136.873 97.5528C136.873 94.1017 144.465 89.221 152.289 89.221C160.113 89.221 166.039 94.1017 166.039 97.5528Z" fill="black"/>
<path d="M161.872 91.8936C161.872 94.381 159.194 93.3949 151.456 91.5933C145.206 93.3949 141.039 94.381 141.039 91.8936C141.039 89.4061 146.462 85.8884 152.051 85.8884C157.64 85.8884 161.872 89.4061 161.872 91.8936Z" fill="black"/>
<path d="M96.4565 71.7244L54.8515 70.1395C40.1861 91.1527 38.8784 123.56 50.3678 153.072C59.5594 176.681 81.2244 169.633 90.9079 163.158C86.499 203.205 101.65 224.548 109.777 230.214L193.846 216.579C204.831 195.883 203.405 174.521 201.319 166.427C210.847 154.193 224.765 155.874 232.144 153.072C239.524 150.27 249.612 142.985 251.013 129.724C251.985 106.861 235.04 86.9501 226.446 79.8523L183.945 92.3668C184.318 99.558 185.719 108.897 191.791 115.902C196.648 121.505 198.485 127.451 198.797 129.724C195.957 131.367 194.313 133.397 193.846 134.207C191.604 129.63 187.121 123.653 180.115 121.692C174.51 120.123 171.365 117.178 170.494 115.902C154.502 126.66 138.423 121.505 132.382 117.583C130.364 119.301 127.992 119.482 127.058 119.357C116.521 110.616 102.242 111.543 96.4191 113.1C100.305 90.6858 91.9105 87.6454 96.4565 71.7244Z" fill="#FFFA00" stroke="black" stroke-width="0.5"/>
<path d="M143.218 109.455C141.057 108.559 140.509 108.148 139.481 107.401L139.014 108.428C140.416 109.175 142.122 109.206 143.218 109.455Z" fill="black"/>
<path d="M160.218 108.899C162.379 108.002 162.927 107.592 163.954 106.845L164.421 107.872C163.02 108.619 161.314 108.65 160.218 108.899Z" fill="black"/>
<mask id="mask1_2071_9883" style="mask-type:alpha" maskUnits="userSpaceOnUse" x="42" y="69" width="209" height="162">
<path d="M96.4559 72.141L55.2059 70.0581C39.7895 101.302 39.9751 121.787 50.6227 152.542C58.9114 176.484 82.2893 169.206 90.5603 162.973C86.1514 203.019 101.303 224.363 109.429 230.028L193.498 216.393C204.484 195.697 203.057 174.335 200.971 166.241C210.499 154.007 224.417 155.688 231.797 152.886C239.176 150.085 249.264 142.8 250.666 129.538C251.637 106.676 234.692 86.7646 226.099 79.6667L183.597 92.1813C183.971 99.3725 185.372 108.712 191.443 115.716C196.301 121.32 198.138 127.266 198.449 129.538C195.61 131.182 191.911 140.068 191.443 140.878C189.202 136.302 186.773 123.468 179.767 121.507C174.163 119.938 171.018 116.993 170.146 115.716C154.154 126.475 138.075 121.32 132.035 117.397C130.017 119.116 127.644 119.296 126.71 119.172C116.173 110.43 101.894 111.358 96.0715 112.914C99.9574 90.5003 91.2914 88.2045 96.4559 72.141Z" fill="#FCF700" stroke="black" stroke-width="0.5"/>
</mask>
<g mask="url(#mask1_2071_9883)">
<path d="M95.2061 142.544C92.5394 148.876 91.3172 159.069 91.0394 163.373L88.5394 164.623C91.2061 151.626 93.4005 144.766 95.2061 142.544Z" fill="black"/>
<path d="M171.858 146.458C169.635 147.201 169.785 149.685 170.137 150.834C170.137 156.669 177.151 152.956 176.622 156.536C176.092 160.116 178.474 161.177 182.312 159.984C186.149 158.79 182.444 156.271 186.017 155.475C188.875 154.839 189.149 152.823 188.928 151.895C189.017 150.702 188.743 148.129 186.943 147.386C184.694 146.458 183.9 145 183.9 144.071C183.768 141.021 182.841 140.093 179.798 140.093C176.754 140.093 175.695 141.419 175.563 143.276C175.431 145.132 174.637 145.53 171.858 146.458Z" fill="#FF12A0" stroke="black" stroke-width="0.5"/>
<path d="M209.035 109.285C206.812 110.027 206.962 112.511 207.315 113.661C207.315 119.495 214.328 115.782 213.799 119.363C213.27 122.943 215.652 124.004 219.489 122.81C223.327 121.617 219.622 119.097 223.195 118.302C226.053 117.665 226.326 115.65 226.106 114.721C226.194 113.528 225.921 110.956 224.121 110.213C221.871 109.285 221.077 107.826 221.077 106.898C220.945 103.848 220.019 102.92 216.975 102.92C213.931 102.92 212.873 104.246 212.741 106.102C212.608 107.959 211.814 108.356 209.035 109.285Z" fill="#FF12A0" stroke="black" stroke-width="0.5"/>
<path d="M87.6085 176.802C85.4362 175.922 83.9355 177.907 83.4567 179.01C79.6642 183.445 87.4081 185.18 84.6786 187.557C81.9491 189.934 83.0699 192.288 86.7624 193.875C90.4548 195.461 89.2763 191.139 92.509 192.855C95.0952 194.229 96.6132 192.875 97.0489 192.026C97.8917 191.176 99.356 189.043 98.4708 187.31C97.3644 185.142 97.7091 183.518 98.3124 182.812C100.194 180.408 100.094 179.101 97.7803 177.123C95.4671 175.146 93.8006 175.466 92.4933 176.791C91.186 178.116 90.324 177.902 87.6085 176.802Z" fill="#FF12A0" stroke="black" stroke-width="0.5"/>
<path d="M162.37 211.93C160.198 211.05 158.697 213.035 158.219 214.138C154.426 218.572 162.17 220.308 159.441 222.685C156.711 225.062 157.832 227.416 161.524 229.002C165.217 230.589 164.038 226.267 167.271 227.983C169.857 229.357 171.375 228.003 171.811 227.154C172.654 226.304 174.118 224.171 173.233 222.437C172.126 220.27 172.471 218.646 173.074 217.94C174.956 215.536 174.856 214.229 172.542 212.251C170.229 210.274 168.563 210.594 167.255 211.919C165.948 213.244 165.086 213.03 162.37 211.93Z" fill="#FF12A0" stroke="black" stroke-width="0.5"/>
<path d="M40.1906 119.845C38.0187 118.965 36.5184 120.951 36.0398 122.054C32.2484 126.489 39.9905 128.225 37.2618 130.603C34.533 132.98 35.6537 135.335 39.3453 136.922C43.0369 138.509 41.8585 134.185 45.0905 135.903C47.6761 137.277 49.1937 135.922 49.6293 135.073C50.4718 134.223 51.9357 132.09 51.0507 130.356C49.9444 128.188 50.2889 126.563 50.8921 125.858C52.7734 123.453 52.6727 122.145 50.36 120.167C48.0472 118.189 46.3811 118.509 45.0742 119.834C43.7672 121.16 42.9054 120.946 40.1906 119.845Z" fill="#FF12A0" stroke="black" stroke-width="0.5"/>
<path d="M199.548 171.022C197.375 170.142 195.875 172.127 195.396 173.23C191.603 177.665 199.347 179.4 196.618 181.777C193.888 184.154 195.009 186.508 198.701 188.095C202.394 189.681 201.215 185.359 204.448 187.075C207.034 188.449 208.552 187.095 208.988 186.246C209.831 185.396 211.295 183.263 210.41 181.53C209.303 179.362 209.648 177.738 210.251 177.032C212.133 174.628 212.033 173.321 209.719 171.343C207.406 169.366 205.74 169.686 204.432 171.011C203.125 172.336 202.263 172.122 199.548 171.022Z" fill="#FF12A0" stroke="black" stroke-width="0.5"/>
<path d="M80.9917 79.9239C80.4324 79.2841 79.6221 79.6816 79.2868 79.9604C77.3344 80.7762 79.5575 82.6031 78.2854 82.9267C77.0133 83.2502 76.9914 84.1954 77.9273 85.3122C78.8633 86.429 79.1883 84.8373 79.9542 85.9212C80.5668 86.7884 81.2796 86.598 81.5593 86.3944C81.971 86.2571 82.7936 85.8059 82.7905 85.1C82.7866 84.2177 83.1636 83.7482 83.4743 83.6184C84.4764 83.1477 84.6575 82.708 84.2319 81.6899C83.8063 80.6718 83.2145 80.5031 82.5748 80.7184C81.9351 80.9337 81.6909 80.7237 80.9917 79.9239Z" fill="#FF12A0" stroke="black" stroke-width="0.5"/>
<path d="M52.3145 74.7805L94.3475 76.9996" stroke="black" stroke-width="0.5"/>
<path d="M110.087 137.737C107.813 137.169 106.604 139.344 106.283 140.503C103.147 145.423 111.057 146.061 108.686 148.796C106.314 151.53 107.753 153.705 111.63 154.761C115.508 155.817 113.738 151.701 117.179 152.95C119.931 153.95 121.245 152.397 121.558 151.496C122.274 150.537 123.427 148.221 122.309 146.628C120.911 144.636 121.025 142.979 121.524 142.196C123.052 139.553 122.77 138.273 120.204 136.637C117.637 135.001 116.032 135.551 114.922 137.045C113.812 138.539 112.929 138.448 110.087 137.737Z" fill="#FF12A0" stroke="black" stroke-width="0.5"/>
<path d="M69.6317 99.0131C67.4085 99.7557 67.5585 102.24 67.9114 103.389C67.9114 109.224 74.9249 105.511 74.3956 109.091C73.8663 112.671 76.2482 113.732 80.0858 112.539C83.9234 111.345 80.2181 108.826 83.7911 108.03C86.6494 107.394 86.9229 105.378 86.7023 104.45C86.7906 103.256 86.5171 100.684 84.7174 99.9413C82.4678 99.0131 81.6738 97.5545 81.6738 96.6262C81.5414 93.5764 80.6151 92.6481 77.5715 92.6481C74.5279 92.6481 73.4693 93.9742 73.337 95.8306C73.2046 97.6871 72.4106 98.0849 69.6317 99.0131Z" fill="#FF12A0" stroke="black" stroke-width="0.5"/>
<path d="M118.086 200.574C116.732 200.571 116.355 201.959 116.336 202.653C115.259 205.849 119.786 205.109 118.835 206.973C117.884 208.836 118.993 209.856 121.315 209.911C123.636 209.965 122.072 207.902 124.176 208.125C125.859 208.304 126.381 207.251 126.431 206.702C126.7 206.064 127.025 204.605 126.176 203.866C125.116 202.943 124.95 201.998 125.122 201.489C125.612 199.795 125.276 199.115 123.609 198.554C121.943 197.992 121.118 198.523 120.703 199.515C120.288 200.507 119.779 200.579 118.086 200.574Z" fill="#FF12A0" stroke="black" stroke-width="0.5"/>
<path d="M107.996 109.566C106.641 109.562 106.265 110.95 106.246 111.645C105.169 114.84 109.695 114.101 108.745 115.964C107.794 117.827 108.903 118.848 111.224 118.902C113.546 118.957 111.982 116.893 114.086 117.117C115.769 117.296 116.291 116.242 116.341 115.693C116.61 115.056 116.935 113.597 116.086 112.858C115.026 111.935 114.86 110.989 115.031 110.481C115.522 108.786 115.186 108.107 113.519 107.545C111.852 106.984 111.028 107.515 110.613 108.507C110.198 109.499 109.689 109.57 107.996 109.566Z" fill="#FF16D0" stroke="black" stroke-width="0.5"/>
<path d="M104.633 222.754C103.279 222.751 102.902 224.139 102.883 224.833C101.806 228.028 106.333 227.289 105.382 229.152C104.431 231.015 105.54 232.036 107.862 232.09C110.184 232.145 108.62 230.081 110.723 230.305C112.406 230.484 112.928 229.431 112.978 228.882C113.247 228.244 113.572 226.785 112.724 226.046C111.663 225.123 111.497 224.177 111.669 223.669C112.159 221.974 111.823 221.295 110.156 220.733C108.49 220.172 107.665 220.703 107.25 221.695C106.835 222.687 106.326 222.759 104.633 222.754Z" fill="#FF16D0" stroke="black" stroke-width="0.5"/>
<path d="M145.547 131.603C144.193 131.599 143.816 132.987 143.797 133.682C142.72 136.877 147.246 136.138 146.296 138.001C145.345 139.864 146.454 140.885 148.775 140.939C151.097 140.994 149.533 138.93 151.637 139.154C153.32 139.333 153.842 138.279 153.892 137.73C154.161 137.093 154.486 135.634 153.637 134.895C152.577 133.971 152.411 133.026 152.583 132.518C153.073 130.823 152.737 130.144 151.07 129.582C149.403 129.021 148.579 129.551 148.164 130.544C147.749 131.536 147.24 131.607 145.547 131.603Z" fill="#FF16D0" stroke="black" stroke-width="0.5"/>
<path d="M206.344 141.389C204.989 141.386 204.613 142.774 204.594 143.468C203.517 146.664 208.043 145.925 207.092 147.788C206.142 149.651 207.25 150.671 209.572 150.726C211.894 150.78 210.33 148.717 212.434 148.94C214.116 149.119 214.638 148.066 214.689 147.517C214.957 146.88 215.283 145.42 214.434 144.681C213.373 143.758 213.208 142.813 213.379 142.304C213.87 140.61 213.534 139.93 211.867 139.369C210.2 138.807 209.376 139.338 208.96 140.33C208.545 141.323 208.037 141.394 206.344 141.389Z" fill="#FF12A0" stroke="black" stroke-width="0.5"/>
<path d="M229.803 85.2806C228.449 85.277 228.072 86.6651 228.053 87.3596C226.976 90.5548 231.503 89.8157 230.552 91.6787C229.601 93.5418 230.71 94.5623 233.032 94.6168C235.354 94.6714 233.789 92.6079 235.893 92.8315C237.576 93.0104 238.098 91.957 238.148 91.408C238.417 90.7707 238.742 89.3114 237.893 88.5726C236.833 87.6492 236.667 86.7038 236.839 86.1955C237.329 84.5008 236.993 83.8216 235.326 83.2599C233.66 82.6983 232.835 83.2292 232.42 84.2214C232.005 85.2137 231.496 85.285 229.803 85.2806Z" fill="#FF12A0" stroke="black" stroke-width="0.5"/>
<path d="M173.57 193.056C172.216 193.053 171.839 194.441 171.82 195.135C170.743 198.331 175.27 197.591 174.319 199.454C173.368 201.317 174.477 202.338 176.799 202.393C179.12 202.447 177.556 200.384 179.66 200.607C181.343 200.786 181.865 199.733 181.915 199.184C182.184 198.546 182.509 197.087 181.66 196.348C180.6 195.425 180.434 194.48 180.606 193.971C181.096 192.277 180.76 191.597 179.093 191.036C177.427 190.474 176.602 191.005 176.187 191.997C175.772 192.989 175.263 193.061 173.57 193.056Z" fill="#FF12A0" stroke="black" stroke-width="0.5"/>
<path d="M76.4235 130.672C75.069 130.669 74.6925 132.057 74.6736 132.751C73.5966 135.946 78.1229 135.207 77.1721 137.07C76.2214 138.933 77.33 139.954 79.6519 140.008C81.9739 140.063 80.4098 137.999 82.5134 138.223C84.1962 138.402 84.7181 137.349 84.7686 136.799C85.0372 136.162 85.3624 134.703 84.5138 133.964C83.4532 133.041 83.2876 132.095 83.459 131.587C83.9495 129.892 83.6136 129.213 81.9467 128.651C80.2799 128.09 79.4554 128.621 79.0402 129.613C78.625 130.605 78.1168 130.677 76.4235 130.672Z" fill="#FF16D0" stroke="black" stroke-width="0.5"/>
<path d="M51.3437 85.5668C49.9891 85.5633 49.6127 86.9514 49.5938 87.6458C48.5168 90.8411 53.0431 90.102 52.0923 91.965C51.1415 93.8281 52.2502 94.8486 54.5721 94.9031C56.894 94.9577 55.33 92.8942 57.4335 93.1178C59.1164 93.2966 59.6382 92.2433 59.6888 91.6942C59.9574 91.0569 60.2825 89.5977 59.434 88.8589C58.3733 87.9354 58.2078 86.9901 58.3791 86.4818C58.8697 84.7871 58.5337 84.1078 56.8669 83.5462C55.2001 82.9846 54.3755 83.5154 53.9604 84.5077C53.5452 85.4999 53.0369 85.5713 51.3437 85.5668Z" fill="#FF12A0" stroke="black" stroke-width="0.5"/>
<path d="M131.313 180.032C129.28 182.703 131.466 185.544 132.814 186.63C137.532 193.586 142.837 183.526 145.106 188.219C147.374 192.912 151.053 192.263 154.634 187.758C158.215 183.252 151.789 183.225 155.378 179.407C158.249 176.352 156.943 173.73 155.931 172.8C155.071 171.307 152.666 168.46 149.934 169.02C146.519 169.721 144.398 168.62 143.648 167.514C141.025 163.984 139.177 163.622 135.571 166.067C131.966 168.512 131.784 170.943 133.129 173.262C134.473 175.581 133.854 176.693 131.313 180.032Z" fill="#FF12A0" stroke="black" stroke-width="0.5"/>
<path d="M49.7619 166.483C47.7288 169.155 49.9153 171.995 51.2626 173.082C55.9808 180.037 61.2866 169.977 63.5548 174.67C65.823 179.363 69.5025 178.714 73.0834 174.209C76.6644 169.703 70.2377 169.677 73.8269 165.858C76.6982 162.803 75.3922 160.181 74.3804 159.252C73.5198 157.758 71.1155 154.911 68.3831 155.472C64.9676 156.172 62.8475 155.071 62.0969 153.965C59.4738 150.436 57.6259 150.073 54.0204 152.518C50.415 154.963 50.2332 157.394 51.5777 159.713C52.9221 162.033 52.3032 163.145 49.7619 166.483Z" fill="#FF12A0" stroke="black" stroke-width="0.5"/>
<path d="M228.923 140.52C226.89 143.191 229.076 146.032 230.424 147.118C235.142 154.073 240.447 144.013 242.716 148.706C244.984 153.399 248.663 152.751 252.244 148.245C255.825 143.74 249.399 143.713 252.988 139.894C255.859 136.84 254.553 134.217 253.541 133.288C252.681 131.795 250.276 128.948 247.544 129.508C244.128 130.209 242.008 129.108 241.258 128.001C238.635 124.472 236.787 124.11 233.181 126.555C229.576 128.999 229.394 131.431 230.739 133.75C232.083 136.069 231.464 137.181 228.923 140.52Z" fill="#FF12A0" stroke="black" stroke-width="0.5"/>
<path d="M185.206 97.5528C197.706 94.2201 215.206 90.4708 229.373 82.9722" stroke="black" stroke-width="0.5"/>
<path d="M96.456 112.966C86.8727 115.466 77.706 122.687 74.3727 126.297C82.065 117.966 91.8727 112.55 96.8727 111.3L96.456 112.966Z" fill="black"/>
</g>
<path d="M103.238 112.163C97.8512 112.194 84.5371 115.095 74.374 126.452" stroke="black" stroke-width="0.5"/>
<path d="M193.752 134.022C195.216 131.531 199.656 127.914 216.171 124.029" stroke="black" stroke-width="0.5"/>
<path d="M211.039 90.4708C219.373 97.5528 227.289 107.551 231.583 118.423" stroke="black" stroke-width="0.5"/>
<path d="M69.3734 75.8903C63.9569 104.218 61.11 113.493 71.9456 151.671" stroke="black" stroke-width="0.5"/>
<path d="M90.9072 163.342C91.3431 158.859 92.7754 148.437 95.0173 142.609" stroke="black" stroke-width="0.5"/>
</g>
<ellipse cx="4.48484" cy="4.48418" rx="4.48484" ry="4.48418" transform="matrix(0.937782 0.347225 -0.347342 0.937738 145.821 43.3966)" fill="#0FC8FF"/>
<path d="M149.305 44.7587C147.719 44.459 146.11 45.0457 145.08 46.2404C146.711 48.1639 147.596 48.7079 148.436 49.1785C148.423 48.2039 148.441 47.1687 149.305 44.7587Z" fill="#FFFA00"/>
<path d="M152.703 47.6814C150.158 48.1446 149.358 48.6693 148.47 49.1973C149.359 49.6942 150.212 50.1378 151.863 52.0824C152.204 51.6883 152.484 51.2318 152.676 50.7154C153.052 49.6992 153.035 48.632 152.703 47.6814Z" fill="#FFFA00"/>
<path d="M144.243 50.635C144.668 51.8543 145.613 52.882 146.916 53.3643C147.153 53.4521 147.393 53.5132 147.634 53.5591C148.482 51.1878 148.451 50.2212 148.436 49.2174C147.617 49.7031 146.694 50.1907 144.243 50.635Z" fill="#FFFA00"/>
<ellipse cx="4.00497" cy="4.00439" rx="4.00497" ry="4.00439" transform="matrix(0.937782 0.347225 -0.347342 0.937738 34.6545 59.2269)" fill="#FFFA00"/>
<ellipse cx="1.61161" cy="1.611" rx="1.61161" ry="1.611" transform="matrix(0.937782 0.347225 -0.347342 0.937738 203.826 7.0592)" fill="#0FC8FF"/>
<ellipse cx="1.61161" cy="1.611" rx="1.61161" ry="1.611" transform="matrix(0.937782 0.347225 -0.347342 0.937738 148.825 240.859)" fill="#0FC8FF"/>
<path d="M244.758 179.728L240.296 170.04" stroke="#FFFA00" stroke-width="2" stroke-linecap="round"/>
<path d="M247.348 172.603L237.706 177.164" stroke="#FFFA00" stroke-width="2" stroke-linecap="round"/>
<path d="M34.354 170.218L31.3698 163.739" stroke="#FF12A0" stroke-width="2" stroke-linecap="round"/>
<path d="M36.0864 165.453L29.6376 168.504" stroke="#FF12A0" stroke-width="2" stroke-linecap="round"/>
<path d="M197.128 236.896C196.57 238.404 194.895 239.173 193.387 238.615C191.88 238.057 191.11 236.382 191.668 234.875C192.227 233.368 193.901 232.598 195.409 233.156C196.917 233.715 197.687 235.389 197.128 236.896Z" stroke="#FF16D0" stroke-width="2"/>
<path d="M51.8726 110.05C54.0948 109.202 53.354 107.399 52.7059 106.604C52.4281 105.897 52.3726 104.43 54.3726 104.218" stroke="black" stroke-width="0.5" stroke-linecap="round"/>
<path d="M144.373 157.541C146.595 156.693 145.854 154.89 145.206 154.095C144.928 153.388 144.873 151.921 146.873 151.709" stroke="black" stroke-width="0.5" stroke-linecap="round"/>
<path d="M220.206 139.211C222.428 138.363 221.687 136.56 221.039 135.765C220.761 135.058 220.706 133.591 222.706 133.379" stroke="black" stroke-width="0.5" stroke-linecap="round"/>
<path d="M106.039 195.867C108.261 195.019 107.521 193.216 106.873 192.421C106.595 191.714 106.539 190.247 108.539 190.035" stroke="black" stroke-width="0.5" stroke-linecap="round"/>
<path d="M63.9574 140.747C63.7033 138.383 61.7711 138.639 60.8367 139.063C60.0823 139.151 58.6494 138.831 58.9539 136.844" stroke="black" stroke-width="0.5" stroke-linecap="round"/>
<path d="M191.68 198.106C191.426 195.742 189.493 195.998 188.559 196.422C187.805 196.51 186.372 196.19 186.676 194.203" stroke="black" stroke-width="0.5" stroke-linecap="round"/>
<path d="M162.513 202.271C162.259 199.907 160.327 200.164 159.392 200.588C158.638 200.676 157.205 200.356 157.51 198.369" stroke="black" stroke-width="0.5" stroke-linecap="round"/>
<path d="M90.8464 92.2926C90.5922 89.9286 88.66 90.185 87.7257 90.6088C86.9712 90.6971 85.5383 90.3769 85.8429 88.3898" stroke="black" stroke-width="0.5" stroke-linecap="round"/>
<path d="M201.68 103.124C201.426 100.76 199.493 101.016 198.559 101.44C197.805 101.528 196.372 101.208 196.676 99.2211" stroke="black" stroke-width="0.5" stroke-linecap="round"/>
<path d="M97.4998 130.19C99.4308 131.578 100.529 129.968 100.836 128.989C101.274 128.368 102.468 127.515 103.746 129.067" stroke="black" stroke-width="0.5" stroke-linecap="round"/>
<path d="M119.373 218.239C121.304 219.627 122.402 218.017 122.709 217.039C123.147 216.418 124.341 215.564 125.618 217.117" stroke="black" stroke-width="0.5" stroke-linecap="round"/>
<path d="M80.0909 149.604C78.8145 151.611 80.4851 152.615 81.4799 152.867C82.1249 153.268 83.0452 154.412 81.5673 155.775" stroke="black" stroke-width="0.5" stroke-linecap="round"/>
<path d="M138.878 202.534C137.602 204.54 139.272 205.545 140.267 205.796C140.912 206.197 141.833 207.341 140.355 208.705" stroke="black" stroke-width="0.5" stroke-linecap="round"/>
<path d="M227.22 91.4623C224.907 90.9142 224.505 92.8209 224.593 93.8427C224.425 94.5833 223.646 95.8271 221.873 94.878" stroke="black" stroke-width="0.5" stroke-linecap="round"/>
<path d="M115.545 163.374C114.269 165.381 115.939 166.385 116.934 166.637C117.579 167.038 118.499 168.182 117.021 169.546" stroke="black" stroke-width="0.5" stroke-linecap="round"/>
<path d="M177.687 173.991C175.654 172.756 174.684 174.447 174.453 175.446C174.065 176.099 172.94 177.042 171.546 175.593" stroke="black" stroke-width="0.5" stroke-linecap="round"/>
<path d="M173.045 126.715C171.769 128.722 173.439 129.726 174.434 129.977C175.079 130.378 175.999 131.522 174.521 132.886" stroke="black" stroke-width="0.5" stroke-linecap="round"/>
<path d="M241.378 115.884C240.102 117.89 241.772 118.895 242.767 119.146C243.412 119.547 244.333 120.691 242.855 122.055" stroke="black" stroke-width="0.5" stroke-linecap="round"/>
<ellipse cx="145.623" cy="103.801" rx="1.25" ry="1.24938" fill="black"/>
<ellipse cx="156.456" cy="103.801" rx="1.25" ry="1.24938" fill="black"/>
<path d="M154.372 107.136C154.372 107.366 152.88 107.552 151.039 107.552C149.198 107.552 147.706 107.366 147.706 107.136C147.706 106.906 149.198 107.134 151.039 107.134C152.88 107.134 154.372 106.906 154.372 107.136Z" fill="black"/>
<path d="M76.1303 38.6327L64.1448 29.8767C63.5246 29.4236 63.3931 28.7398 63.666 28.3663C63.9389 27.9929 64.6305 27.9104 65.2507 28.3634L77.2362 37.1195L76.1303 38.6327Z" fill="#FFFA00" stroke="black" stroke-width="0.5"/>
<path d="M104.173 56.0297L116.093 64.8737C116.71 65.3312 116.837 66.016 116.561 66.3875C116.285 66.7589 115.593 66.8363 114.976 66.3787L103.056 57.5347L104.173 56.0297Z" fill="#FFFA00" stroke="black" stroke-width="0.5"/>
<mask id="mask2_2071_9883" style="mask-type:luminance" maskUnits="userSpaceOnUse" x="63" y="27" width="8" height="7">
<path d="M69.0102 33.4309L63.8498 29.6609C63.4833 29.3931 63.3984 28.8335 63.7141 28.4015C64.0298 27.9695 64.5889 27.8803 64.9554 28.148L70.1158 31.918L69.0102 33.4309Z" fill="white" stroke="white" stroke-width="0.5"/>
</mask>
<g mask="url(#mask2_2071_9883)">
<path d="M67.2659 29.5665L69.2875 31.0434L66.5479 31.4557L67.2659 29.5665Z" fill="#F59D1D" stroke="black" stroke-width="0.5"/>
</g>
<path d="M64.1478 13.4852C69.6332 17.4926 70.8308 25.1873 66.8226 30.6717C62.8144 36.1561 55.1183 37.3534 49.6328 33.346C44.1473 29.3385 42.9498 21.6439 46.9579 16.1595C50.9661 10.6751 58.6623 9.47772 64.1478 13.4852Z" fill="#FF16D0" stroke="black" stroke-width="0.5"/>
<mask id="mask3_2071_9883" style="mask-type:luminance" maskUnits="userSpaceOnUse" x="44" y="10" width="26" height="26">
<path d="M64.1478 13.4849C69.6332 17.4923 70.8308 25.187 66.8226 30.6714C62.8144 36.1558 55.1183 37.3531 49.6328 33.3457C44.1473 29.3382 42.9498 21.6436 46.9579 16.1592C50.9661 10.6748 58.6623 9.47742 64.1478 13.4849Z" fill="white" stroke="white" stroke-width="0.5"/>
</mask>
<g mask="url(#mask3_2071_9883)">
<mask id="path-95-inside-2_2071_9883" fill="white">
<path d="M75.5053 17.5868C75.5053 17.5868 75.6244 17.897 75.8229 18.4814C75.9098 18.7801 76.0642 19.1177 76.1345 19.5838C76.1784 19.8121 76.2309 20.06 76.2761 20.3283C76.3178 20.5948 76.3867 20.8898 76.3977 21.185C76.4212 21.4839 76.4365 21.801 76.4565 22.1367C76.4649 22.3052 76.4739 22.4776 76.4829 22.6538C76.4738 22.8291 76.4645 23.0079 76.455 23.1907C76.433 23.5605 76.4097 23.9453 76.3857 24.3445C76.3176 24.7399 76.2469 25.1495 76.1741 25.5727C76.1307 25.7837 76.1101 26.0079 76.0425 26.2195C75.9798 26.4339 75.9163 26.6517 75.8519 26.8723C75.7215 27.3155 75.5942 27.7785 75.3961 28.2264C75.3003 28.453 75.2034 28.6823 75.1054 28.9146C75.0088 29.1488 74.9073 29.3848 74.7778 29.6086C74.5292 30.0618 74.2904 30.5424 73.9929 30.9981C72.8361 32.8457 71.1615 34.6294 69.0244 36.0268C68.7534 36.1937 68.4786 36.3609 68.1979 36.5222C67.9152 36.6789 67.6436 36.8637 67.3403 36.9898C67.0419 37.1268 66.7421 37.2648 66.4403 37.4033L65.9842 37.6097C65.8313 37.6775 65.6705 37.725 65.5117 37.7799C65.1919 37.8838 64.8703 37.9879 64.547 38.0928C64.3847 38.1424 64.2241 38.2014 64.0587 38.2425L63.558 38.3531C63.2228 38.425 62.8859 38.4973 62.5477 38.5702L62.2933 38.6235L62.2615 38.6303C62.368 38.6176 62.0803 38.6555 62.0998 38.6523L62.0439 38.6578L61.9322 38.6691L61.4842 38.714C58.5176 39.031 55.3727 38.3099 52.7556 36.6414C50.1223 35.0013 48.0815 32.3683 47.1073 29.3943C46.9973 29.0194 46.8755 28.6472 46.784 28.2689L46.5655 27.1229L46.5523 27.0513L46.5458 27.0153C46.537 26.9499 46.5563 27.1115 46.5244 26.8592L46.5144 26.7395L46.4942 26.5C46.4818 26.3329 46.4656 26.1974 46.4561 26.0044C46.4523 25.7714 46.45 25.538 46.4544 25.3051L46.4623 24.9562C46.4662 24.8408 46.4828 24.7456 46.4931 24.6396C46.6608 22.9845 47.2052 21.3755 48.1083 20.0239C49.0006 18.6679 50.2039 17.5411 51.5829 16.7755C51.9352 16.5983 52.2733 16.3969 52.6423 16.2646L53.1856 16.0509C53.3679 15.9847 53.5566 15.9384 53.7413 15.8833C53.9277 15.8334 54.1108 15.7729 54.2987 15.7353L54.8632 15.6362L55.1444 15.5895L55.2143 15.5782C55.4299 15.5496 55.2903 15.5693 55.3458 15.5622L55.3739 15.5606L55.4872 15.554L55.7133 15.5405L55.8263 15.5337C55.8609 15.5312 55.8998 15.5288 55.9657 15.5294C56.198 15.5282 56.4302 15.532 56.6599 15.5406C56.8835 15.553 57.0702 15.5859 57.2752 15.6108C57.4764 15.6318 57.6726 15.6823 57.8685 15.7271C58.0649 15.7707 58.2588 15.8194 58.4462 15.8881C59.2063 16.1285 59.9138 16.4917 60.5318 16.9529C61.1485 17.414 61.6941 17.9522 62.1279 18.5606C62.56 19.1693 62.8959 19.8283 63.128 20.5094C63.2251 20.855 63.3359 21.1946 63.3803 21.5439L63.4211 21.8031L63.4408 21.9322C63.433 21.8707 63.4573 22.0527 63.4548 22.0427L63.4558 22.0681L63.4581 22.1189L63.4672 22.321L63.4716 22.4218L63.4718 22.578C63.4727 23.0328 63.4254 23.3885 63.3453 23.7486C63.2651 24.1083 63.1508 24.4563 63.0006 24.782C62.414 26.0972 61.3181 27.0649 60.1153 27.5178C59.8165 27.6367 59.5081 27.7164 59.2034 27.774L58.974 27.8097L58.8602 27.8265L58.7442 27.8416L58.7005 27.8432C58.578 27.8462 58.4983 27.8555 58.2728 27.8495C58.1787 27.8464 58.0772 27.8448 57.9915 27.8356L57.7476 27.8003C57.5856 27.779 57.4299 27.7289 57.2748 27.6905C56.9705 27.5895 56.6782 27.4689 56.417 27.3046C55.3522 26.6742 54.7321 25.5661 54.6401 24.5327C54.6211 24.3078 54.6278 24.3579 54.6289 24.1375C54.6302 23.9653 54.6531 23.8294 54.6762 23.6957C54.7326 23.4263 54.8231 23.1717 54.9458 22.9418C55.194 22.4832 55.5557 22.1239 55.9618 21.8923C56.3638 21.6557 56.8157 21.5527 57.2168 21.5512C57.283 21.5524 57.3504 21.5548 57.4138 21.5598L57.58 21.5855C57.6885 21.609 57.7943 21.6367 57.8939 21.6767C58.0937 21.7536 58.2737 21.8598 58.4259 21.9878C58.7292 22.2468 58.9256 22.5776 59.0145 22.9062C59.0352 22.9889 59.0541 23.0698 59.0624 23.1508L59.07 23.211L59.0759 23.2617L59.076 23.284L59.0753 23.3873C59.0708 23.5943 59.0319 23.7329 58.9696 23.8844C58.844 24.1727 58.6362 24.3834 58.4145 24.5062C58.1897 24.6312 57.9689 24.6754 57.7595 24.6656C57.2964 24.6243 57.0829 24.329 56.9991 24.15C56.9549 24.0556 56.9402 23.9785 56.9313 23.9283C56.9254 23.8776 56.9223 23.8519 56.9223 23.8519L57.2944 23.794C57.2974 23.792 57.3055 23.8552 57.3729 23.9381C57.4308 24.0186 57.5885 24.1178 57.745 24.0815C57.9374 24.0531 58.1698 23.8745 58.2086 23.6196C58.2199 23.5657 58.2159 23.4766 58.2041 23.4496L58.1893 23.3764L58.1847 23.3543C58.1835 23.3453 58.1886 23.3907 58.1851 23.3682L58.1824 23.3612L58.1717 23.3327C58.1598 23.294 58.1404 23.258 58.1226 23.2215C58.0459 23.0781 57.9229 22.957 57.7743 22.8805C57.6982 22.8452 57.6189 22.8181 57.5371 22.8051C57.4964 22.7972 57.4547 22.7972 57.4141 22.7961L57.3525 22.7998C57.3394 22.8039 57.3293 22.8075 57.318 22.8085C57.1033 22.8503 56.91 22.9397 56.7503 23.0829C56.4238 23.3609 56.2752 23.836 56.4195 24.2404C56.5748 24.7428 56.942 25.1898 57.448 25.3737C57.5692 25.4264 57.7015 25.4481 57.8288 25.4705C57.8953 25.4692 57.9581 25.4853 58.0243 25.478L58.1214 25.4759C58.1498 25.474 58.1635 25.4665 58.1844 25.465C58.19 25.4686 58.34 25.4428 58.4493 25.4236L58.4925 25.4162C58.5142 25.4132 58.3877 25.4282 58.4479 25.4195L58.4623 25.4148L58.5203 25.3958L58.6362 25.36C58.7881 25.3059 58.9378 25.2448 59.0759 25.1615C59.6353 24.8468 60.0718 24.3018 60.2538 23.6828C60.3018 23.5295 60.3286 23.37 60.3411 23.2109C60.357 23.0524 60.3453 22.8746 60.3323 22.7941C60.3308 22.7785 60.3329 22.7742 60.3299 22.7494L60.3133 22.6498L60.2804 22.4502L60.2722 22.4001L60.2681 22.3753C60.2648 22.3483 60.2847 22.5138 60.2734 22.4358L60.2518 22.3661L60.2097 22.2265C60.1667 22.0371 60.0772 21.8632 60.0113 21.6832C59.8435 21.3351 59.6266 21.0124 59.37 20.7227C59.1117 20.4333 58.7962 20.1954 58.4623 19.9991C58.1295 19.7993 57.7635 19.654 57.3847 19.5786C57.2922 19.5508 57.1962 19.5396 57.0999 19.5298C57.0044 19.5185 56.9103 19.4977 56.813 19.5027C56.7209 19.5037 56.611 19.4913 56.535 19.4975C56.4655 19.5072 56.3972 19.5119 56.3286 19.5113C56.319 19.509 56.2833 19.5141 56.2427 19.5204L56.131 19.5371L55.9069 19.5704L55.7947 19.5872L55.7667 19.5913C55.8035 19.5869 55.6449 19.6069 55.8421 19.5827L55.8011 19.5945L55.6371 19.6406L55.3088 19.7266C55.1997 19.7557 55.0969 19.8051 54.9903 19.8415C54.8854 19.8831 54.7765 19.9136 54.6743 19.961L54.3712 20.1114C54.162 20.1963 53.9826 20.3403 53.7866 20.4499C53.029 20.9429 52.4202 21.6484 51.9623 22.4228C51.501 23.2024 51.2751 24.101 51.2355 24.9882C51.2337 25.0415 51.2237 25.1048 51.2272 25.1492L51.2368 25.2802C51.2419 25.3671 51.2408 25.4541 51.2377 25.5411C51.2469 25.6673 51.2742 25.85 51.2918 26.0017L51.3215 26.2403L51.3364 26.3597C51.3061 26.1273 51.3314 26.3084 51.3261 26.2628L51.3319 26.2858L51.3434 26.332L51.5164 27.0698C51.5867 27.3116 51.6808 27.5454 51.7573 27.7842C52.1139 28.7225 52.6306 29.587 53.2563 30.3558C53.4249 30.5379 53.5722 30.7384 53.7509 30.9099L54.2883 31.4203L54.8712 31.8738C55.067 32.0219 55.2845 32.1387 55.4864 32.2757C56.3272 32.7725 57.2302 33.1411 58.1571 33.3551C58.3907 33.3997 58.6234 33.4445 58.8555 33.4888C59.0909 33.5102 59.3253 33.5316 59.559 33.5525C59.6829 33.5716 59.7747 33.5602 59.8753 33.5604L60.1723 33.5608L60.3206 33.5646C60.3734 33.5649 60.4074 33.5734 60.4941 33.5606L60.9438 33.5118L61.3914 33.4631L61.503 33.451L61.5589 33.445C61.5974 33.4403 61.3279 33.4748 61.4526 33.4579L61.4756 33.4532L61.66 33.4155C61.9059 33.3669 62.1505 33.3185 62.3942 33.2702L62.7597 33.2009C62.8803 33.1743 62.9956 33.1302 63.1134 33.096C63.3483 33.0246 63.5819 32.9537 63.8145 32.8833C63.9299 32.845 64.0514 32.825 64.1632 32.7794L64.4988 32.6454C64.7231 32.558 64.9463 32.4709 65.168 32.3844C65.3967 32.3107 65.5958 32.1798 65.8081 32.0783C66.0166 31.9687 66.2281 31.8673 66.4394 31.7672C66.8486 31.5442 67.2309 31.2854 67.6257 31.0549C67.993 30.7867 68.355 30.5178 68.7206 30.2601C69.0577 29.966 69.3888 29.6768 69.7138 29.3929C70.024 29.0913 70.3136 28.7777 70.6124 28.4789C70.7662 28.3326 70.8771 28.1562 71.0127 28C71.146 27.8407 71.2781 27.6828 71.4083 27.527C71.547 27.3747 71.6596 27.2089 71.7689 27.0428C71.8816 26.8778 71.9931 26.7146 72.1031 26.5535C72.3469 26.2407 72.5254 25.9041 72.7117 25.5786C72.8955 25.2525 73.0952 24.9391 73.233 24.6122C73.3869 24.2868 73.5356 23.9718 73.6793 23.6678C73.7981 23.3504 73.9124 23.0445 74.0225 22.7503C74.0793 22.601 74.1346 22.4549 74.1887 22.3119C74.2306 22.1653 74.2715 22.0219 74.3114 21.8818C74.3923 21.5971 74.4696 21.3258 74.5427 21.0682C74.6331 20.8057 74.66 20.5671 74.7105 20.334C74.7594 20.0989 74.8053 19.8785 74.848 19.6733C74.952 19.265 74.9645 18.8683 75.006 18.5674C75.0798 17.9549 75.1323 17.6268 75.1323 17.6268L75.5053 17.5868Z"/>
</mask>
<path d="M75.5053 17.5868C75.5053 17.5868 75.6244 17.897 75.8229 18.4814C75.9098 18.7801 76.0642 19.1177 76.1345 19.5838C76.1784 19.8121 76.2309 20.06 76.2761 20.3283C76.3178 20.5948 76.3867 20.8898 76.3977 21.185C76.4212 21.4839 76.4365 21.801 76.4565 22.1367C76.4649 22.3052 76.4739 22.4776 76.4829 22.6538C76.4738 22.8291 76.4645 23.0079 76.455 23.1907C76.433 23.5605 76.4097 23.9453 76.3857 24.3445C76.3176 24.7399 76.2469 25.1495 76.1741 25.5727C76.1307 25.7837 76.1101 26.0079 76.0425 26.2195C75.9798 26.4339 75.9163 26.6517 75.8519 26.8723C75.7215 27.3155 75.5942 27.7785 75.3961 28.2264C75.3003 28.453 75.2034 28.6823 75.1054 28.9146C75.0088 29.1488 74.9073 29.3848 74.7778 29.6086C74.5292 30.0618 74.2904 30.5424 73.9929 30.9981C72.8361 32.8457 71.1615 34.6294 69.0244 36.0268C68.7534 36.1937 68.4786 36.3609 68.1979 36.5222C67.9152 36.6789 67.6436 36.8637 67.3403 36.9898C67.0419 37.1268 66.7421 37.2648 66.4403 37.4033L65.9842 37.6097C65.8313 37.6775 65.6705 37.725 65.5117 37.7799C65.1919 37.8838 64.8703 37.9879 64.547 38.0928C64.3847 38.1424 64.2241 38.2014 64.0587 38.2425L63.558 38.3531C63.2228 38.425 62.8859 38.4973 62.5477 38.5702L62.2933 38.6235L62.2615 38.6303C62.368 38.6176 62.0803 38.6555 62.0998 38.6523L62.0439 38.6578L61.9322 38.6691L61.4842 38.714C58.5176 39.031 55.3727 38.3099 52.7556 36.6414C50.1223 35.0013 48.0815 32.3683 47.1073 29.3943C46.9973 29.0194 46.8755 28.6472 46.784 28.2689L46.5655 27.1229L46.5523 27.0513L46.5458 27.0153C46.537 26.9499 46.5563 27.1115 46.5244 26.8592L46.5144 26.7395L46.4942 26.5C46.4818 26.3329 46.4656 26.1974 46.4561 26.0044C46.4523 25.7714 46.45 25.538 46.4544 25.3051L46.4623 24.9562C46.4662 24.8408 46.4828 24.7456 46.4931 24.6396C46.6608 22.9845 47.2052 21.3755 48.1083 20.0239C49.0006 18.6679 50.2039 17.5411 51.5829 16.7755C51.9352 16.5983 52.2733 16.3969 52.6423 16.2646L53.1856 16.0509C53.3679 15.9847 53.5566 15.9384 53.7413 15.8833C53.9277 15.8334 54.1108 15.7729 54.2987 15.7353L54.8632 15.6362L55.1444 15.5895L55.2143 15.5782C55.4299 15.5496 55.2903 15.5693 55.3458 15.5622L55.3739 15.5606L55.4872 15.554L55.7133 15.5405L55.8263 15.5337C55.8609 15.5312 55.8998 15.5288 55.9657 15.5294C56.198 15.5282 56.4302 15.532 56.6599 15.5406C56.8835 15.553 57.0702 15.5859 57.2752 15.6108C57.4764 15.6318 57.6726 15.6823 57.8685 15.7271C58.0649 15.7707 58.2588 15.8194 58.4462 15.8881C59.2063 16.1285 59.9138 16.4917 60.5318 16.9529C61.1485 17.414 61.6941 17.9522 62.1279 18.5606C62.56 19.1693 62.8959 19.8283 63.128 20.5094C63.2251 20.855 63.3359 21.1946 63.3803 21.5439L63.4211 21.8031L63.4408 21.9322C63.433 21.8707 63.4573 22.0527 63.4548 22.0427L63.4558 22.0681L63.4581 22.1189L63.4672 22.321L63.4716 22.4218L63.4718 22.578C63.4727 23.0328 63.4254 23.3885 63.3453 23.7486C63.2651 24.1083 63.1508 24.4563 63.0006 24.782C62.414 26.0972 61.3181 27.0649 60.1153 27.5178C59.8165 27.6367 59.5081 27.7164 59.2034 27.774L58.974 27.8097L58.8602 27.8265L58.7442 27.8416L58.7005 27.8432C58.578 27.8462 58.4983 27.8555 58.2728 27.8495C58.1787 27.8464 58.0772 27.8448 57.9915 27.8356L57.7476 27.8003C57.5856 27.779 57.4299 27.7289 57.2748 27.6905C56.9705 27.5895 56.6782 27.4689 56.417 27.3046C55.3522 26.6742 54.7321 25.5661 54.6401 24.5327C54.6211 24.3078 54.6278 24.3579 54.6289 24.1375C54.6302 23.9653 54.6531 23.8294 54.6762 23.6957C54.7326 23.4263 54.8231 23.1717 54.9458 22.9418C55.194 22.4832 55.5557 22.1239 55.9618 21.8923C56.3638 21.6557 56.8157 21.5527 57.2168 21.5512C57.283 21.5524 57.3504 21.5548 57.4138 21.5598L57.58 21.5855C57.6885 21.609 57.7943 21.6367 57.8939 21.6767C58.0937 21.7536 58.2737 21.8598 58.4259 21.9878C58.7292 22.2468 58.9256 22.5776 59.0145 22.9062C59.0352 22.9889 59.0541 23.0698 59.0624 23.1508L59.07 23.211L59.0759 23.2617L59.076 23.284L59.0753 23.3873C59.0708 23.5943 59.0319 23.7329 58.9696 23.8844C58.844 24.1727 58.6362 24.3834 58.4145 24.5062C58.1897 24.6312 57.9689 24.6754 57.7595 24.6656C57.2964 24.6243 57.0829 24.329 56.9991 24.15C56.9549 24.0556 56.9402 23.9785 56.9313 23.9283C56.9254 23.8776 56.9223 23.8519 56.9223 23.8519L57.2944 23.794C57.2974 23.792 57.3055 23.8552 57.3729 23.9381C57.4308 24.0186 57.5885 24.1178 57.745 24.0815C57.9374 24.0531 58.1698 23.8745 58.2086 23.6196C58.2199 23.5657 58.2159 23.4766 58.2041 23.4496L58.1893 23.3764L58.1847 23.3543C58.1835 23.3453 58.1886 23.3907 58.1851 23.3682L58.1824 23.3612L58.1717 23.3327C58.1598 23.294 58.1404 23.258 58.1226 23.2215C58.0459 23.0781 57.9229 22.957 57.7743 22.8805C57.6982 22.8452 57.6189 22.8181 57.5371 22.8051C57.4964 22.7972 57.4547 22.7972 57.4141 22.7961L57.3525 22.7998C57.3394 22.8039 57.3293 22.8075 57.318 22.8085C57.1033 22.8503 56.91 22.9397 56.7503 23.0829C56.4238 23.3609 56.2752 23.836 56.4195 24.2404C56.5748 24.7428 56.942 25.1898 57.448 25.3737C57.5692 25.4264 57.7015 25.4481 57.8288 25.4705C57.8953 25.4692 57.9581 25.4853 58.0243 25.478L58.1214 25.4759C58.1498 25.474 58.1635 25.4665 58.1844 25.465C58.19 25.4686 58.34 25.4428 58.4493 25.4236L58.4925 25.4162C58.5142 25.4132 58.3877 25.4282 58.4479 25.4195L58.4623 25.4148L58.5203 25.3958L58.6362 25.36C58.7881 25.3059 58.9378 25.2448 59.0759 25.1615C59.6353 24.8468 60.0718 24.3018 60.2538 23.6828C60.3018 23.5295 60.3286 23.37 60.3411 23.2109C60.357 23.0524 60.3453 22.8746 60.3323 22.7941C60.3308 22.7785 60.3329 22.7742 60.3299 22.7494L60.3133 22.6498L60.2804 22.4502L60.2722 22.4001L60.2681 22.3753C60.2648 22.3483 60.2847 22.5138 60.2734 22.4358L60.2518 22.3661L60.2097 22.2265C60.1667 22.0371 60.0772 21.8632 60.0113 21.6832C59.8435 21.3351 59.6266 21.0124 59.37 20.7227C59.1117 20.4333 58.7962 20.1954 58.4623 19.9991C58.1295 19.7993 57.7635 19.654 57.3847 19.5786C57.2922 19.5508 57.1962 19.5396 57.0999 19.5298C57.0044 19.5185 56.9103 19.4977 56.813 19.5027C56.7209 19.5037 56.611 19.4913 56.535 19.4975C56.4655 19.5072 56.3972 19.5119 56.3286 19.5113C56.319 19.509 56.2833 19.5141 56.2427 19.5204L56.131 19.5371L55.9069 19.5704L55.7947 19.5872L55.7667 19.5913C55.8035 19.5869 55.6449 19.6069 55.8421 19.5827L55.8011 19.5945L55.6371 19.6406L55.3088 19.7266C55.1997 19.7557 55.0969 19.8051 54.9903 19.8415C54.8854 19.8831 54.7765 19.9136 54.6743 19.961L54.3712 20.1114C54.162 20.1963 53.9826 20.3403 53.7866 20.4499C53.029 20.9429 52.4202 21.6484 51.9623 22.4228C51.501 23.2024 51.2751 24.101 51.2355 24.9882C51.2337 25.0415 51.2237 25.1048 51.2272 25.1492L51.2368 25.2802C51.2419 25.3671 51.2408 25.4541 51.2377 25.5411C51.2469 25.6673 51.2742 25.85 51.2918 26.0017L51.3215 26.2403L51.3364 26.3597C51.3061 26.1273 51.3314 26.3084 51.3261 26.2628L51.3319 26.2858L51.3434 26.332L51.5164 27.0698C51.5867 27.3116 51.6808 27.5454 51.7573 27.7842C52.1139 28.7225 52.6306 29.587 53.2563 30.3558C53.4249 30.5379 53.5722 30.7384 53.7509 30.9099L54.2883 31.4203L54.8712 31.8738C55.067 32.0219 55.2845 32.1387 55.4864 32.2757C56.3272 32.7725 57.2302 33.1411 58.1571 33.3551C58.3907 33.3997 58.6234 33.4445 58.8555 33.4888C59.0909 33.5102 59.3253 33.5316 59.559 33.5525C59.6829 33.5716 59.7747 33.5602 59.8753 33.5604L60.1723 33.5608L60.3206 33.5646C60.3734 33.5649 60.4074 33.5734 60.4941 33.5606L60.9438 33.5118L61.3914 33.4631L61.503 33.451L61.5589 33.445C61.5974 33.4403 61.3279 33.4748 61.4526 33.4579L61.4756 33.4532L61.66 33.4155C61.9059 33.3669 62.1505 33.3185 62.3942 33.2702L62.7597 33.2009C62.8803 33.1743 62.9956 33.1302 63.1134 33.096C63.3483 33.0246 63.5819 32.9537 63.8145 32.8833C63.9299 32.845 64.0514 32.825 64.1632 32.7794L64.4988 32.6454C64.7231 32.558 64.9463 32.4709 65.168 32.3844C65.3967 32.3107 65.5958 32.1798 65.8081 32.0783C66.0166 31.9687 66.2281 31.8673 66.4394 31.7672C66.8486 31.5442 67.2309 31.2854 67.6257 31.0549C67.993 30.7867 68.355 30.5178 68.7206 30.2601C69.0577 29.966 69.3888 29.6768 69.7138 29.3929C70.024 29.0913 70.3136 28.7777 70.6124 28.4789C70.7662 28.3326 70.8771 28.1562 71.0127 28C71.146 27.8407 71.2781 27.6828 71.4083 27.527C71.547 27.3747 71.6596 27.2089 71.7689 27.0428C71.8816 26.8778 71.9931 26.7146 72.1031 26.5535C72.3469 26.2407 72.5254 25.9041 72.7117 25.5786C72.8955 25.2525 73.0952 24.9391 73.233 24.6122C73.3869 24.2868 73.5356 23.9718 73.6793 23.6678C73.7981 23.3504 73.9124 23.0445 74.0225 22.7503C74.0793 22.601 74.1346 22.4549 74.1887 22.3119C74.2306 22.1653 74.2715 22.0219 74.3114 21.8818C74.3923 21.5971 74.4696 21.3258 74.5427 21.0682C74.6331 20.8057 74.66 20.5671 74.7105 20.334C74.7594 20.0989 74.8053 19.8785 74.848 19.6733C74.952 19.265 74.9645 18.8683 75.006 18.5674C75.0798 17.9549 75.1323 17.6268 75.1323 17.6268L75.5053 17.5868Z" fill="#0FC8FF" stroke="black" mask="url(#path-95-inside-2_2071_9883)"/>
</g>
<g opacity="0.16">
<path d="M65.5495 29.7445C69.0248 24.9893 67.9758 18.31 63.2066 14.8258C58.4373 11.3416 51.7539 12.3719 48.2786 17.1271C44.8033 21.8823 45.8523 28.5616 50.6216 32.0458C55.3908 35.53 62.0743 34.4997 65.5495 29.7445Z" fill="#FEF3F3"/>
<path d="M65.5495 29.7445C69.0248 24.9893 67.9758 18.31 63.2066 14.8258C58.4373 11.3416 51.7539 12.3719 48.2786 17.1271C44.8033 21.8823 45.8523 28.5616 50.6216 32.0458C55.3908 35.53 62.0743 34.4997 65.5495 29.7445Z" stroke="black"/>
</g>
<g opacity="0.16">
<path d="M63.0487 28.9677C65.4804 25.6405 64.7538 20.9723 61.4259 18.541C58.098 16.1098 53.4289 16.8362 50.9972 20.1635C48.5655 23.4908 49.2921 28.1589 52.62 30.5902C55.9479 33.0214 60.617 32.295 63.0487 28.9677Z" fill="#FEF3F3"/>
<path d="M63.0487 28.9677C65.4804 25.6405 64.7538 20.9723 61.4259 18.541C58.098 16.1098 53.4289 16.8362 50.9972 20.1635C48.5655 23.4908 49.2921 28.1589 52.62 30.5902C55.9479 33.0214 60.617 32.295 63.0487 28.9677Z" stroke="black"/>
</g>
<path d="M195.622 149.626C197.956 154.292 200.206 162.679 201.039 166.29L202.289 165.04C200.956 160.041 197.289 152.681 195.622 149.626Z" fill="black"/>
<path d="M151.039 96.3031C153.539 98.386 151.872 100.886 150.206 100.051" stroke="black" stroke-width="0.5"/>
<path d="M97.7058 216.697C107.719 224.141 135.904 236.052 168.539 224.141" stroke="black" stroke-linecap="round"/>
<path d="M176.752 82.4841C168.625 76.7697 145.629 67.4512 118.665 75.893" stroke="black" stroke-linecap="round"/>
<path d="M171.569 222.929C174.246 221.686 180.781 218.119 185.509 213.795" stroke="black" stroke-linecap="round"/>
<path d="M233.539 157.125C238.817 155.458 250.596 148.476 254.373 134.212C258.123 120.049 249.928 102.552 244.789 95.4699" stroke="black"/>
<path d="M243.956 93.8035C243.123 92.6926 241.039 89.8876 239.373 87.5547" stroke="black"/>
<path d="M39.7893 135.879C37.9761 126.714 35.8104 103.885 41.6529 85.8884" stroke="black"/>
<path d="M95.2058 31.7334C97.9836 31.1779 103.706 31.3168 104.372 36.3158" stroke="black"/>
<path d="M186.671 48.6181C183.893 48.0627 178.171 48.2015 177.504 53.2006" stroke="black"/>
<path d="M42.2892 18.4012C42.7059 15.2073 46.0392 9.23651 54.3725 7.98718C56.4559 7.84832 61.4559 7.57295 64.7892 10.0714" stroke="black"/>
</svg>
