<svg width="19" height="19" viewBox="0 0 19 19" fill="none" xmlns="http://www.w3.org/2000/svg">
<g id="material-symbols:edit-outline">
<path id="Vector" d="M4.0752 14.75H5.1252L11.5939 8.28125L10.5439 7.23125L4.0752 13.7V14.75ZM14.8002 7.19375L11.6127 4.04375L12.6627 2.99375C12.9502 2.70625 13.3034 2.5625 13.7224 2.5625C14.1414 2.5625 14.4944 2.70625 14.7814 2.99375L15.8314 4.04375C16.1189 4.33125 16.2689 4.67825 16.2814 5.08475C16.2939 5.49125 16.1564 5.838 15.8689 6.125L14.8002 7.19375ZM13.7127 8.3L5.7627 16.25H2.5752V13.0625L10.5252 5.1125L13.7127 8.3ZM11.0689 7.75625L10.5439 7.23125L11.5939 8.28125L11.0689 7.75625Z" fill="#FF12A0"/>
</g>
</svg>
