<svg width="209" height="246" viewBox="0 0 209 246" fill="none" xmlns="http://www.w3.org/2000/svg">
<ellipse cx="103.46" cy="88.1875" rx="60.9134" ry="59.0912" fill="#FF12A0"/>
<path d="M56.2279 145.022L73.6647 133.791C77.9277 130.156 84.1352 129.946 88.6342 133.284L89.9617 134.268C91.4419 135.367 92.6926 136.744 93.643 138.323L110.185 165.807C110.997 167.155 111.914 168.437 112.927 169.641L113.765 170.637C125.963 185.133 121.157 207.248 104.042 215.372C99.05 217.742 93.4833 218.632 88.0013 217.936L65.6437 215.097C47.0829 212.741 34.8236 194.604 39.5561 176.503L43.023 163.242C44.9872 155.729 49.6996 149.227 56.2279 145.022Z" fill="#0FC8FF" stroke="black"/>
<path d="M54.041 138.935L74.8285 112.835L88.2768 126.1L73.4117 145.278L58.0768 148.511L54.041 138.935Z" fill="#FCEA2B" stroke="black"/>
<path d="M73.3292 69.6669C78.4497 61.3502 89.4512 58.5774 97.9018 63.4737C106.352 68.37 109.052 79.0813 103.932 87.3979L86.7962 115.229C84.5621 118.858 81.2752 121.764 77.359 123.573L74 125.124C69.5897 127.161 64.4596 126.94 60.3073 124.535C56.1551 122.129 53.5223 117.852 53.2801 113.119L53.0957 109.514C52.8807 105.312 53.9597 101.127 56.1939 97.498L73.3292 69.6669Z" fill="#FFFA00" stroke="black"/>
<path d="M63.9541 84.7619C79.668 89.729 88.7462 79.9092 92.2038 74.6995C84.2586 88.5732 91.321 98.8212 94.6315 103.389L84.9207 119.018L53.1398 172.328L53.8019 193.096L95.735 149.634C95.735 144.924 99.9283 139.999 104.342 130.365C107.874 122.657 104.342 118.732 102.135 117.733C106.196 107.285 102.356 102.675 99.9283 101.676C102.356 96.9657 107.653 96.7515 110.963 85.6183C111.972 82.2257 116.702 65.7072 109.198 61.4252C103.195 57.9996 97.7213 60.5689 95.735 62.2818C95.735 57.7143 92.9542 49.5215 81.8309 53.2896C67.9267 57.9998 62.8506 71.488 62.1885 73.8431C61.5264 76.1982 60.6436 75.77 56.2296 78.3391C52.6984 80.3945 52.6984 85.333 53.1398 87.5454C48.3726 93.5401 44.091 104.602 42.5461 109.383L53.8019 100.605L63.9541 84.7619Z" fill="#472B29" stroke="black"/>
<path fill-rule="evenodd" clip-rule="evenodd" d="M66.6476 97.5739C66.6289 97.5617 66.6103 97.5494 66.5917 97.537C66.5731 97.5246 66.5545 97.5121 66.5361 97.4996L66.6476 97.5739ZM75.7103 95.073C76.9229 92.4815 76.0857 89.3414 73.5839 87.6726C71.0822 86.0038 67.76 86.3693 65.6996 88.3953L66.3088 88.8016C68.1326 87.0926 71.0026 86.8052 73.1729 88.2529C75.3432 89.7006 76.0938 92.4033 75.1015 94.6669L75.7103 95.073ZM65.0426 89.1588C65.0295 89.1768 65.0164 89.195 65.0035 89.2133C64.9906 89.2315 64.9777 89.2498 64.965 89.2682L65.0426 89.1588Z" fill="black"/>
<path fill-rule="evenodd" clip-rule="evenodd" d="M79.8245 97.3881C81.8848 95.3615 85.2075 94.9958 87.7094 96.6648C90.2114 98.3338 91.0486 101.474 89.8354 104.066L89.2266 103.66C90.2194 101.396 89.4688 98.693 87.2983 97.2451C85.1278 95.7973 82.2573 96.0849 80.4336 97.7944L79.8245 97.3881ZM89.2359 105.074C89.2567 105.046 89.2773 105.017 89.2976 104.989C89.3179 104.96 89.338 104.931 89.3578 104.902L89.2359 105.074Z" fill="black"/>
<ellipse cx="69.2506" cy="93.1118" rx="1.54491" ry="1.49869" fill="black"/>
<path d="M66.8225 111.58L76.4357 98.2217L69.6498 113.104L66.8225 111.58Z" fill="black" stroke="black"/>
<path d="M63.6024 115.753L67.6162 118.001" stroke="black"/>
<path d="M83.9793 122.229C83.9793 123.003 83.3283 123.656 82.493 123.656C81.6577 123.656 81.0067 123.003 81.0067 122.229C81.0067 121.455 81.6577 120.802 82.493 120.802C83.3283 120.802 83.9793 121.455 83.9793 122.229Z" fill="#FF12A0" stroke="black"/>
<path d="M121.367 130.886C76.167 147.671 66.1913 195.401 66.8534 217.167V232.582L105.917 245L154.913 228.086L183.383 197.684L140.788 139.021C133.373 127.032 124.751 128.602 121.367 130.886Z" fill="#FFFA00" stroke="black"/>
<mask id="mask0_2331_10813" style="mask-type:alpha" maskUnits="userSpaceOnUse" x="66" y="128" width="119" height="118">
<path d="M121.808 130.886C76.6083 147.671 66.6326 195.401 67.2947 217.167V232.582L106.359 245L155.354 228.086L183.825 197.684L141.229 139.021C133.814 127.032 125.192 128.602 121.808 130.886Z" fill="#FF16D0" stroke="black"/>
</mask>
<g mask="url(#mask0_2331_10813)">
<path d="M90.468 152.923C87.2255 152.606 85.5945 154.447 85.1843 155.407C84.6594 159.106 92.169 159.891 94.7131 156.969C97.2571 154.048 97.6223 148.841 94.2674 149.843C91.5835 150.644 90.6162 152.23 90.468 152.923Z" fill="#0FC8FF" stroke="black"/>
<path d="M136.177 149.417C132.935 149.1 131.304 150.94 130.893 151.9C130.368 155.599 137.878 156.385 140.422 153.463C142.966 150.541 143.331 145.335 139.977 146.336C137.293 147.138 136.325 148.724 136.177 149.417Z" fill="#0FC8FF" stroke="black"/>
<path d="M119.846 212.79C116.603 212.473 114.972 214.313 114.562 215.273C114.037 218.972 121.547 219.758 124.091 216.836C126.635 213.914 127 208.708 123.645 209.71C120.961 210.511 119.994 212.097 119.846 212.79Z" fill="#0FC8FF" stroke="black"/>
<path d="M133.97 193.949C130.727 193.632 129.096 195.473 128.686 196.433C128.161 200.131 135.671 200.917 138.215 197.995C140.759 195.073 141.124 189.867 137.769 190.869C135.085 191.67 134.118 193.256 133.97 193.949Z" fill="#0FC8FF" stroke="black"/>
<path d="M93.8026 196.09C90.5601 195.773 88.9291 197.614 88.5189 198.574C87.994 202.272 95.5036 203.058 98.0477 200.136C100.592 197.214 100.957 192.008 97.602 193.01C94.9181 193.811 93.9508 195.397 93.8026 196.09Z" fill="#0FC8FF" stroke="black"/>
<path d="M131.556 167.757C130.669 164.715 128.305 163.919 127.234 163.902C123.495 164.787 125.5 171.851 129.236 173.073C132.972 174.296 138.098 172.713 135.905 170.054C134.151 167.926 132.275 167.636 131.556 167.757Z" fill="#0FC8FF" stroke="black"/>
<path d="M82.1187 184.457C81.2317 181.415 78.8678 180.619 77.7968 180.602C74.0577 181.487 76.0628 188.551 79.7987 189.773C83.5346 190.995 88.6602 189.412 86.4676 186.753C84.7136 184.626 82.8375 184.336 82.1187 184.457Z" fill="#0FC8FF" stroke="black"/>
<path d="M114.969 201.076C114.485 199.417 113.196 198.983 112.612 198.974C110.572 199.456 111.666 203.309 113.703 203.976C115.741 204.642 118.536 203.779 117.341 202.329C116.384 201.169 115.361 201.01 114.969 201.076Z" fill="#0FC8FF" stroke="black"/>
<path d="M87.8854 210.416C87.4016 208.757 86.1124 208.323 85.5283 208.313C83.4891 208.796 84.5826 212.649 86.6201 213.315C88.6576 213.982 91.453 213.119 90.2572 211.668C89.3006 210.508 88.2774 210.35 87.8854 210.416Z" fill="#0FC8FF" stroke="black"/>
<path d="M149.241 203.565C148.757 201.906 147.468 201.472 146.884 201.462C144.844 201.945 145.938 205.798 147.975 206.464C150.013 207.131 152.808 206.268 151.612 204.817C150.656 203.657 149.633 203.499 149.241 203.565Z" fill="#0FC8FF" stroke="black"/>
<path d="M141.295 180.442C140.811 178.783 139.522 178.349 138.938 178.34C136.899 178.822 137.992 182.675 140.03 183.341C142.067 184.008 144.863 183.145 143.667 181.695C142.71 180.534 141.687 180.376 141.295 180.442Z" fill="#0FC8FF" stroke="black"/>
<path d="M143.061 161.601C142.578 159.942 141.288 159.508 140.704 159.499C138.665 159.982 139.759 163.834 141.796 164.501C143.834 165.167 146.629 164.304 145.433 162.854C144.476 161.694 143.453 161.535 143.061 161.601Z" fill="#0FC8FF" stroke="black"/>
<path d="M94.7241 180.777C92.947 180.802 92.1823 181.899 92.022 182.444C91.9766 184.479 96.0958 184.449 97.2854 182.711C98.4749 180.973 98.3364 178.131 96.5835 178.877C95.1812 179.474 94.7596 180.393 94.7241 180.777Z" fill="#0FC8FF" stroke="black"/>
<path d="M117.332 171.948C115.555 171.973 114.79 173.07 114.63 173.615C114.584 175.65 118.703 175.619 119.893 173.882C121.083 172.144 120.944 169.301 119.191 170.048C117.789 170.645 117.367 171.563 117.332 171.948Z" fill="#0FC8FF" stroke="black"/>
<path d="M172.066 197.211C170.289 197.237 169.524 198.333 169.364 198.878C169.318 200.914 173.437 200.883 174.627 199.145C175.816 197.408 175.678 194.565 173.925 195.312C172.523 195.909 172.101 196.827 172.066 197.211Z" fill="#0FC8FF" stroke="black"/>
<path d="M121.746 158.246C119.969 158.271 119.204 159.367 119.044 159.912C118.998 161.948 123.117 161.917 124.307 160.18C125.496 158.442 125.358 155.599 123.605 156.346C122.203 156.943 121.781 157.861 121.746 158.246Z" fill="#0FC8FF" stroke="black"/>
<path d="M76.7232 199.352C74.946 199.378 74.1813 200.474 74.0211 201.019C73.9756 203.055 78.0949 203.024 79.2844 201.286C80.4739 199.549 80.3354 196.706 78.5826 197.453C77.1803 198.05 76.7587 198.968 76.7232 199.352Z" fill="#0FC8FF" stroke="black"/>
<path d="M105.19 155.895C103.662 155.014 102.418 155.559 101.988 155.942C100.85 157.654 104.377 159.72 106.328 158.843C108.279 157.967 109.695 155.475 107.799 155.22C106.282 155.017 105.427 155.585 105.19 155.895Z" fill="#0FC8FF" stroke="black"/>
<path d="M112.642 228.092C111.114 227.211 109.871 227.756 109.441 228.139C108.303 229.851 111.829 231.916 113.781 231.04C115.732 230.164 117.148 227.671 115.252 227.417C113.735 227.214 112.88 227.782 112.642 228.092Z" fill="#0FC8FF" stroke="black"/>
<path d="M82.1863 223.381C80.6585 222.5 79.4153 223.046 78.9847 223.429C77.8472 225.14 81.3735 227.206 83.3248 226.33C85.276 225.454 86.6922 222.961 84.7958 222.707C83.2787 222.504 82.4241 223.072 82.1863 223.381Z" fill="#0FC8FF" stroke="black"/>
<path d="M102.048 204.541C100.521 203.66 99.2774 204.205 98.8467 204.588C97.7093 206.3 101.236 208.366 103.187 207.489C105.138 206.613 106.554 204.121 104.658 203.866C103.141 203.663 102.286 204.231 102.048 204.541Z" fill="#0FC8FF" stroke="black"/>
<path d="M125.442 145.021C123.914 144.14 122.671 144.686 122.241 145.069C121.103 146.78 124.63 148.846 126.581 147.97C128.532 147.093 129.948 144.601 128.052 144.347C126.535 144.144 125.68 144.712 125.442 145.021Z" fill="#0FC8FF" stroke="black"/>
<path d="M87.4814 166.431C85.9536 165.55 84.7103 166.096 84.2797 166.479C83.1423 168.19 86.6686 170.256 88.6198 169.38C90.5711 168.503 91.9873 166.011 90.0909 165.757C88.5738 165.554 87.7191 166.122 87.4814 166.431Z" fill="#0FC8FF" stroke="black"/>
<path d="M128.025 132.645C127.138 129.603 124.774 128.807 123.703 128.79C119.964 129.675 121.969 136.739 125.705 137.961C129.441 139.183 134.566 137.601 132.374 134.942C130.62 132.814 128.744 132.524 128.025 132.645Z" fill="#0FC8FF" stroke="black"/>
<path d="M71.9482 213.356C69.2179 211.63 66.8978 212.538 66.079 213.208C63.8617 216.26 70.1607 220.303 73.8038 218.841C77.4469 217.379 80.2358 212.917 76.7815 212.312C74.018 211.828 72.4078 212.806 71.9482 213.356Z" fill="#0FC8FF" stroke="black"/>
<path d="M132.861 232.196C130.131 230.47 127.81 231.379 126.992 232.049C124.774 235.101 131.073 239.144 134.717 237.682C138.36 236.22 141.149 231.758 137.694 231.153C134.931 230.669 133.321 231.647 132.861 232.196Z" fill="#0FC8FF" stroke="black"/>
<path d="M160.228 195.8C157.498 194.074 155.178 194.982 154.359 195.652C152.141 198.704 158.44 202.747 162.084 201.285C165.727 199.823 168.516 195.361 165.061 194.756C162.298 194.272 160.688 195.25 160.228 195.8Z" fill="#0FC8FF" stroke="black"/>
<path d="M101.523 167.111C98.7923 165.384 96.4721 166.293 95.6533 166.963C93.436 170.015 99.7351 174.058 103.378 172.596C107.021 171.134 109.81 166.672 106.356 166.067C103.592 165.583 101.982 166.561 101.523 167.111Z" fill="#0FC8FF" stroke="black"/>
<path d="M116.114 147.517C117.346 144.59 115.988 142.551 115.156 141.897C111.648 140.361 108.744 147.125 110.912 150.32C113.08 153.514 118.123 155.329 118.083 151.924C118.051 149.2 116.757 147.851 116.114 147.517Z" fill="#0FC8FF" stroke="black"/>
<path d="M153.192 175.778C154.424 172.851 153.067 170.812 152.234 170.158C148.726 168.622 145.822 175.386 147.99 178.581C150.158 181.775 155.201 183.59 155.162 180.185C155.13 177.461 153.836 176.112 153.192 175.778Z" fill="#0FC8FF" stroke="black"/>
<path d="M144.806 216.884C146.037 213.958 144.68 211.919 143.847 211.265C140.339 209.729 137.435 216.493 139.603 219.688C141.771 222.882 146.814 224.697 146.775 221.292C146.743 218.568 145.449 217.219 144.806 216.884Z" fill="#0FC8FF" stroke="black"/>
<path d="M107.728 241.292C108.96 238.365 107.602 236.326 106.769 235.673C103.261 234.136 100.357 240.901 102.525 244.095C104.693 247.29 109.737 249.104 109.697 245.699C109.665 242.975 108.371 241.626 107.728 241.292Z" fill="#0FC8FF" stroke="black"/>
<path d="M115.647 183.81C112.917 182.084 110.597 182.993 109.778 183.663C107.561 186.714 113.86 190.758 117.503 189.296C121.146 187.833 123.935 183.371 120.48 182.767C117.717 182.283 116.107 183.261 115.647 183.81Z" fill="#0FC8FF" stroke="black"/>
<path d="M82.1003 232.625C79.37 230.899 77.0499 231.807 76.2311 232.477C74.0138 235.529 80.3128 239.572 83.9559 238.11C87.599 236.648 90.3879 232.186 86.9336 231.581C84.1701 231.097 82.5599 232.075 82.1003 232.625Z" fill="#0FC8FF" stroke="black"/>
<path d="M98.8738 216.781C96.1435 215.055 93.8233 215.964 93.0045 216.634C90.7872 219.686 97.0862 223.729 100.729 222.267C104.372 220.804 107.161 216.342 103.707 215.738C100.944 215.254 99.3334 216.232 98.8738 216.781Z" fill="#0FC8FF" stroke="black"/>
</g>
<path d="M133.033 143.211L124.205 123.086L136.564 119.874L143.185 134.433L140.096 144.067L133.033 143.211Z" fill="#0FC8FF" stroke="black"/>
<path d="M106.721 141.534L111.5 131.718C111.726 131.252 112.07 130.853 112.497 130.559L121.377 124.451C122.794 123.476 124.738 123.89 125.636 125.357L160.4 182.177L169.459 196.941C170.469 198.587 169.683 200.745 167.851 201.356L159.137 204.262C158.024 204.633 156.796 204.321 155.995 203.464L112.032 156.39C111.134 155.428 110.967 153.993 111.621 152.851L113.109 150.254C114.328 148.126 112.616 145.514 110.178 145.781L109.746 145.829C107.399 146.087 105.688 143.657 106.721 141.534Z" fill="#FAF500" stroke="black"/>
<path d="M111.143 96.1027C108.527 86.632 114.115 76.9507 123.625 74.4789C133.134 72.0071 142.963 77.6808 145.579 87.1515L149.037 99.669C150.161 103.738 150.141 108.021 148.981 112.051L147.533 117.079C146.217 121.645 142.588 125.167 137.958 126.371C133.328 127.574 128.369 126.284 124.876 122.968L121.031 119.316C117.949 116.389 115.724 112.69 114.6 108.62L111.143 96.1027Z" fill="#0FC8FF" stroke="black"/>
<path d="M107.652 89.9004C118.599 96.2377 127.515 84.6907 130.605 78.125C135.019 88.1876 139.212 82.8352 145.171 91.185C148.481 95.8238 150.026 108.955 150.688 108.313C161.105 104.373 160.326 86.118 159.737 81.1224C153.557 62.6243 140.977 61.8535 135.46 63.7804C133.165 61.725 131.267 62.924 130.605 63.7804C120.541 72.0018 115.671 68.2051 114.494 65.2791C105.445 65.9214 93.9684 81.9787 107.652 89.9004Z" fill="black" stroke="black"/>
<path fill-rule="evenodd" clip-rule="evenodd" d="M118.917 108.759C124.041 108.759 128.195 104.729 128.195 99.7579C128.195 94.7867 124.041 90.7568 118.917 90.7568C113.792 90.7568 109.638 94.7867 109.638 99.7579C109.638 104.729 113.792 108.759 118.917 108.759ZM118.917 107.7C123.439 107.7 127.105 104.144 127.105 99.7578C127.105 95.3715 123.439 91.8156 118.917 91.8156C114.396 91.8156 110.73 95.3715 110.73 99.7578C110.73 104.144 114.396 107.7 118.917 107.7Z" fill="black"/>
<path fill-rule="evenodd" clip-rule="evenodd" d="M137.456 101.908C142.581 101.908 146.735 97.8779 146.735 92.9067C146.735 87.9355 142.581 83.9055 137.456 83.9055C132.332 83.9055 128.177 87.9355 128.177 92.9067C128.177 97.8779 132.332 101.908 137.456 101.908ZM137.456 100.849C141.978 100.849 145.643 97.2929 145.643 92.9066C145.643 88.5202 141.978 84.9644 137.456 84.9644C132.935 84.9644 129.269 88.5202 129.269 92.9066C129.269 97.2929 132.935 100.849 137.456 100.849Z" fill="black"/>
<ellipse cx="120.453" cy="97.3938" rx="1.54491" ry="1.49869" fill="black"/>
<ellipse cx="134.137" cy="93.1118" rx="1.54491" ry="1.49869" fill="black"/>
<ellipse cx="83.8172" cy="102.104" rx="1.54491" ry="1.49869" fill="black"/>
<path d="M133.779 118.428L138.066 116.718" stroke="black"/>
<rect width="8.71654" height="1.29013" transform="matrix(0.932267 -0.361772 0.381219 0.924485 114.276 94.8213)" fill="black"/>
<rect width="12.785" height="1.31938" transform="matrix(-0.360692 -0.932685 0.939704 -0.341989 133.837 113.791)" fill="black"/>
<rect width="9.67128" height="1.29013" transform="matrix(0.932267 -0.361772 0.381219 0.924485 129.061 89.5453)" fill="black"/>
<mask id="path-62-inside-1_2331_10813" fill="white">
<path fill-rule="evenodd" clip-rule="evenodd" d="M199.243 15.7386H10.6399V228.21H199.243V15.7386ZM135.92 125.872C133.888 127.462 132.864 130.075 133.53 132.568L150.88 197.537C151.898 201.347 149.026 205.085 145.083 205.085H62.276C58.3329 205.085 55.4618 201.347 56.4791 197.537L73.3214 134.471C74.02 131.855 72.8582 129.123 70.6406 127.569C57.0975 118.081 48.2838 102.634 48.2838 85.1902C48.2838 56.3388 72.3937 32.9501 102.135 32.9501C131.876 32.9501 155.986 56.3388 155.986 85.1902C155.986 101.63 148.158 116.296 135.92 125.872Z"/>
</mask>
<path fill-rule="evenodd" clip-rule="evenodd" d="M199.243 15.7386H10.6399V228.21H199.243V15.7386ZM135.92 125.872C133.888 127.462 132.864 130.075 133.53 132.568L150.88 197.537C151.898 201.347 149.026 205.085 145.083 205.085H62.276C58.3329 205.085 55.4618 201.347 56.4791 197.537L73.3214 134.471C74.02 131.855 72.8582 129.123 70.6406 127.569C57.0975 118.081 48.2838 102.634 48.2838 85.1902C48.2838 56.3388 72.3937 32.9501 102.135 32.9501C131.876 32.9501 155.986 56.3388 155.986 85.1902C155.986 101.63 148.158 116.296 135.92 125.872Z" fill="white"/>
<path d="M10.6399 15.7386V14.7386H9.63989V15.7386H10.6399ZM199.243 15.7386H200.243V14.7386H199.243V15.7386ZM10.6399 228.21H9.63989V229.21H10.6399V228.21ZM199.243 228.21V229.21H200.243V228.21H199.243ZM133.53 132.568L132.564 132.826L133.53 132.568ZM135.92 125.872L135.304 125.085L135.92 125.872ZM150.88 197.537L149.914 197.795L150.88 197.537ZM56.4791 197.537L55.513 197.279L56.4791 197.537ZM73.3214 134.471L74.2876 134.729L73.3214 134.471ZM70.6406 127.569L71.2144 126.75L70.6406 127.569ZM10.6399 16.7386H199.243V14.7386H10.6399V16.7386ZM11.6399 228.21V15.7386H9.63989V228.21H11.6399ZM199.243 227.21H10.6399V229.21H199.243V227.21ZM198.243 15.7386V228.21H200.243V15.7386H198.243ZM134.496 132.31C133.945 130.248 134.783 128.032 136.536 126.66L135.304 125.085C132.993 126.893 131.783 129.903 132.564 132.826L134.496 132.31ZM151.846 197.279L134.496 132.31L132.564 132.826L149.914 197.795L151.846 197.279ZM145.083 206.085C149.684 206.085 153.033 201.724 151.846 197.279L149.914 197.795C150.762 200.97 148.369 204.085 145.083 204.085V206.085ZM62.276 206.085H145.083V204.085H62.276V206.085ZM55.513 197.279C54.3261 201.724 57.6757 206.085 62.276 206.085V204.085C58.9901 204.085 56.5975 200.97 57.4453 197.795L55.513 197.279ZM72.3553 134.213L55.513 197.279L57.4453 197.795L74.2876 134.729L72.3553 134.213ZM70.0669 128.388C71.9816 129.73 72.9331 132.049 72.3553 134.213L74.2876 134.729C75.1069 131.661 73.7349 128.516 71.2144 126.75L70.0669 128.388ZM47.2838 85.1902C47.2838 102.982 56.2748 118.726 70.0669 128.388L71.2144 126.75C57.9203 117.437 49.2838 102.286 49.2838 85.1902H47.2838ZM102.135 31.9501C71.8703 31.9501 47.2838 55.7581 47.2838 85.1902H49.2838C49.2838 56.9195 72.9172 33.9501 102.135 33.9501V31.9501ZM156.986 85.1902C156.986 55.7581 132.399 31.9501 102.135 31.9501V33.9501C131.352 33.9501 154.986 56.9195 154.986 85.1902H156.986ZM136.536 126.66C149 116.907 156.986 101.957 156.986 85.1902H154.986C154.986 101.303 147.315 115.686 135.304 125.085L136.536 126.66Z" fill="black" mask="url(#path-62-inside-1_2331_10813)"/>
<path d="M104.562 204.443C108.388 199.019 115.068 184.917 111.183 171.9" stroke="black"/>
<path d="M86.4193 28.3652C87.9591 27.9171 93.2559 27.0209 102.125 27.0209" stroke="black"/>
<path fill-rule="evenodd" clip-rule="evenodd" d="M208.369 0H0.500019V2.95093H0.5L0.500011 215.422V243.948V244.932H208.369V215.422L208.369 29.5099V0ZM177.949 29.5099H30.9199L30.9199 215.422H177.949L177.949 29.5099Z" fill="white"/>
<path d="M155.247 194.167L151.09 177.587" stroke="black" stroke-linecap="round"/>
<path d="M42.2241 80.0024C44.9756 61.5451 54.1471 41.287 81.6617 31.3831" stroke="black" stroke-linecap="round"/>
<path d="M151.109 54.1523C161.187 69.9385 167.508 91.1364 152.852 115.995" stroke="black" stroke-linecap="round"/>
<path d="M84.1266 30.586C89.7957 28.7463 95.4649 27.8264 103.024 28.3326" stroke="black" stroke-linecap="round"/>
<path d="M44.8968 48.3242C47.9801 43.5094 51.6537 39.384 57.6639 35.1821" stroke="black" stroke-linecap="round"/>
<path d="M63.3183 132.895C58.741 129.372 54.9373 125.359 51.323 119.086" stroke="black" stroke-linecap="round"/>
<path d="M151.327 118.412C148.277 123.247 144.631 127.396 138.65 131.636" stroke="black" stroke-linecap="round"/>
<path d="M163.076 109.945C161.474 115.396 159.108 120.342 154.518 125.983" stroke="black" stroke-linecap="round"/>
<path d="M112.062 211.507H146.184C149.873 211.654 156.882 209.471 155.406 199.558" stroke="black" stroke-linecap="round"/>
<path d="M61.9429 210.717H74.2671" stroke="black" stroke-linecap="round"/>
<path d="M52.5427 190.189L60.2994 161.699" stroke="black" stroke-linecap="round"/>
<ellipse cx="3.9347" cy="3.84507" rx="3.9347" ry="3.84507" transform="matrix(0.941111 0.338098 -0.356649 0.934239 156.707 150.939)" fill="#FFFA00"/>
<ellipse cx="3.9347" cy="3.84507" rx="3.9347" ry="3.84507" transform="matrix(0.941111 0.338098 -0.356649 0.934239 26.8914 47.3239)" fill="#0FC8FF"/>
<ellipse cx="4.40614" cy="4.30577" rx="4.40614" ry="4.30577" transform="matrix(0.941111 0.338098 -0.356649 0.934239 77.3386 221.078)" fill="#0FC8FF"/>
<path d="M80.7735 222.381C79.2101 222.095 77.6234 222.656 76.6082 223.799C78.2159 225.639 79.0888 226.159 79.9169 226.609C79.9037 225.677 79.9212 224.687 80.7735 222.381Z" fill="#FFFA00"/>
<path d="M84.1233 225.177C81.6146 225.62 80.8261 226.122 79.9503 226.627C80.8266 227.103 81.6679 227.527 83.2958 229.387C83.6314 229.01 83.908 228.574 84.0966 228.08C84.4677 227.107 84.4512 226.086 84.1233 225.177Z" fill="#FFFA00"/>
<path d="M75.7824 228.003C76.2019 229.169 77.1337 230.152 78.4179 230.614C78.6517 230.698 78.8884 230.756 79.1256 230.8C79.9617 228.531 79.9315 227.607 79.9172 226.647C79.1093 227.111 78.1992 227.578 75.7824 228.003Z" fill="#FFFA00"/>
<path d="M175.562 20.4135C175.027 21.8148 173.402 22.5644 171.904 22.0263C170.406 21.4881 169.677 19.8927 170.212 18.4914C170.747 17.0901 172.371 16.3405 173.869 16.8786C175.367 17.4168 176.097 19.0122 175.562 20.4135Z" stroke="#FF16D0" stroke-width="2"/>
<path d="M34.3882 139.484L29.9888 130.216" stroke="#FFFA00" stroke-width="2" stroke-linecap="round"/>
<path d="M36.942 132.668L27.4351 137.031" stroke="#FFFA00" stroke-width="2" stroke-linecap="round"/>
</svg>
