<svg width="277" height="166" viewBox="0 0 277 166" fill="none" xmlns="http://www.w3.org/2000/svg">
<g clip-path="url(#clip0_25707_21800)">
<path d="M160.381 18.559H119.422C116.33 18.559 113.822 21.0554 113.822 24.1347V48.5936C113.822 51.6729 116.33 54.1693 119.422 54.1693H160.381C163.473 54.1693 165.981 51.6729 165.981 48.5936V24.1347C165.981 21.0554 163.473 18.559 160.381 18.559Z" fill="#FF12A0"/>
<path d="M160.381 55.7044H119.422C115.484 55.7044 112.28 52.5142 112.28 48.5929V24.134C112.28 20.2127 115.484 17.0225 119.422 17.0225H160.381C164.32 17.0225 167.524 20.2127 167.524 24.134V48.5929C167.524 52.5142 164.32 55.7044 160.381 55.7044ZM119.422 20.0949C117.186 20.0949 115.366 21.907 115.366 24.134V48.5929C115.366 50.8199 117.186 52.632 119.422 52.632H160.381C162.618 52.632 164.438 50.8199 164.438 48.5929V24.134C164.438 21.907 162.618 20.0949 160.381 20.0949H119.422Z" fill="black"/>
<path fill-rule="evenodd" clip-rule="evenodd" d="M114.989 35.2649C116.014 36.5841 117.619 37.4336 119.423 37.4336H160.381C162.234 37.4336 163.876 36.5377 164.896 35.1572V47.8588C164.896 50.7591 162.497 53.1102 159.538 53.1102H120.348C117.388 53.1102 114.989 50.7591 114.989 47.8588V35.2649Z" fill="#45D3FF"/>
<path d="M152.011 18.559H147.043V12.5572C147.043 11.974 146.566 11.4994 145.98 11.4994H133.823C133.237 11.4994 132.76 11.974 132.76 12.5572V18.559H127.792V12.5572C127.793 9.24641 130.498 6.55321 133.823 6.55321H145.981C149.306 6.55321 152.011 9.24641 152.011 12.5572V18.559H152.011Z" fill="black"/>
<path d="M160.179 37.9H119.625C115.575 37.9 112.28 34.6194 112.28 30.5866V26.0863C112.28 25.2381 112.97 24.5504 113.822 24.5504C114.674 24.5504 115.365 25.2381 115.365 26.0863V30.5866C115.365 32.9251 117.276 34.8283 119.625 34.8283H160.179C162.527 34.8283 164.439 32.9258 164.439 30.5866V26.0863C164.439 25.2381 165.129 24.5504 165.981 24.5504C166.833 24.5504 167.524 25.2381 167.524 26.0863V30.5866C167.524 34.6194 164.229 37.9 160.179 37.9Z" fill="black"/>
<path d="M132.1 31.8568H130.317C129.438 31.8568 128.724 32.5667 128.724 33.4424V38.5085C128.724 39.3842 129.438 40.0941 130.317 40.0941H132.1C132.979 40.0941 133.692 39.3842 133.692 38.5085V33.4424C133.692 32.5667 132.979 31.8568 132.1 31.8568Z" fill="#FDD800"/>
<path d="M150.418 31.8568H148.635C147.756 31.8568 147.043 32.5667 147.043 33.4424V38.5085C147.043 39.3842 147.756 40.0941 148.635 40.0941H150.418C151.298 40.0941 152.011 39.3842 152.011 38.5085V33.4424C152.011 32.5667 151.298 31.8568 150.418 31.8568Z" fill="#FDD800"/>
<path d="M132.1 41.3208H130.317C128.76 41.3208 127.492 40.0591 127.492 38.5085V33.4424C127.492 31.8918 128.76 30.6301 130.317 30.6301H132.1C133.657 30.6301 134.924 31.8918 134.924 33.4424V38.5085C134.924 40.0591 133.657 41.3208 132.1 41.3208ZM130.317 33.0835C130.118 33.0835 129.957 33.2448 129.957 33.4424V38.5085C129.957 38.7062 130.118 38.8674 130.317 38.8674H132.1C132.298 38.8674 132.46 38.7062 132.46 38.5085V33.4424C132.46 33.2448 132.298 33.0835 132.1 33.0835H130.317Z" fill="black"/>
<path d="M150.418 41.3208H148.636C147.079 41.3208 145.811 40.0591 145.811 38.5085V33.4424C145.811 31.8918 147.079 30.6301 148.636 30.6301H150.418C151.975 30.6301 153.243 31.8918 153.243 33.4424V38.5085C153.243 40.0591 151.975 41.3208 150.418 41.3208ZM148.636 33.0835C148.438 33.0835 148.276 33.2448 148.276 33.4424V38.5085C148.276 38.7062 148.438 38.8674 148.636 38.8674H150.418C150.617 38.8674 150.779 38.7062 150.779 38.5085V33.4424C150.779 33.2448 150.617 33.0835 150.418 33.0835H148.636Z" fill="black"/>
</g>
<path d="M171.976 11.7849L168.7 4.67076" stroke="#FFFA00" stroke-width="2" stroke-linecap="round"/>
<path d="M173.878 6.55286L166.798 9.90262" stroke="#FFFA00" stroke-width="2" stroke-linecap="round"/>
<circle cx="98.4247" cy="41.8248" r="2.93086" transform="rotate(20.3213 98.4247 41.8248)" fill="#FFFA00"/>
<circle cx="108.501" cy="6.33158" r="2.94064" transform="rotate(20.3213 108.501 6.33158)" fill="#0FC8FF"/>
<circle cx="178.11" cy="32.5923" r="3.29297" transform="rotate(20.3213 178.11 32.5923)" fill="#0FC8FF"/>
<path d="M178.724 29.3615C177.559 29.1414 176.378 29.5722 175.622 30.4496C176.819 31.8622 177.469 32.2616 178.086 32.6073C178.076 31.8915 178.089 31.1313 178.724 29.3615Z" fill="#FFFA00"/>
<path d="M181.218 31.5077C179.35 31.8479 178.763 32.2332 178.11 32.621C178.763 32.9859 179.39 33.3116 180.602 34.7397C180.852 34.4503 181.058 34.115 181.198 33.7358C181.475 32.9895 181.462 32.2058 181.218 31.5077Z" fill="#FFFA00"/>
<path d="M175.007 33.6763C175.319 34.5717 176.013 35.3265 176.969 35.6806C177.143 35.7451 177.32 35.7899 177.496 35.8237C178.119 34.0822 178.096 33.3724 178.086 32.6353C177.484 32.9919 176.806 33.35 175.007 33.6763Z" fill="#FFFA00"/>
<circle cx="142.121" cy="64.0182" r="2.37173" transform="rotate(20.3213 142.121 64.0182)" stroke="#FF16D0"/>
<path d="M77.8955 108.131C77.6075 108.131 77.3835 108.056 77.2235 107.907C77.0742 107.747 76.9995 107.523 76.9995 107.235V97.7469C76.9995 97.4589 77.0742 97.2402 77.2235 97.0909C77.3835 96.9309 77.6075 96.8509 77.8955 96.8509H81.7035C82.4822 96.8509 83.1435 96.9682 83.6875 97.2029C84.2422 97.4375 84.6635 97.7735 84.9515 98.2109C85.2502 98.6482 85.3995 99.1762 85.3995 99.7949C85.3995 100.478 85.1968 101.054 84.7915 101.523C84.3862 101.992 83.8368 102.307 83.1435 102.467V102.227C83.9328 102.334 84.5515 102.632 84.9995 103.123C85.4475 103.603 85.6715 104.232 85.6715 105.011C85.6715 106.014 85.3408 106.787 84.6795 107.331C84.0182 107.864 83.0902 108.131 81.8955 108.131H77.8955ZM78.5995 106.851H81.7035C82.5035 106.851 83.0955 106.696 83.4795 106.387C83.8635 106.067 84.0555 105.587 84.0555 104.947C84.0555 104.307 83.8635 103.832 83.4795 103.523C83.0955 103.214 82.5035 103.059 81.7035 103.059H78.5995V106.851ZM78.5995 101.779H81.4475C82.2155 101.779 82.7968 101.624 83.1915 101.315C83.5862 101.006 83.7835 100.552 83.7835 99.9549C83.7835 99.3575 83.5862 98.9042 83.1915 98.5949C82.7968 98.2855 82.2155 98.1309 81.4475 98.1309H78.5995V101.779ZM90.5138 108.275C89.8844 108.275 89.3564 108.158 88.9298 107.923C88.5138 107.688 88.1991 107.342 87.9858 106.883C87.7831 106.414 87.6818 105.827 87.6818 105.123V101.027C87.6818 100.75 87.7511 100.547 87.8898 100.419C88.0284 100.28 88.2258 100.211 88.4818 100.211C88.7378 100.211 88.9351 100.28 89.0738 100.419C89.2231 100.547 89.2978 100.75 89.2978 101.027V105.139C89.2978 105.768 89.4258 106.232 89.6818 106.531C89.9378 106.83 90.3431 106.979 90.8978 106.979C91.5058 106.979 91.9964 106.776 92.3698 106.371C92.7538 105.955 92.9458 105.411 92.9458 104.739V101.027C92.9458 100.75 93.0151 100.547 93.1538 100.419C93.2924 100.28 93.4951 100.211 93.7618 100.211C94.0178 100.211 94.2151 100.28 94.3538 100.419C94.4924 100.547 94.5618 100.75 94.5618 101.027V107.427C94.5618 107.971 94.3004 108.243 93.7778 108.243C93.5324 108.243 93.3404 108.174 93.2018 108.035C93.0631 107.886 92.9938 107.683 92.9938 107.427V106.067L93.2018 106.419C92.9884 107.016 92.6471 107.475 92.1778 107.795C91.7084 108.115 91.1538 108.275 90.5138 108.275ZM99.5751 108.275C99.1058 108.275 98.6205 108.222 98.1191 108.115C97.6285 108.008 97.1751 107.827 96.7591 107.571C96.6205 107.475 96.5245 107.368 96.4711 107.251C96.4178 107.134 96.3965 107.016 96.4071 106.899C96.4285 106.771 96.4765 106.664 96.5511 106.579C96.6365 106.483 96.7378 106.424 96.8551 106.403C96.9831 106.382 97.1165 106.408 97.2551 106.483C97.6711 106.718 98.0711 106.883 98.4551 106.979C98.8391 107.064 99.2178 107.107 99.5911 107.107C100.156 107.107 100.583 107.006 100.871 106.803C101.159 106.6 101.303 106.328 101.303 105.987C101.303 105.71 101.207 105.496 101.015 105.347C100.823 105.187 100.535 105.064 100.151 104.979L98.6311 104.675C97.9698 104.536 97.4685 104.291 97.1271 103.939C96.7858 103.587 96.6151 103.139 96.6151 102.595C96.6151 102.104 96.7485 101.678 97.0151 101.315C97.2818 100.952 97.6551 100.675 98.1351 100.483C98.6151 100.28 99.1698 100.179 99.7991 100.179C100.268 100.179 100.711 100.238 101.127 100.355C101.543 100.472 101.927 100.648 102.279 100.883C102.418 100.958 102.508 101.059 102.551 101.187C102.594 101.304 102.599 101.422 102.567 101.539C102.546 101.656 102.492 101.763 102.407 101.859C102.322 101.944 102.215 101.998 102.087 102.019C101.97 102.03 101.836 101.998 101.687 101.923C101.367 101.72 101.047 101.576 100.727 101.491C100.418 101.406 100.108 101.363 99.7991 101.363C99.2338 101.363 98.8071 101.47 98.5191 101.683C98.2418 101.886 98.1031 102.163 98.1031 102.515C98.1031 102.782 98.1885 103 98.3591 103.171C98.5298 103.342 98.7965 103.464 99.1591 103.539L100.679 103.843C101.372 103.982 101.895 104.216 102.247 104.547C102.61 104.878 102.791 105.326 102.791 105.891C102.791 106.627 102.498 107.208 101.911 107.635C101.324 108.062 100.546 108.275 99.5751 108.275ZM105.389 108.227C105.133 108.227 104.936 108.152 104.797 108.003C104.658 107.843 104.589 107.624 104.589 107.347V101.107C104.589 100.83 104.658 100.616 104.797 100.467C104.936 100.318 105.133 100.243 105.389 100.243C105.645 100.243 105.842 100.318 105.981 100.467C106.13 100.616 106.205 100.83 106.205 101.107V107.347C106.205 107.624 106.136 107.843 105.997 108.003C105.858 108.152 105.656 108.227 105.389 108.227ZM105.389 98.5789C105.069 98.5789 104.818 98.4989 104.637 98.3389C104.466 98.1789 104.381 97.9549 104.381 97.6669C104.381 97.3682 104.466 97.1442 104.637 96.9949C104.818 96.8349 105.069 96.7549 105.389 96.7549C105.709 96.7549 105.954 96.8349 106.125 96.9949C106.306 97.1442 106.397 97.3682 106.397 97.6669C106.397 97.9549 106.306 98.1789 106.125 98.3389C105.954 98.4989 105.709 98.5789 105.389 98.5789ZM109.28 108.243C109.024 108.243 108.826 108.174 108.688 108.035C108.549 107.886 108.48 107.683 108.48 107.427V101.027C108.48 100.76 108.549 100.558 108.688 100.419C108.826 100.28 109.018 100.211 109.264 100.211C109.52 100.211 109.712 100.28 109.84 100.419C109.978 100.558 110.048 100.76 110.048 101.027V102.275L109.872 101.987C110.106 101.39 110.474 100.942 110.976 100.643C111.477 100.334 112.053 100.179 112.704 100.179C113.322 100.179 113.834 100.296 114.24 100.531C114.656 100.755 114.965 101.102 115.168 101.571C115.37 102.03 115.472 102.611 115.472 103.315V107.427C115.472 107.683 115.402 107.886 115.264 108.035C115.125 108.174 114.928 108.243 114.672 108.243C114.405 108.243 114.202 108.174 114.064 108.035C113.925 107.886 113.856 107.683 113.856 107.427V103.411C113.856 102.739 113.722 102.248 113.456 101.939C113.2 101.63 112.794 101.475 112.24 101.475C111.589 101.475 111.066 101.678 110.672 102.083C110.288 102.488 110.096 103.032 110.096 103.715V107.427C110.096 107.971 109.824 108.243 109.28 108.243ZM121.363 108.275C120.509 108.275 119.773 108.115 119.155 107.795C118.547 107.464 118.072 107 117.731 106.403C117.4 105.795 117.235 105.075 117.235 104.243C117.235 103.432 117.4 102.723 117.731 102.115C118.061 101.507 118.515 101.032 119.091 100.691C119.667 100.35 120.323 100.179 121.059 100.179C121.603 100.179 122.088 100.27 122.515 100.451C122.941 100.622 123.304 100.878 123.603 101.219C123.912 101.55 124.141 101.955 124.291 102.435C124.451 102.915 124.531 103.454 124.531 104.051C124.531 104.232 124.477 104.371 124.371 104.467C124.264 104.552 124.104 104.595 123.891 104.595H118.515V103.603H123.443L123.171 103.827C123.171 103.294 123.091 102.84 122.931 102.467C122.781 102.094 122.552 101.811 122.243 101.619C121.944 101.416 121.571 101.315 121.123 101.315C120.621 101.315 120.195 101.432 119.843 101.667C119.501 101.902 119.24 102.227 119.059 102.643C118.877 103.059 118.787 103.544 118.787 104.099V104.195C118.787 105.134 119.005 105.843 119.443 106.323C119.891 106.792 120.536 107.027 121.379 107.027C121.699 107.027 122.035 106.984 122.387 106.899C122.749 106.814 123.091 106.67 123.411 106.467C123.592 106.36 123.752 106.312 123.891 106.323C124.04 106.334 124.157 106.382 124.243 106.467C124.339 106.552 124.397 106.659 124.419 106.787C124.44 106.915 124.419 107.048 124.355 107.187C124.291 107.315 124.179 107.432 124.019 107.539C123.656 107.784 123.235 107.971 122.755 108.099C122.275 108.216 121.811 108.275 121.363 108.275ZM129.028 108.275C128.559 108.275 128.074 108.222 127.572 108.115C127.082 108.008 126.628 107.827 126.212 107.571C126.074 107.475 125.978 107.368 125.924 107.251C125.871 107.134 125.85 107.016 125.86 106.899C125.882 106.771 125.93 106.664 126.004 106.579C126.09 106.483 126.191 106.424 126.308 106.403C126.436 106.382 126.57 106.408 126.708 106.483C127.124 106.718 127.524 106.883 127.908 106.979C128.292 107.064 128.671 107.107 129.044 107.107C129.61 107.107 130.036 107.006 130.324 106.803C130.612 106.6 130.756 106.328 130.756 105.987C130.756 105.71 130.66 105.496 130.468 105.347C130.276 105.187 129.988 105.064 129.604 104.979L128.084 104.675C127.423 104.536 126.922 104.291 126.58 103.939C126.239 103.587 126.068 103.139 126.068 102.595C126.068 102.104 126.202 101.678 126.468 101.315C126.735 100.952 127.108 100.675 127.588 100.483C128.068 100.28 128.623 100.179 129.252 100.179C129.722 100.179 130.164 100.238 130.58 100.355C130.996 100.472 131.38 100.648 131.732 100.883C131.871 100.958 131.962 101.059 132.004 101.187C132.047 101.304 132.052 101.422 132.02 101.539C131.999 101.656 131.946 101.763 131.86 101.859C131.775 101.944 131.668 101.998 131.54 102.019C131.423 102.03 131.29 101.998 131.14 101.923C130.82 101.72 130.5 101.576 130.18 101.491C129.871 101.406 129.562 101.363 129.252 101.363C128.687 101.363 128.26 101.47 127.972 101.683C127.695 101.886 127.556 102.163 127.556 102.515C127.556 102.782 127.642 103 127.812 103.171C127.983 103.342 128.25 103.464 128.612 103.539L130.132 103.843C130.826 103.982 131.348 104.216 131.7 104.547C132.063 104.878 132.244 105.326 132.244 105.891C132.244 106.627 131.951 107.208 131.364 107.635C130.778 108.062 129.999 108.275 129.028 108.275ZM136.778 108.275C136.309 108.275 135.824 108.222 135.322 108.115C134.832 108.008 134.378 107.827 133.962 107.571C133.824 107.475 133.728 107.368 133.674 107.251C133.621 107.134 133.6 107.016 133.61 106.899C133.632 106.771 133.68 106.664 133.754 106.579C133.84 106.483 133.941 106.424 134.058 106.403C134.186 106.382 134.32 106.408 134.458 106.483C134.874 106.718 135.274 106.883 135.658 106.979C136.042 107.064 136.421 107.107 136.794 107.107C137.36 107.107 137.786 107.006 138.074 106.803C138.362 106.6 138.506 106.328 138.506 105.987C138.506 105.71 138.41 105.496 138.218 105.347C138.026 105.187 137.738 105.064 137.354 104.979L135.834 104.675C135.173 104.536 134.672 104.291 134.33 103.939C133.989 103.587 133.818 103.139 133.818 102.595C133.818 102.104 133.952 101.678 134.218 101.315C134.485 100.952 134.858 100.675 135.338 100.483C135.818 100.28 136.373 100.179 137.002 100.179C137.472 100.179 137.914 100.238 138.33 100.355C138.746 100.472 139.13 100.648 139.482 100.883C139.621 100.958 139.712 101.059 139.754 101.187C139.797 101.304 139.802 101.422 139.77 101.539C139.749 101.656 139.696 101.763 139.61 101.859C139.525 101.944 139.418 101.998 139.29 102.019C139.173 102.03 139.04 101.998 138.89 101.923C138.57 101.72 138.25 101.576 137.93 101.491C137.621 101.406 137.312 101.363 137.002 101.363C136.437 101.363 136.01 101.47 135.722 101.683C135.445 101.886 135.306 102.163 135.306 102.515C135.306 102.782 135.392 103 135.562 103.171C135.733 103.342 136 103.464 136.362 103.539L137.882 103.843C138.576 103.982 139.098 104.216 139.45 104.547C139.813 104.878 139.994 105.326 139.994 105.891C139.994 106.627 139.701 107.208 139.114 107.635C138.528 108.062 137.749 108.275 136.778 108.275ZM148.507 108.275C147.963 108.275 147.472 108.168 147.035 107.955C146.608 107.742 146.272 107.454 146.027 107.091C145.782 106.728 145.659 106.318 145.659 105.859C145.659 105.283 145.803 104.83 146.091 104.499C146.39 104.158 146.875 103.918 147.547 103.779C148.23 103.63 149.147 103.555 150.299 103.555H151.051V104.547H150.315C149.547 104.547 148.939 104.584 148.491 104.659C148.043 104.734 147.723 104.862 147.531 105.043C147.35 105.214 147.259 105.454 147.259 105.763C147.259 106.168 147.398 106.499 147.675 106.755C147.952 107 148.336 107.123 148.827 107.123C149.222 107.123 149.568 107.032 149.867 106.851C150.166 106.659 150.4 106.403 150.571 106.083C150.752 105.763 150.843 105.395 150.843 104.979V103.139C150.843 102.531 150.715 102.094 150.459 101.827C150.203 101.56 149.782 101.427 149.195 101.427C148.854 101.427 148.496 101.47 148.123 101.555C147.76 101.64 147.382 101.784 146.987 101.987C146.806 102.072 146.651 102.099 146.523 102.067C146.395 102.035 146.294 101.966 146.219 101.859C146.144 101.742 146.102 101.619 146.091 101.491C146.091 101.352 146.123 101.219 146.187 101.091C146.262 100.963 146.384 100.867 146.555 100.803C147.024 100.579 147.488 100.419 147.947 100.323C148.406 100.227 148.838 100.179 149.243 100.179C149.958 100.179 150.544 100.291 151.003 100.515C151.472 100.739 151.819 101.08 152.043 101.539C152.267 101.998 152.379 102.59 152.379 103.315V107.427C152.379 107.683 152.315 107.886 152.187 108.035C152.059 108.174 151.872 108.243 151.627 108.243C151.392 108.243 151.206 108.174 151.067 108.035C150.928 107.886 150.859 107.683 150.859 107.427V106.387H151.003C150.918 106.782 150.758 107.123 150.523 107.411C150.299 107.688 150.016 107.902 149.675 108.051C149.334 108.2 148.944 108.275 148.507 108.275ZM158.045 108.275C157.245 108.275 156.551 108.11 155.965 107.779C155.389 107.438 154.941 106.963 154.621 106.355C154.301 105.736 154.141 105.011 154.141 104.179C154.141 103.56 154.231 103.006 154.413 102.515C154.594 102.014 154.85 101.592 155.181 101.251C155.522 100.91 155.933 100.648 156.413 100.467C156.903 100.275 157.447 100.179 158.045 100.179C158.418 100.179 158.807 100.238 159.213 100.355C159.629 100.462 160.013 100.643 160.365 100.899C160.503 100.984 160.589 101.091 160.621 101.219C160.663 101.336 160.669 101.459 160.637 101.587C160.615 101.715 160.557 101.827 160.461 101.923C160.375 102.008 160.269 102.062 160.141 102.083C160.013 102.094 159.874 102.056 159.725 101.971C159.469 101.79 159.207 101.662 158.941 101.587C158.674 101.502 158.418 101.459 158.173 101.459C157.789 101.459 157.447 101.523 157.149 101.651C156.861 101.768 156.615 101.944 156.413 102.179C156.21 102.403 156.055 102.686 155.949 103.027C155.853 103.368 155.805 103.758 155.805 104.195C155.805 105.07 156.007 105.758 156.413 106.259C156.829 106.75 157.415 106.995 158.173 106.995C158.418 106.995 158.674 106.958 158.941 106.883C159.207 106.808 159.469 106.68 159.725 106.499C159.874 106.414 160.013 106.382 160.141 106.403C160.269 106.424 160.37 106.483 160.445 106.579C160.53 106.664 160.583 106.771 160.605 106.899C160.637 107.016 160.631 107.139 160.589 107.267C160.546 107.395 160.455 107.502 160.317 107.587C159.975 107.832 159.602 108.008 159.197 108.115C158.802 108.222 158.418 108.275 158.045 108.275ZM165.357 108.275C164.557 108.275 163.864 108.11 163.277 107.779C162.701 107.438 162.253 106.963 161.933 106.355C161.613 105.736 161.453 105.011 161.453 104.179C161.453 103.56 161.544 103.006 161.725 102.515C161.907 102.014 162.163 101.592 162.493 101.251C162.835 100.91 163.245 100.648 163.725 100.467C164.216 100.275 164.76 100.179 165.357 100.179C165.731 100.179 166.12 100.238 166.525 100.355C166.941 100.462 167.325 100.643 167.677 100.899C167.816 100.984 167.901 101.091 167.933 101.219C167.976 101.336 167.981 101.459 167.949 101.587C167.928 101.715 167.869 101.827 167.773 101.923C167.688 102.008 167.581 102.062 167.453 102.083C167.325 102.094 167.187 102.056 167.037 101.971C166.781 101.79 166.52 101.662 166.253 101.587C165.987 101.502 165.731 101.459 165.485 101.459C165.101 101.459 164.76 101.523 164.461 101.651C164.173 101.768 163.928 101.944 163.725 102.179C163.523 102.403 163.368 102.686 163.261 103.027C163.165 103.368 163.117 103.758 163.117 104.195C163.117 105.07 163.32 105.758 163.725 106.259C164.141 106.75 164.728 106.995 165.485 106.995C165.731 106.995 165.987 106.958 166.253 106.883C166.52 106.808 166.781 106.68 167.037 106.499C167.187 106.414 167.325 106.382 167.453 106.403C167.581 106.424 167.683 106.483 167.757 106.579C167.843 106.664 167.896 106.771 167.917 106.899C167.949 107.016 167.944 107.139 167.901 107.267C167.859 107.395 167.768 107.502 167.629 107.587C167.288 107.832 166.915 108.008 166.509 108.115C166.115 108.222 165.731 108.275 165.357 108.275ZM172.622 108.275C171.832 108.275 171.15 108.11 170.574 107.779C170.008 107.448 169.566 106.979 169.246 106.371C168.926 105.763 168.766 105.048 168.766 104.227C168.766 103.598 168.856 103.038 169.038 102.547C169.219 102.056 169.475 101.635 169.806 101.283C170.147 100.92 170.552 100.648 171.022 100.467C171.502 100.275 172.035 100.179 172.622 100.179C173.4 100.179 174.072 100.344 174.638 100.675C175.214 101.006 175.662 101.475 175.982 102.083C176.302 102.68 176.462 103.395 176.462 104.227C176.462 104.846 176.371 105.406 176.19 105.907C176.008 106.408 175.747 106.835 175.406 107.187C175.075 107.539 174.67 107.811 174.19 108.003C173.72 108.184 173.198 108.275 172.622 108.275ZM172.622 107.027C173.059 107.027 173.443 106.92 173.774 106.707C174.104 106.494 174.36 106.179 174.542 105.763C174.734 105.347 174.83 104.835 174.83 104.227C174.83 103.31 174.627 102.616 174.222 102.147C173.816 101.678 173.283 101.443 172.622 101.443C172.174 101.443 171.784 101.55 171.454 101.763C171.123 101.966 170.862 102.275 170.67 102.691C170.488 103.107 170.398 103.619 170.398 104.227C170.398 105.134 170.6 105.827 171.006 106.307C171.411 106.787 171.95 107.027 172.622 107.027ZM181.061 108.275C180.431 108.275 179.903 108.158 179.477 107.923C179.061 107.688 178.746 107.342 178.533 106.883C178.33 106.414 178.229 105.827 178.229 105.123V101.027C178.229 100.75 178.298 100.547 178.437 100.419C178.575 100.28 178.773 100.211 179.029 100.211C179.285 100.211 179.482 100.28 179.621 100.419C179.77 100.547 179.845 100.75 179.845 101.027V105.139C179.845 105.768 179.973 106.232 180.229 106.531C180.485 106.83 180.89 106.979 181.445 106.979C182.053 106.979 182.543 106.776 182.917 106.371C183.301 105.955 183.493 105.411 183.493 104.739V101.027C183.493 100.75 183.562 100.547 183.701 100.419C183.839 100.28 184.042 100.211 184.309 100.211C184.565 100.211 184.762 100.28 184.901 100.419C185.039 100.547 185.109 100.75 185.109 101.027V107.427C185.109 107.971 184.847 108.243 184.325 108.243C184.079 108.243 183.887 108.174 183.749 108.035C183.61 107.886 183.541 107.683 183.541 107.427V106.067L183.749 106.419C183.535 107.016 183.194 107.475 182.725 107.795C182.255 108.115 181.701 108.275 181.061 108.275ZM188.186 108.243C187.93 108.243 187.733 108.174 187.594 108.035C187.455 107.886 187.386 107.683 187.386 107.427V101.027C187.386 100.76 187.455 100.558 187.594 100.419C187.733 100.28 187.925 100.211 188.17 100.211C188.426 100.211 188.618 100.28 188.746 100.419C188.885 100.558 188.954 100.76 188.954 101.027V102.275L188.778 101.987C189.013 101.39 189.381 100.942 189.882 100.643C190.383 100.334 190.959 100.179 191.61 100.179C192.229 100.179 192.741 100.296 193.146 100.531C193.562 100.755 193.871 101.102 194.074 101.571C194.277 102.03 194.378 102.611 194.378 103.315V107.427C194.378 107.683 194.309 107.886 194.17 108.035C194.031 108.174 193.834 108.243 193.578 108.243C193.311 108.243 193.109 108.174 192.97 108.035C192.831 107.886 192.762 107.683 192.762 107.427V103.411C192.762 102.739 192.629 102.248 192.362 101.939C192.106 101.63 191.701 101.475 191.146 101.475C190.495 101.475 189.973 101.678 189.578 102.083C189.194 102.488 189.002 103.032 189.002 103.715V107.427C189.002 107.971 188.73 108.243 188.186 108.243ZM199.933 108.275C199.293 108.275 198.754 108.163 198.317 107.939C197.879 107.715 197.554 107.384 197.341 106.947C197.127 106.51 197.021 105.976 197.021 105.347V101.571H196.061C195.847 101.571 195.682 101.518 195.565 101.411C195.447 101.294 195.389 101.139 195.389 100.947C195.389 100.744 195.447 100.59 195.565 100.483C195.682 100.376 195.847 100.323 196.061 100.323H197.021V98.6749C197.021 98.4082 197.09 98.2055 197.229 98.0669C197.378 97.9282 197.581 97.8589 197.837 97.8589C198.093 97.8589 198.29 97.9282 198.429 98.0669C198.567 98.2055 198.637 98.4082 198.637 98.6749V100.323H200.509C200.722 100.323 200.887 100.376 201.005 100.483C201.122 100.59 201.181 100.744 201.181 100.947C201.181 101.139 201.122 101.294 201.005 101.411C200.887 101.518 200.722 101.571 200.509 101.571H198.637V105.219C198.637 105.784 198.754 106.211 198.989 106.499C199.234 106.787 199.629 106.931 200.173 106.931C200.365 106.931 200.53 106.915 200.669 106.883C200.818 106.84 200.941 106.814 201.037 106.803C201.154 106.803 201.25 106.846 201.325 106.931C201.399 107.006 201.437 107.155 201.437 107.379C201.437 107.539 201.405 107.688 201.341 107.827C201.287 107.966 201.186 108.056 201.037 108.099C200.909 108.142 200.733 108.179 200.509 108.211C200.295 108.254 200.103 108.275 199.933 108.275Z" fill="#191C1E"/>
<path d="M21.2656 140.229C21.0696 140.229 20.9156 140.178 20.8036 140.075C20.701 139.963 20.6496 139.804 20.6496 139.599V130.891C20.6496 130.686 20.701 130.532 20.8036 130.429C20.9156 130.317 21.0743 130.261 21.2796 130.261H26.3616C26.5203 130.261 26.6416 130.303 26.7256 130.387C26.8096 130.471 26.8516 130.588 26.8516 130.737C26.8516 130.896 26.8096 131.017 26.7256 131.101C26.6416 131.185 26.5203 131.227 26.3616 131.227H21.7976V134.671H26.0676C26.2263 134.671 26.3476 134.713 26.4316 134.797C26.525 134.881 26.5716 134.998 26.5716 135.147C26.5716 135.306 26.525 135.427 26.4316 135.511C26.3476 135.595 26.2263 135.637 26.0676 135.637H21.7976V139.599C21.7976 140.019 21.6203 140.229 21.2656 140.229ZM30.7338 140.257C30.0711 140.257 29.4971 140.112 29.0118 139.823C28.5265 139.534 28.1485 139.128 27.8778 138.605C27.6165 138.073 27.4858 137.448 27.4858 136.729C27.4858 136.188 27.5605 135.702 27.7098 135.273C27.8591 134.834 28.0785 134.461 28.3678 134.153C28.6571 133.845 28.9978 133.612 29.3898 133.453C29.7911 133.285 30.2391 133.201 30.7338 133.201C31.3965 133.201 31.9705 133.346 32.4558 133.635C32.9411 133.924 33.3145 134.335 33.5758 134.867C33.8465 135.39 33.9818 136.01 33.9818 136.729C33.9818 137.27 33.9071 137.756 33.7578 138.185C33.6085 138.614 33.3891 138.988 33.0998 139.305C32.8105 139.613 32.4651 139.851 32.0638 140.019C31.6718 140.178 31.2285 140.257 30.7338 140.257ZM30.7338 139.347C31.1538 139.347 31.5225 139.244 31.8398 139.039C32.1571 138.834 32.3998 138.535 32.5678 138.143C32.7451 137.751 32.8338 137.28 32.8338 136.729C32.8338 135.88 32.6425 135.231 32.2598 134.783C31.8865 134.335 31.3778 134.111 30.7338 134.111C30.3045 134.111 29.9311 134.214 29.6138 134.419C29.3058 134.615 29.0631 134.909 28.8858 135.301C28.7178 135.684 28.6338 136.16 28.6338 136.729C28.6338 137.569 28.8251 138.218 29.2078 138.675C29.5905 139.123 30.0991 139.347 30.7338 139.347ZM36.2591 140.229C36.0724 140.229 35.9278 140.178 35.8251 140.075C35.7318 139.972 35.6851 139.828 35.6851 139.641V133.803C35.6851 133.616 35.7318 133.476 35.8251 133.383C35.9184 133.28 36.0538 133.229 36.2311 133.229C36.4084 133.229 36.5438 133.28 36.6371 133.383C36.7398 133.476 36.7911 133.616 36.7911 133.803V134.937H36.6511C36.8004 134.386 37.0851 133.962 37.5051 133.663C37.9251 133.364 38.4431 133.206 39.0591 133.187C39.1991 133.178 39.3111 133.21 39.3951 133.285C39.4791 133.35 39.5258 133.467 39.5351 133.635C39.5444 133.794 39.5071 133.92 39.4231 134.013C39.3391 134.106 39.2084 134.162 39.0311 134.181L38.8071 134.209C38.1724 134.265 37.6824 134.47 37.3371 134.825C37.0011 135.17 36.8331 135.646 36.8331 136.253V139.641C36.8331 139.828 36.7818 139.972 36.6791 140.075C36.5858 140.178 36.4458 140.229 36.2591 140.229ZM47.042 140.257C46.51 140.257 46.062 140.164 45.698 139.977C45.3434 139.781 45.0774 139.501 44.9 139.137C44.7227 138.764 44.634 138.311 44.634 137.779V134.209H43.696C43.5374 134.209 43.416 134.172 43.332 134.097C43.248 134.013 43.206 133.901 43.206 133.761C43.206 133.621 43.248 133.514 43.332 133.439C43.416 133.364 43.5374 133.327 43.696 133.327H44.634V131.717C44.634 131.53 44.6854 131.39 44.788 131.297C44.8907 131.194 45.0307 131.143 45.208 131.143C45.3854 131.143 45.5207 131.194 45.614 131.297C45.7167 131.39 45.768 131.53 45.768 131.717V133.327H47.532C47.6907 133.327 47.812 133.364 47.896 133.439C47.98 133.514 48.022 133.621 48.022 133.761C48.022 133.901 47.98 134.013 47.896 134.097C47.812 134.172 47.6907 134.209 47.532 134.209H45.768V137.667C45.768 138.199 45.88 138.605 46.104 138.885C46.328 139.156 46.692 139.291 47.196 139.291C47.3734 139.291 47.5227 139.272 47.644 139.235C47.7747 139.198 47.882 139.179 47.966 139.179C48.05 139.17 48.12 139.198 48.176 139.263C48.232 139.328 48.26 139.44 48.26 139.599C48.26 139.711 48.2367 139.814 48.19 139.907C48.1527 140 48.0827 140.066 47.98 140.103C47.868 140.14 47.7187 140.173 47.532 140.201C47.3547 140.238 47.1914 140.257 47.042 140.257ZM49.8486 140.229C49.6619 140.229 49.5219 140.178 49.4286 140.075C49.3353 139.972 49.2886 139.828 49.2886 139.641V130.737C49.2886 130.55 49.3353 130.41 49.4286 130.317C49.5219 130.214 49.6619 130.163 49.8486 130.163C50.0259 130.163 50.1659 130.214 50.2686 130.317C50.3713 130.41 50.4226 130.55 50.4226 130.737V134.839H50.2406C50.4366 134.298 50.7539 133.892 51.1926 133.621C51.6406 133.341 52.1539 133.201 52.7326 133.201C53.2739 133.201 53.7219 133.299 54.0766 133.495C54.4406 133.691 54.7113 133.99 54.8886 134.391C55.0659 134.783 55.1546 135.282 55.1546 135.889V139.641C55.1546 139.828 55.1033 139.972 55.0006 140.075C54.9073 140.178 54.7719 140.229 54.5946 140.229C54.4079 140.229 54.2633 140.178 54.1606 140.075C54.0673 139.972 54.0206 139.828 54.0206 139.641V135.959C54.0206 135.324 53.8946 134.862 53.6426 134.573C53.3999 134.274 53.0079 134.125 52.4666 134.125C51.8413 134.125 51.3419 134.321 50.9686 134.713C50.6046 135.096 50.4226 135.609 50.4226 136.253V139.641C50.4226 140.033 50.2313 140.229 49.8486 140.229ZM60.3116 140.257C59.593 140.257 58.9723 140.117 58.4496 139.837C57.9363 139.548 57.535 139.142 57.2456 138.619C56.9656 138.096 56.8256 137.471 56.8256 136.743C56.8256 136.034 56.9656 135.418 57.2456 134.895C57.5256 134.363 57.9083 133.948 58.3936 133.649C58.8883 133.35 59.4576 133.201 60.1016 133.201C60.559 133.201 60.9696 133.28 61.3336 133.439C61.6976 133.588 62.0056 133.808 62.2576 134.097C62.519 134.386 62.715 134.736 62.8456 135.147C62.9856 135.558 63.0556 136.02 63.0556 136.533C63.0556 136.682 63.0136 136.794 62.9296 136.869C62.8456 136.934 62.7243 136.967 62.5656 136.967H57.6936V136.225H62.2996L62.0756 136.407C62.0756 135.903 62.001 135.478 61.8516 135.133C61.7023 134.778 61.483 134.508 61.1936 134.321C60.9136 134.134 60.559 134.041 60.1296 134.041C59.6536 134.041 59.2476 134.153 58.9116 134.377C58.585 134.592 58.3376 134.895 58.1696 135.287C58.0016 135.67 57.9176 136.118 57.9176 136.631V136.715C57.9176 137.574 58.123 138.227 58.5336 138.675C58.9536 139.123 59.5463 139.347 60.3116 139.347C60.629 139.347 60.9416 139.305 61.2496 139.221C61.567 139.137 61.875 138.997 62.1736 138.801C62.3043 138.717 62.421 138.68 62.5236 138.689C62.6356 138.689 62.7243 138.722 62.7896 138.787C62.855 138.843 62.897 138.918 62.9156 139.011C62.9436 139.095 62.9343 139.188 62.8876 139.291C62.8503 139.394 62.771 139.482 62.6496 139.557C62.3416 139.781 61.9776 139.954 61.5576 140.075C61.1376 140.196 60.7223 140.257 60.3116 140.257ZM70.6022 140.257C70.1822 140.257 69.7575 140.206 69.3282 140.103C68.9082 140 68.5162 139.823 68.1522 139.571C68.0589 139.506 67.9935 139.431 67.9562 139.347C67.9189 139.254 67.9049 139.165 67.9142 139.081C67.9329 138.988 67.9702 138.908 68.0262 138.843C68.0915 138.778 68.1662 138.74 68.2502 138.731C68.3435 138.712 68.4462 138.731 68.5582 138.787C68.9222 139.011 69.2722 139.17 69.6082 139.263C69.9535 139.347 70.2942 139.389 70.6302 139.389C71.1622 139.389 71.5635 139.291 71.8342 139.095C72.1049 138.899 72.2402 138.633 72.2402 138.297C72.2402 138.036 72.1515 137.83 71.9742 137.681C71.7969 137.522 71.5169 137.401 71.1342 137.317L69.8602 137.037C69.2722 136.916 68.8335 136.706 68.5442 136.407C68.2642 136.108 68.1242 135.721 68.1242 135.245C68.1242 134.825 68.2315 134.466 68.4462 134.167C68.6702 133.859 68.9829 133.621 69.3842 133.453C69.7855 133.285 70.2522 133.201 70.7842 133.201C71.1949 133.201 71.5822 133.257 71.9462 133.369C72.3195 133.472 72.6555 133.64 72.9542 133.873C73.0475 133.938 73.1082 134.018 73.1362 134.111C73.1735 134.195 73.1782 134.284 73.1502 134.377C73.1315 134.461 73.0895 134.536 73.0242 134.601C72.9589 134.657 72.8795 134.69 72.7862 134.699C72.6929 134.708 72.5949 134.68 72.4922 134.615C72.2122 134.428 71.9275 134.293 71.6382 134.209C71.3489 134.116 71.0642 134.069 70.7842 134.069C70.2615 134.069 69.8649 134.172 69.5942 134.377C69.3235 134.582 69.1882 134.853 69.1882 135.189C69.1882 135.45 69.2722 135.665 69.4402 135.833C69.6082 136.001 69.8695 136.122 70.2242 136.197L71.4982 136.463C72.1049 136.594 72.5575 136.804 72.8562 137.093C73.1642 137.373 73.3182 137.756 73.3182 138.241C73.3182 138.857 73.0709 139.347 72.5762 139.711C72.0815 140.075 71.4235 140.257 70.6022 140.257ZM77.1884 140.257C76.7218 140.257 76.3018 140.168 75.9284 139.991C75.5644 139.804 75.2751 139.552 75.0604 139.235C74.8458 138.918 74.7384 138.563 74.7384 138.171C74.7384 137.667 74.8644 137.27 75.1164 136.981C75.3778 136.692 75.8024 136.486 76.3904 136.365C76.9878 136.244 77.7998 136.183 78.8264 136.183H79.4564V136.925H78.8404C78.0844 136.925 77.4871 136.962 77.0484 137.037C76.6191 137.102 76.3158 137.219 76.1384 137.387C75.9704 137.555 75.8864 137.793 75.8864 138.101C75.8864 138.484 76.0171 138.796 76.2784 139.039C76.5491 139.282 76.9131 139.403 77.3704 139.403C77.7438 139.403 78.0704 139.314 78.3504 139.137C78.6398 138.96 78.8638 138.717 79.0224 138.409C79.1904 138.101 79.2744 137.746 79.2744 137.345V135.749C79.2744 135.17 79.1578 134.755 78.9244 134.503C78.6911 134.242 78.3084 134.111 77.7764 134.111C77.4498 134.111 77.1231 134.153 76.7964 134.237C76.4698 134.321 76.1244 134.456 75.7604 134.643C75.6298 134.708 75.5178 134.732 75.4244 134.713C75.3311 134.685 75.2564 134.634 75.2004 134.559C75.1444 134.484 75.1118 134.4 75.1024 134.307C75.0931 134.204 75.1118 134.106 75.1584 134.013C75.2144 133.92 75.2984 133.845 75.4104 133.789C75.8211 133.584 76.2271 133.434 76.6284 133.341C77.0298 133.248 77.4124 133.201 77.7764 133.201C78.3644 133.201 78.8498 133.299 79.2324 133.495C79.6151 133.682 79.8998 133.971 80.0864 134.363C80.2731 134.746 80.3664 135.24 80.3664 135.847V139.641C80.3664 139.828 80.3198 139.972 80.2264 140.075C80.1424 140.178 80.0164 140.229 79.8484 140.229C79.6711 140.229 79.5358 140.178 79.4424 140.075C79.3491 139.972 79.3024 139.828 79.3024 139.641V138.549H79.4284C79.3538 138.904 79.2091 139.207 78.9944 139.459C78.7891 139.711 78.5324 139.907 78.2244 140.047C77.9164 140.187 77.5711 140.257 77.1884 140.257ZM84.5423 140.257C83.8703 140.257 83.3569 140.052 83.0023 139.641C82.6476 139.23 82.4703 138.642 82.4703 137.877V130.737C82.4703 130.55 82.5169 130.41 82.6103 130.317C82.7036 130.214 82.8436 130.163 83.0303 130.163C83.2076 130.163 83.3476 130.214 83.4503 130.317C83.5529 130.41 83.6043 130.55 83.6043 130.737V137.793C83.6043 138.297 83.7023 138.675 83.8983 138.927C84.1036 139.17 84.4023 139.291 84.7943 139.291C84.8783 139.291 84.9529 139.286 85.0183 139.277C85.0836 139.268 85.1489 139.263 85.2143 139.263C85.3169 139.254 85.3869 139.277 85.4243 139.333C85.4709 139.389 85.4943 139.501 85.4943 139.669C85.4943 139.837 85.4569 139.963 85.3823 140.047C85.3076 140.131 85.1863 140.187 85.0183 140.215C84.9436 140.224 84.8643 140.234 84.7803 140.243C84.6963 140.252 84.6169 140.257 84.5423 140.257ZM89.6105 140.257C88.8918 140.257 88.2711 140.117 87.7485 139.837C87.2351 139.548 86.8338 139.142 86.5445 138.619C86.2645 138.096 86.1245 137.471 86.1245 136.743C86.1245 136.034 86.2645 135.418 86.5445 134.895C86.8245 134.363 87.2071 133.948 87.6925 133.649C88.1871 133.35 88.7565 133.201 89.4005 133.201C89.8578 133.201 90.2685 133.28 90.6325 133.439C90.9965 133.588 91.3045 133.808 91.5565 134.097C91.8178 134.386 92.0138 134.736 92.1445 135.147C92.2845 135.558 92.3545 136.02 92.3545 136.533C92.3545 136.682 92.3125 136.794 92.2285 136.869C92.1445 136.934 92.0231 136.967 91.8645 136.967H86.9925V136.225H91.5985L91.3745 136.407C91.3745 135.903 91.2998 135.478 91.1505 135.133C91.0011 134.778 90.7818 134.508 90.4925 134.321C90.2125 134.134 89.8578 134.041 89.4285 134.041C88.9525 134.041 88.5465 134.153 88.2105 134.377C87.8838 134.592 87.6365 134.895 87.4685 135.287C87.3005 135.67 87.2165 136.118 87.2165 136.631V136.715C87.2165 137.574 87.4218 138.227 87.8325 138.675C88.2525 139.123 88.8451 139.347 89.6105 139.347C89.9278 139.347 90.2405 139.305 90.5485 139.221C90.8658 139.137 91.1738 138.997 91.4725 138.801C91.6031 138.717 91.7198 138.68 91.8225 138.689C91.9345 138.689 92.0231 138.722 92.0885 138.787C92.1538 138.843 92.1958 138.918 92.2145 139.011C92.2425 139.095 92.2331 139.188 92.1865 139.291C92.1491 139.394 92.0698 139.482 91.9485 139.557C91.6405 139.781 91.2765 139.954 90.8565 140.075C90.4365 140.196 90.0211 140.257 89.6105 140.257ZM100.433 140.257C99.7703 140.257 99.1963 140.112 98.711 139.823C98.2257 139.534 97.8477 139.128 97.577 138.605C97.3157 138.073 97.185 137.448 97.185 136.729C97.185 136.188 97.2597 135.702 97.409 135.273C97.5583 134.834 97.7777 134.461 98.067 134.153C98.3563 133.845 98.697 133.612 99.089 133.453C99.4903 133.285 99.9383 133.201 100.433 133.201C101.096 133.201 101.67 133.346 102.155 133.635C102.64 133.924 103.014 134.335 103.275 134.867C103.546 135.39 103.681 136.01 103.681 136.729C103.681 137.27 103.606 137.756 103.457 138.185C103.308 138.614 103.088 138.988 102.799 139.305C102.51 139.613 102.164 139.851 101.763 140.019C101.371 140.178 100.928 140.257 100.433 140.257ZM100.433 139.347C100.853 139.347 101.222 139.244 101.539 139.039C101.856 138.834 102.099 138.535 102.267 138.143C102.444 137.751 102.533 137.28 102.533 136.729C102.533 135.88 102.342 135.231 101.959 134.783C101.586 134.335 101.077 134.111 100.433 134.111C100.004 134.111 99.6303 134.214 99.313 134.419C99.005 134.615 98.7623 134.909 98.585 135.301C98.417 135.684 98.333 136.16 98.333 136.729C98.333 137.569 98.5243 138.218 98.907 138.675C99.2897 139.123 99.7983 139.347 100.433 139.347ZM106.24 140.229C106.063 140.229 105.923 140.178 105.82 140.075C105.727 139.972 105.68 139.828 105.68 139.641V134.209H104.784C104.635 134.209 104.513 134.172 104.42 134.097C104.336 134.013 104.294 133.901 104.294 133.761C104.294 133.621 104.336 133.514 104.42 133.439C104.513 133.364 104.635 133.327 104.784 133.327H105.988L105.68 133.621V133.089C105.68 132.202 105.895 131.526 106.324 131.059C106.763 130.592 107.402 130.322 108.242 130.247L108.648 130.205C108.779 130.196 108.881 130.219 108.956 130.275C109.04 130.331 109.091 130.401 109.11 130.485C109.138 130.569 109.143 130.658 109.124 130.751C109.105 130.835 109.063 130.91 108.998 130.975C108.933 131.04 108.853 131.078 108.76 131.087L108.438 131.115C107.869 131.162 107.453 131.334 107.192 131.633C106.94 131.932 106.814 132.37 106.814 132.949V133.537L106.646 133.327H108.326C108.485 133.327 108.606 133.364 108.69 133.439C108.774 133.514 108.816 133.621 108.816 133.761C108.816 133.901 108.774 134.013 108.69 134.097C108.606 134.172 108.485 134.209 108.326 134.209H106.814V139.641C106.814 140.033 106.623 140.229 106.24 140.229ZM116.471 140.257C115.79 140.257 115.202 140.108 114.707 139.809C114.213 139.51 113.83 139.095 113.559 138.563C113.298 138.022 113.167 137.396 113.167 136.687C113.167 136.146 113.242 135.66 113.391 135.231C113.541 134.802 113.76 134.438 114.049 134.139C114.339 133.831 114.684 133.598 115.085 133.439C115.496 133.28 115.958 133.201 116.471 133.201C116.807 133.201 117.157 133.252 117.521 133.355C117.885 133.458 118.217 133.635 118.515 133.887C118.609 133.952 118.669 134.032 118.697 134.125C118.725 134.218 118.725 134.312 118.697 134.405C118.669 134.489 118.623 134.564 118.557 134.629C118.492 134.685 118.408 134.718 118.305 134.727C118.212 134.736 118.114 134.704 118.011 134.629C117.769 134.442 117.521 134.312 117.269 134.237C117.017 134.162 116.775 134.125 116.541 134.125C116.177 134.125 115.86 134.186 115.589 134.307C115.319 134.419 115.09 134.582 114.903 134.797C114.717 135.012 114.572 135.278 114.469 135.595C114.376 135.912 114.329 136.281 114.329 136.701C114.329 137.513 114.521 138.157 114.903 138.633C115.286 139.1 115.832 139.333 116.541 139.333C116.775 139.333 117.013 139.296 117.255 139.221C117.507 139.146 117.759 139.016 118.011 138.829C118.114 138.754 118.212 138.722 118.305 138.731C118.399 138.74 118.478 138.778 118.543 138.843C118.609 138.899 118.651 138.974 118.669 139.067C118.697 139.16 118.697 139.254 118.669 139.347C118.641 139.431 118.581 139.506 118.487 139.571C118.189 139.814 117.862 139.991 117.507 140.103C117.153 140.206 116.807 140.257 116.471 140.257ZM122.14 140.257C121.468 140.257 120.955 140.052 120.6 139.641C120.245 139.23 120.068 138.642 120.068 137.877V130.737C120.068 130.55 120.115 130.41 120.208 130.317C120.301 130.214 120.441 130.163 120.628 130.163C120.805 130.163 120.945 130.214 121.048 130.317C121.151 130.41 121.202 130.55 121.202 130.737V137.793C121.202 138.297 121.3 138.675 121.496 138.927C121.701 139.17 122 139.291 122.392 139.291C122.476 139.291 122.551 139.286 122.616 139.277C122.681 139.268 122.747 139.263 122.812 139.263C122.915 139.254 122.985 139.277 123.022 139.333C123.069 139.389 123.092 139.501 123.092 139.669C123.092 139.837 123.055 139.963 122.98 140.047C122.905 140.131 122.784 140.187 122.616 140.215C122.541 140.224 122.462 140.234 122.378 140.243C122.294 140.252 122.215 140.257 122.14 140.257ZM126.97 140.257C126.307 140.257 125.733 140.112 125.248 139.823C124.763 139.534 124.385 139.128 124.114 138.605C123.853 138.073 123.722 137.448 123.722 136.729C123.722 136.188 123.797 135.702 123.946 135.273C124.095 134.834 124.315 134.461 124.604 134.153C124.893 133.845 125.234 133.612 125.626 133.453C126.027 133.285 126.475 133.201 126.97 133.201C127.633 133.201 128.207 133.346 128.692 133.635C129.177 133.924 129.551 134.335 129.812 134.867C130.083 135.39 130.218 136.01 130.218 136.729C130.218 137.27 130.143 137.756 129.994 138.185C129.845 138.614 129.625 138.988 129.336 139.305C129.047 139.613 128.701 139.851 128.3 140.019C127.908 140.178 127.465 140.257 126.97 140.257ZM126.97 139.347C127.39 139.347 127.759 139.244 128.076 139.039C128.393 138.834 128.636 138.535 128.804 138.143C128.981 137.751 129.07 137.28 129.07 136.729C129.07 135.88 128.879 135.231 128.496 134.783C128.123 134.335 127.614 134.111 126.97 134.111C126.541 134.111 126.167 134.214 125.85 134.419C125.542 134.615 125.299 134.909 125.122 135.301C124.954 135.684 124.87 136.16 124.87 136.729C124.87 137.569 125.061 138.218 125.444 138.675C125.827 139.123 126.335 139.347 126.97 139.347ZM134.583 140.257C134.051 140.257 133.603 140.164 133.239 139.977C132.884 139.781 132.618 139.501 132.441 139.137C132.264 138.764 132.175 138.311 132.175 137.779V134.209H131.237C131.078 134.209 130.957 134.172 130.873 134.097C130.789 134.013 130.747 133.901 130.747 133.761C130.747 133.621 130.789 133.514 130.873 133.439C130.957 133.364 131.078 133.327 131.237 133.327H132.175V131.717C132.175 131.53 132.226 131.39 132.329 131.297C132.432 131.194 132.572 131.143 132.749 131.143C132.926 131.143 133.062 131.194 133.155 131.297C133.258 131.39 133.309 131.53 133.309 131.717V133.327H135.073C135.232 133.327 135.353 133.364 135.437 133.439C135.521 133.514 135.563 133.621 135.563 133.761C135.563 133.901 135.521 134.013 135.437 134.097C135.353 134.172 135.232 134.209 135.073 134.209H133.309V137.667C133.309 138.199 133.421 138.605 133.645 138.885C133.869 139.156 134.233 139.291 134.737 139.291C134.914 139.291 135.064 139.272 135.185 139.235C135.316 139.198 135.423 139.179 135.507 139.179C135.591 139.17 135.661 139.198 135.717 139.263C135.773 139.328 135.801 139.44 135.801 139.599C135.801 139.711 135.778 139.814 135.731 139.907C135.694 140 135.624 140.066 135.521 140.103C135.409 140.14 135.26 140.173 135.073 140.201C134.896 140.238 134.732 140.257 134.583 140.257ZM137.39 140.229C137.203 140.229 137.063 140.178 136.97 140.075C136.876 139.972 136.83 139.828 136.83 139.641V130.737C136.83 130.55 136.876 130.41 136.97 130.317C137.063 130.214 137.203 130.163 137.39 130.163C137.567 130.163 137.707 130.214 137.81 130.317C137.912 130.41 137.964 130.55 137.964 130.737V134.839H137.782C137.978 134.298 138.295 133.892 138.734 133.621C139.182 133.341 139.695 133.201 140.274 133.201C140.815 133.201 141.263 133.299 141.618 133.495C141.982 133.691 142.252 133.99 142.43 134.391C142.607 134.783 142.696 135.282 142.696 135.889V139.641C142.696 139.828 142.644 139.972 142.542 140.075C142.448 140.178 142.313 140.229 142.136 140.229C141.949 140.229 141.804 140.178 141.702 140.075C141.608 139.972 141.562 139.828 141.562 139.641V135.959C141.562 135.324 141.436 134.862 141.184 134.573C140.941 134.274 140.549 134.125 140.008 134.125C139.382 134.125 138.883 134.321 138.51 134.713C138.146 135.096 137.964 135.609 137.964 136.253V139.641C137.964 140.033 137.772 140.229 137.39 140.229ZM145.347 140.201C145.16 140.201 145.02 140.15 144.927 140.047C144.833 139.935 144.787 139.781 144.787 139.585V133.859C144.787 133.663 144.833 133.514 144.927 133.411C145.02 133.308 145.16 133.257 145.347 133.257C145.524 133.257 145.664 133.308 145.767 133.411C145.869 133.514 145.921 133.663 145.921 133.859V139.585C145.921 139.781 145.869 139.935 145.767 140.047C145.673 140.15 145.533 140.201 145.347 140.201ZM145.347 131.689C145.113 131.689 144.931 131.628 144.801 131.507C144.67 131.376 144.605 131.204 144.605 130.989C144.605 130.765 144.67 130.597 144.801 130.485C144.931 130.364 145.113 130.303 145.347 130.303C145.589 130.303 145.771 130.364 145.893 130.485C146.023 130.597 146.089 130.765 146.089 130.989C146.089 131.204 146.023 131.376 145.893 131.507C145.771 131.628 145.589 131.689 145.347 131.689ZM148.601 140.229C148.414 140.229 148.274 140.178 148.181 140.075C148.087 139.972 148.041 139.828 148.041 139.641V133.803C148.041 133.616 148.087 133.476 148.181 133.383C148.274 133.28 148.409 133.229 148.587 133.229C148.764 133.229 148.899 133.28 148.993 133.383C149.095 133.476 149.147 133.616 149.147 133.803V135.007L148.993 134.839C149.189 134.298 149.506 133.892 149.945 133.621C150.393 133.341 150.906 133.201 151.485 133.201C152.026 133.201 152.474 133.299 152.829 133.495C153.193 133.691 153.463 133.99 153.641 134.391C153.818 134.783 153.907 135.282 153.907 135.889V139.641C153.907 139.828 153.855 139.972 153.753 140.075C153.659 140.178 153.524 140.229 153.347 140.229C153.16 140.229 153.015 140.178 152.913 140.075C152.819 139.972 152.773 139.828 152.773 139.641V135.959C152.773 135.324 152.647 134.862 152.395 134.573C152.152 134.274 151.76 134.125 151.219 134.125C150.593 134.125 150.094 134.321 149.721 134.713C149.357 135.096 149.175 135.609 149.175 136.253V139.641C149.175 140.033 148.983 140.229 148.601 140.229ZM159.008 142.777C158.513 142.777 158.028 142.716 157.552 142.595C157.085 142.483 156.66 142.301 156.278 142.049C156.166 141.984 156.091 141.904 156.054 141.811C156.026 141.718 156.021 141.624 156.04 141.531C156.058 141.447 156.1 141.368 156.166 141.293C156.231 141.228 156.306 141.186 156.39 141.167C156.483 141.148 156.576 141.162 156.67 141.209C157.08 141.461 157.472 141.634 157.846 141.727C158.219 141.82 158.588 141.867 158.952 141.867C159.614 141.867 160.114 141.69 160.45 141.335C160.795 140.98 160.968 140.467 160.968 139.795V138.213H161.108C160.968 138.754 160.669 139.184 160.212 139.501C159.764 139.818 159.236 139.977 158.63 139.977C158.004 139.977 157.463 139.837 157.006 139.557C156.548 139.268 156.194 138.866 155.942 138.353C155.699 137.84 155.578 137.247 155.578 136.575C155.578 136.071 155.648 135.614 155.788 135.203C155.928 134.783 156.128 134.428 156.39 134.139C156.66 133.84 156.982 133.612 157.356 133.453C157.738 133.285 158.163 133.201 158.63 133.201C159.246 133.201 159.778 133.36 160.226 133.677C160.674 133.985 160.963 134.405 161.094 134.937L160.954 135.105V133.803C160.954 133.616 161 133.476 161.094 133.383C161.196 133.28 161.336 133.229 161.514 133.229C161.7 133.229 161.84 133.28 161.934 133.383C162.027 133.476 162.074 133.616 162.074 133.803V139.641C162.074 140.677 161.812 141.456 161.29 141.979C160.776 142.511 160.016 142.777 159.008 142.777ZM158.84 139.053C159.278 139.053 159.656 138.955 159.974 138.759C160.291 138.554 160.534 138.264 160.702 137.891C160.879 137.518 160.968 137.079 160.968 136.575C160.968 135.819 160.776 135.222 160.394 134.783C160.011 134.335 159.493 134.111 158.84 134.111C158.41 134.111 158.037 134.214 157.72 134.419C157.402 134.615 157.155 134.9 156.978 135.273C156.81 135.637 156.726 136.071 156.726 136.575C156.726 137.331 156.917 137.933 157.3 138.381C157.682 138.829 158.196 139.053 158.84 139.053ZM164.873 141.461C164.779 141.582 164.681 141.652 164.579 141.671C164.476 141.69 164.387 141.671 164.313 141.615C164.238 141.559 164.196 141.48 164.187 141.377C164.187 141.274 164.233 141.162 164.327 141.041C164.476 140.845 164.579 140.644 164.635 140.439C164.691 140.243 164.719 140.061 164.719 139.893L164.775 140.187C164.532 140.187 164.336 140.117 164.187 139.977C164.047 139.828 163.977 139.641 163.977 139.417C163.977 139.193 164.042 139.011 164.173 138.871C164.313 138.722 164.495 138.647 164.719 138.647C164.961 138.647 165.153 138.731 165.293 138.899C165.433 139.058 165.503 139.291 165.503 139.599C165.503 139.795 165.484 139.996 165.447 140.201C165.409 140.416 165.344 140.63 165.251 140.845C165.157 141.06 165.031 141.265 164.873 141.461ZM171.556 142.749C171.369 142.749 171.229 142.698 171.136 142.595C171.042 142.502 170.996 142.362 170.996 142.175V133.803C170.996 133.616 171.042 133.476 171.136 133.383C171.229 133.28 171.364 133.229 171.542 133.229C171.728 133.229 171.868 133.28 171.962 133.383C172.064 133.476 172.116 133.616 172.116 133.803V135.133L171.962 134.937C172.111 134.405 172.405 133.985 172.844 133.677C173.292 133.36 173.824 133.201 174.44 133.201C175.046 133.201 175.574 133.346 176.022 133.635C176.479 133.915 176.829 134.321 177.072 134.853C177.324 135.376 177.45 136.001 177.45 136.729C177.45 137.448 177.324 138.073 177.072 138.605C176.829 139.128 176.484 139.534 176.036 139.823C175.588 140.112 175.056 140.257 174.44 140.257C173.824 140.257 173.296 140.103 172.858 139.795C172.419 139.478 172.12 139.058 171.962 138.535H172.13V142.175C172.13 142.362 172.078 142.502 171.976 142.595C171.873 142.698 171.733 142.749 171.556 142.749ZM174.202 139.347C174.631 139.347 175 139.244 175.308 139.039C175.625 138.834 175.868 138.535 176.036 138.143C176.213 137.751 176.302 137.28 176.302 136.729C176.302 135.88 176.11 135.231 175.728 134.783C175.354 134.335 174.846 134.111 174.202 134.111C173.782 134.111 173.413 134.214 173.096 134.419C172.778 134.615 172.531 134.909 172.354 135.301C172.186 135.684 172.102 136.16 172.102 136.729C172.102 137.569 172.293 138.218 172.676 138.675C173.058 139.123 173.567 139.347 174.202 139.347ZM182.224 140.257C181.505 140.257 180.884 140.117 180.362 139.837C179.848 139.548 179.447 139.142 179.158 138.619C178.878 138.096 178.738 137.471 178.738 136.743C178.738 136.034 178.878 135.418 179.158 134.895C179.438 134.363 179.82 133.948 180.306 133.649C180.8 133.35 181.37 133.201 182.014 133.201C182.471 133.201 182.882 133.28 183.246 133.439C183.61 133.588 183.918 133.808 184.17 134.097C184.431 134.386 184.627 134.736 184.758 135.147C184.898 135.558 184.968 136.02 184.968 136.533C184.968 136.682 184.926 136.794 184.842 136.869C184.758 136.934 184.636 136.967 184.478 136.967H179.606V136.225H184.212L183.988 136.407C183.988 135.903 183.913 135.478 183.764 135.133C183.614 134.778 183.395 134.508 183.106 134.321C182.826 134.134 182.471 134.041 182.042 134.041C181.566 134.041 181.16 134.153 180.824 134.377C180.497 134.592 180.25 134.895 180.082 135.287C179.914 135.67 179.83 136.118 179.83 136.631V136.715C179.83 137.574 180.035 138.227 180.446 138.675C180.866 139.123 181.458 139.347 182.224 139.347C182.541 139.347 182.854 139.305 183.162 139.221C183.479 139.137 183.787 138.997 184.086 138.801C184.216 138.717 184.333 138.68 184.436 138.689C184.548 138.689 184.636 138.722 184.702 138.787C184.767 138.843 184.809 138.918 184.828 139.011C184.856 139.095 184.846 139.188 184.8 139.291C184.762 139.394 184.683 139.482 184.562 139.557C184.254 139.781 183.89 139.954 183.47 140.075C183.05 140.196 182.634 140.257 182.224 140.257ZM187.183 140.229C186.996 140.229 186.852 140.178 186.749 140.075C186.656 139.972 186.609 139.828 186.609 139.641V133.803C186.609 133.616 186.656 133.476 186.749 133.383C186.842 133.28 186.978 133.229 187.155 133.229C187.332 133.229 187.468 133.28 187.561 133.383C187.664 133.476 187.715 133.616 187.715 133.803V134.937H187.575C187.724 134.386 188.009 133.962 188.429 133.663C188.849 133.364 189.367 133.206 189.983 133.187C190.123 133.178 190.235 133.21 190.319 133.285C190.403 133.35 190.45 133.467 190.459 133.635C190.468 133.794 190.431 133.92 190.347 134.013C190.263 134.106 190.132 134.162 189.955 134.181L189.731 134.209C189.096 134.265 188.606 134.47 188.261 134.825C187.925 135.17 187.757 135.646 187.757 136.253V139.641C187.757 139.828 187.706 139.972 187.603 140.075C187.51 140.178 187.37 140.229 187.183 140.229ZM193.854 140.257C193.434 140.257 193.009 140.206 192.58 140.103C192.16 140 191.768 139.823 191.404 139.571C191.311 139.506 191.245 139.431 191.208 139.347C191.171 139.254 191.157 139.165 191.166 139.081C191.185 138.988 191.222 138.908 191.278 138.843C191.343 138.778 191.418 138.74 191.502 138.731C191.595 138.712 191.698 138.731 191.81 138.787C192.174 139.011 192.524 139.17 192.86 139.263C193.205 139.347 193.546 139.389 193.882 139.389C194.414 139.389 194.815 139.291 195.086 139.095C195.357 138.899 195.492 138.633 195.492 138.297C195.492 138.036 195.403 137.83 195.226 137.681C195.049 137.522 194.769 137.401 194.386 137.317L193.112 137.037C192.524 136.916 192.085 136.706 191.796 136.407C191.516 136.108 191.376 135.721 191.376 135.245C191.376 134.825 191.483 134.466 191.698 134.167C191.922 133.859 192.235 133.621 192.636 133.453C193.037 133.285 193.504 133.201 194.036 133.201C194.447 133.201 194.834 133.257 195.198 133.369C195.571 133.472 195.907 133.64 196.206 133.873C196.299 133.938 196.36 134.018 196.388 134.111C196.425 134.195 196.43 134.284 196.402 134.377C196.383 134.461 196.341 134.536 196.276 134.601C196.211 134.657 196.131 134.69 196.038 134.699C195.945 134.708 195.847 134.68 195.744 134.615C195.464 134.428 195.179 134.293 194.89 134.209C194.601 134.116 194.316 134.069 194.036 134.069C193.513 134.069 193.117 134.172 192.846 134.377C192.575 134.582 192.44 134.853 192.44 135.189C192.44 135.45 192.524 135.665 192.692 135.833C192.86 136.001 193.121 136.122 193.476 136.197L194.75 136.463C195.357 136.594 195.809 136.804 196.108 137.093C196.416 137.373 196.57 137.756 196.57 138.241C196.57 138.857 196.323 139.347 195.828 139.711C195.333 140.075 194.675 140.257 193.854 140.257ZM201.126 140.257C200.464 140.257 199.89 140.112 199.404 139.823C198.919 139.534 198.541 139.128 198.27 138.605C198.009 138.073 197.878 137.448 197.878 136.729C197.878 136.188 197.953 135.702 198.102 135.273C198.252 134.834 198.471 134.461 198.76 134.153C199.05 133.845 199.39 133.612 199.782 133.453C200.184 133.285 200.632 133.201 201.126 133.201C201.789 133.201 202.363 133.346 202.848 133.635C203.334 133.924 203.707 134.335 203.968 134.867C204.239 135.39 204.374 136.01 204.374 136.729C204.374 137.27 204.3 137.756 204.15 138.185C204.001 138.614 203.782 138.988 203.492 139.305C203.203 139.613 202.858 139.851 202.456 140.019C202.064 140.178 201.621 140.257 201.126 140.257ZM201.126 139.347C201.546 139.347 201.915 139.244 202.232 139.039C202.55 138.834 202.792 138.535 202.96 138.143C203.138 137.751 203.226 137.28 203.226 136.729C203.226 135.88 203.035 135.231 202.652 134.783C202.279 134.335 201.77 134.111 201.126 134.111C200.697 134.111 200.324 134.214 200.006 134.419C199.698 134.615 199.456 134.909 199.278 135.301C199.11 135.684 199.026 136.16 199.026 136.729C199.026 137.569 199.218 138.218 199.6 138.675C199.983 139.123 200.492 139.347 201.126 139.347ZM206.638 140.229C206.451 140.229 206.311 140.178 206.218 140.075C206.124 139.972 206.078 139.828 206.078 139.641V133.803C206.078 133.616 206.124 133.476 206.218 133.383C206.311 133.28 206.446 133.229 206.624 133.229C206.801 133.229 206.936 133.28 207.03 133.383C207.132 133.476 207.184 133.616 207.184 133.803V135.007L207.03 134.839C207.226 134.298 207.543 133.892 207.982 133.621C208.43 133.341 208.943 133.201 209.522 133.201C210.063 133.201 210.511 133.299 210.866 133.495C211.23 133.691 211.5 133.99 211.678 134.391C211.855 134.783 211.944 135.282 211.944 135.889V139.641C211.944 139.828 211.892 139.972 211.79 140.075C211.696 140.178 211.561 140.229 211.384 140.229C211.197 140.229 211.052 140.178 210.95 140.075C210.856 139.972 210.81 139.828 210.81 139.641V135.959C210.81 135.324 210.684 134.862 210.432 134.573C210.189 134.274 209.797 134.125 209.256 134.125C208.63 134.125 208.131 134.321 207.758 134.713C207.394 135.096 207.212 135.609 207.212 136.253V139.641C207.212 140.033 207.02 140.229 206.638 140.229ZM216.177 140.257C215.71 140.257 215.29 140.168 214.917 139.991C214.553 139.804 214.263 139.552 214.049 139.235C213.834 138.918 213.727 138.563 213.727 138.171C213.727 137.667 213.853 137.27 214.105 136.981C214.366 136.692 214.791 136.486 215.379 136.365C215.976 136.244 216.788 136.183 217.815 136.183H218.445V136.925H217.829C217.073 136.925 216.475 136.962 216.037 137.037C215.607 137.102 215.304 137.219 215.127 137.387C214.959 137.555 214.875 137.793 214.875 138.101C214.875 138.484 215.005 138.796 215.267 139.039C215.537 139.282 215.901 139.403 216.359 139.403C216.732 139.403 217.059 139.314 217.339 139.137C217.628 138.96 217.852 138.717 218.011 138.409C218.179 138.101 218.263 137.746 218.263 137.345V135.749C218.263 135.17 218.146 134.755 217.913 134.503C217.679 134.242 217.297 134.111 216.765 134.111C216.438 134.111 216.111 134.153 215.785 134.237C215.458 134.321 215.113 134.456 214.749 134.643C214.618 134.708 214.506 134.732 214.413 134.713C214.319 134.685 214.245 134.634 214.189 134.559C214.133 134.484 214.1 134.4 214.091 134.307C214.081 134.204 214.1 134.106 214.147 134.013C214.203 133.92 214.287 133.845 214.399 133.789C214.809 133.584 215.215 133.434 215.617 133.341C216.018 133.248 216.401 133.201 216.765 133.201C217.353 133.201 217.838 133.299 218.221 133.495C218.603 133.682 218.888 133.971 219.075 134.363C219.261 134.746 219.355 135.24 219.355 135.847V139.641C219.355 139.828 219.308 139.972 219.215 140.075C219.131 140.178 219.005 140.229 218.837 140.229C218.659 140.229 218.524 140.178 218.431 140.075C218.337 139.972 218.291 139.828 218.291 139.641V138.549H218.417C218.342 138.904 218.197 139.207 217.983 139.459C217.777 139.711 217.521 139.907 217.213 140.047C216.905 140.187 216.559 140.257 216.177 140.257ZM223.531 140.257C222.859 140.257 222.345 140.052 221.991 139.641C221.636 139.23 221.459 138.642 221.459 137.877V130.737C221.459 130.55 221.505 130.41 221.599 130.317C221.692 130.214 221.832 130.163 222.019 130.163C222.196 130.163 222.336 130.214 222.439 130.317C222.541 130.41 222.593 130.55 222.593 130.737V137.793C222.593 138.297 222.691 138.675 222.887 138.927C223.092 139.17 223.391 139.291 223.783 139.291C223.867 139.291 223.941 139.286 224.007 139.277C224.072 139.268 224.137 139.263 224.203 139.263C224.305 139.254 224.375 139.277 224.413 139.333C224.459 139.389 224.483 139.501 224.483 139.669C224.483 139.837 224.445 139.963 224.371 140.047C224.296 140.131 224.175 140.187 224.007 140.215C223.932 140.224 223.853 140.234 223.769 140.243C223.685 140.252 223.605 140.257 223.531 140.257ZM232.094 140.257C231.413 140.257 230.825 140.108 230.33 139.809C229.836 139.51 229.453 139.095 229.182 138.563C228.921 138.022 228.79 137.396 228.79 136.687C228.79 136.146 228.865 135.66 229.014 135.231C229.164 134.802 229.383 134.438 229.672 134.139C229.962 133.831 230.307 133.598 230.708 133.439C231.119 133.28 231.581 133.201 232.094 133.201C232.43 133.201 232.78 133.252 233.144 133.355C233.508 133.458 233.84 133.635 234.138 133.887C234.232 133.952 234.292 134.032 234.32 134.125C234.348 134.218 234.348 134.312 234.32 134.405C234.292 134.489 234.246 134.564 234.18 134.629C234.115 134.685 234.031 134.718 233.928 134.727C233.835 134.736 233.737 134.704 233.634 134.629C233.392 134.442 233.144 134.312 232.892 134.237C232.64 134.162 232.398 134.125 232.164 134.125C231.8 134.125 231.483 134.186 231.212 134.307C230.942 134.419 230.713 134.582 230.526 134.797C230.34 135.012 230.195 135.278 230.092 135.595C229.999 135.912 229.952 136.281 229.952 136.701C229.952 137.513 230.144 138.157 230.526 138.633C230.909 139.1 231.455 139.333 232.164 139.333C232.398 139.333 232.636 139.296 232.878 139.221C233.13 139.146 233.382 139.016 233.634 138.829C233.737 138.754 233.835 138.722 233.928 138.731C234.022 138.74 234.101 138.778 234.166 138.843C234.232 138.899 234.274 138.974 234.292 139.067C234.32 139.16 234.32 139.254 234.292 139.347C234.264 139.431 234.204 139.506 234.11 139.571C233.812 139.814 233.485 139.991 233.13 140.103C232.776 140.206 232.43 140.257 232.094 140.257ZM237.778 140.257C237.312 140.257 236.892 140.168 236.518 139.991C236.154 139.804 235.865 139.552 235.65 139.235C235.436 138.918 235.328 138.563 235.328 138.171C235.328 137.667 235.454 137.27 235.706 136.981C235.968 136.692 236.392 136.486 236.98 136.365C237.578 136.244 238.39 136.183 239.416 136.183H240.046V136.925H239.43C238.674 136.925 238.077 136.962 237.638 137.037C237.209 137.102 236.906 137.219 236.728 137.387C236.56 137.555 236.476 137.793 236.476 138.101C236.476 138.484 236.607 138.796 236.868 139.039C237.139 139.282 237.503 139.403 237.96 139.403C238.334 139.403 238.66 139.314 238.94 139.137C239.23 138.96 239.454 138.717 239.612 138.409C239.78 138.101 239.864 137.746 239.864 137.345V135.749C239.864 135.17 239.748 134.755 239.514 134.503C239.281 134.242 238.898 134.111 238.366 134.111C238.04 134.111 237.713 134.153 237.386 134.237C237.06 134.321 236.714 134.456 236.35 134.643C236.22 134.708 236.108 134.732 236.014 134.713C235.921 134.685 235.846 134.634 235.79 134.559C235.734 134.484 235.702 134.4 235.692 134.307C235.683 134.204 235.702 134.106 235.748 134.013C235.804 133.92 235.888 133.845 236 133.789C236.411 133.584 236.817 133.434 237.218 133.341C237.62 133.248 238.002 133.201 238.366 133.201C238.954 133.201 239.44 133.299 239.822 133.495C240.205 133.682 240.49 133.971 240.676 134.363C240.863 134.746 240.956 135.24 240.956 135.847V139.641C240.956 139.828 240.91 139.972 240.816 140.075C240.732 140.178 240.606 140.229 240.438 140.229C240.261 140.229 240.126 140.178 240.032 140.075C239.939 139.972 239.892 139.828 239.892 139.641V138.549H240.018C239.944 138.904 239.799 139.207 239.584 139.459C239.379 139.711 239.122 139.907 238.814 140.047C238.506 140.187 238.161 140.257 237.778 140.257ZM243.634 140.229C243.447 140.229 243.303 140.178 243.2 140.075C243.107 139.972 243.06 139.828 243.06 139.641V133.803C243.06 133.616 243.107 133.476 243.2 133.383C243.293 133.28 243.429 133.229 243.606 133.229C243.783 133.229 243.919 133.28 244.012 133.383C244.115 133.476 244.166 133.616 244.166 133.803V134.937H244.026C244.175 134.386 244.46 133.962 244.88 133.663C245.3 133.364 245.818 133.206 246.434 133.187C246.574 133.178 246.686 133.21 246.77 133.285C246.854 133.35 246.901 133.467 246.91 133.635C246.919 133.794 246.882 133.92 246.798 134.013C246.714 134.106 246.583 134.162 246.406 134.181L246.182 134.209C245.547 134.265 245.057 134.47 244.712 134.825C244.376 135.17 244.208 135.646 244.208 136.253V139.641C244.208 139.828 244.157 139.972 244.054 140.075C243.961 140.178 243.821 140.229 243.634 140.229ZM251.062 140.257C250.343 140.257 249.722 140.117 249.2 139.837C248.686 139.548 248.285 139.142 247.996 138.619C247.716 138.096 247.576 137.471 247.576 136.743C247.576 136.034 247.716 135.418 247.996 134.895C248.276 134.363 248.658 133.948 249.144 133.649C249.638 133.35 250.208 133.201 250.852 133.201C251.309 133.201 251.72 133.28 252.084 133.439C252.448 133.588 252.756 133.808 253.008 134.097C253.269 134.386 253.465 134.736 253.596 135.147C253.736 135.558 253.806 136.02 253.806 136.533C253.806 136.682 253.764 136.794 253.68 136.869C253.596 136.934 253.474 136.967 253.316 136.967H248.444V136.225H253.05L252.826 136.407C252.826 135.903 252.751 135.478 252.602 135.133C252.452 134.778 252.233 134.508 251.944 134.321C251.664 134.134 251.309 134.041 250.88 134.041C250.404 134.041 249.998 134.153 249.662 134.377C249.335 134.592 249.088 134.895 248.92 135.287C248.752 135.67 248.668 136.118 248.668 136.631V136.715C248.668 137.574 248.873 138.227 249.284 138.675C249.704 139.123 250.296 139.347 251.062 139.347C251.379 139.347 251.692 139.305 252 139.221C252.317 139.137 252.625 138.997 252.924 138.801C253.054 138.717 253.171 138.68 253.274 138.689C253.386 138.689 253.474 138.722 253.54 138.787C253.605 138.843 253.647 138.918 253.666 139.011C253.694 139.095 253.684 139.188 253.638 139.291C253.6 139.394 253.521 139.482 253.4 139.557C253.092 139.781 252.728 139.954 252.308 140.075C251.888 140.196 251.472 140.257 251.062 140.257ZM256.119 141.461C256.025 141.582 255.927 141.652 255.825 141.671C255.722 141.69 255.633 141.671 255.559 141.615C255.484 141.559 255.442 141.48 255.433 141.377C255.433 141.274 255.479 141.162 255.573 141.041C255.722 140.845 255.825 140.644 255.881 140.439C255.937 140.243 255.965 140.061 255.965 139.893L256.021 140.187C255.778 140.187 255.582 140.117 255.433 139.977C255.293 139.828 255.223 139.641 255.223 139.417C255.223 139.193 255.288 139.011 255.419 138.871C255.559 138.722 255.741 138.647 255.965 138.647C256.207 138.647 256.399 138.731 256.539 138.899C256.679 139.058 256.749 139.291 256.749 139.599C256.749 139.795 256.73 139.996 256.693 140.201C256.655 140.416 256.59 140.63 256.497 140.845C256.403 141.06 256.277 141.265 256.119 141.461ZM76.7111 160.257C75.9924 160.257 75.3717 160.117 74.8491 159.837C74.3357 159.548 73.9344 159.142 73.6451 158.619C73.3651 158.096 73.2251 157.471 73.2251 156.743C73.2251 156.034 73.3651 155.418 73.6451 154.895C73.9251 154.363 74.3077 153.948 74.7931 153.649C75.2877 153.35 75.8571 153.201 76.5011 153.201C76.9584 153.201 77.3691 153.28 77.7331 153.439C78.0971 153.588 78.4051 153.808 78.6571 154.097C78.9184 154.386 79.1144 154.736 79.2451 155.147C79.3851 155.558 79.4551 156.02 79.4551 156.533C79.4551 156.682 79.4131 156.794 79.3291 156.869C79.2451 156.934 79.1237 156.967 78.9651 156.967H74.0931V156.225H78.6991L78.4751 156.407C78.4751 155.903 78.4004 155.478 78.2511 155.133C78.1017 154.778 77.8824 154.508 77.5931 154.321C77.3131 154.134 76.9584 154.041 76.5291 154.041C76.0531 154.041 75.6471 154.153 75.3111 154.377C74.9844 154.592 74.7371 154.895 74.5691 155.287C74.4011 155.67 74.3171 156.118 74.3171 156.631V156.715C74.3171 157.574 74.5224 158.227 74.9331 158.675C75.3531 159.123 75.9457 159.347 76.7111 159.347C77.0284 159.347 77.3411 159.305 77.6491 159.221C77.9664 159.137 78.2744 158.997 78.5731 158.801C78.7037 158.717 78.8204 158.68 78.9231 158.689C79.0351 158.689 79.1237 158.722 79.1891 158.787C79.2544 158.843 79.2964 158.918 79.3151 159.011C79.3431 159.095 79.3337 159.188 79.2871 159.291C79.2497 159.394 79.1704 159.482 79.0491 159.557C78.7411 159.781 78.3771 159.954 77.9571 160.075C77.5371 160.196 77.1217 160.257 76.7111 160.257ZM83.1682 160.257C82.4962 160.257 81.9829 160.052 81.6282 159.641C81.2736 159.23 81.0962 158.642 81.0962 157.877V150.737C81.0962 150.55 81.1429 150.41 81.2362 150.317C81.3296 150.214 81.4696 150.163 81.6562 150.163C81.8336 150.163 81.9736 150.214 82.0762 150.317C82.1789 150.41 82.2302 150.55 82.2302 150.737V157.793C82.2302 158.297 82.3282 158.675 82.5242 158.927C82.7296 159.17 83.0282 159.291 83.4202 159.291C83.5042 159.291 83.5789 159.286 83.6442 159.277C83.7096 159.268 83.7749 159.263 83.8402 159.263C83.9429 159.254 84.0129 159.277 84.0502 159.333C84.0969 159.389 84.1202 159.501 84.1202 159.669C84.1202 159.837 84.0829 159.963 84.0082 160.047C83.9336 160.131 83.8122 160.187 83.6442 160.215C83.5696 160.224 83.4902 160.234 83.4062 160.243C83.3222 160.252 83.2429 160.257 83.1682 160.257ZM88.2364 160.257C87.5178 160.257 86.8971 160.117 86.3744 159.837C85.8611 159.548 85.4598 159.142 85.1704 158.619C84.8904 158.096 84.7504 157.471 84.7504 156.743C84.7504 156.034 84.8904 155.418 85.1704 154.895C85.4504 154.363 85.8331 153.948 86.3184 153.649C86.8131 153.35 87.3824 153.201 88.0264 153.201C88.4838 153.201 88.8944 153.28 89.2584 153.439C89.6224 153.588 89.9304 153.808 90.1824 154.097C90.4438 154.386 90.6398 154.736 90.7704 155.147C90.9104 155.558 90.9804 156.02 90.9804 156.533C90.9804 156.682 90.9384 156.794 90.8544 156.869C90.7704 156.934 90.6491 156.967 90.4904 156.967H85.6184V156.225H90.2244L90.0004 156.407C90.0004 155.903 89.9258 155.478 89.7764 155.133C89.6271 154.778 89.4078 154.508 89.1184 154.321C88.8384 154.134 88.4838 154.041 88.0544 154.041C87.5784 154.041 87.1724 154.153 86.8364 154.377C86.5098 154.592 86.2624 154.895 86.0944 155.287C85.9264 155.67 85.8424 156.118 85.8424 156.631V156.715C85.8424 157.574 86.0478 158.227 86.4584 158.675C86.8784 159.123 87.4711 159.347 88.2364 159.347C88.5538 159.347 88.8664 159.305 89.1744 159.221C89.4918 159.137 89.7998 158.997 90.0984 158.801C90.2291 158.717 90.3458 158.68 90.4484 158.689C90.5604 158.689 90.6491 158.722 90.7144 158.787C90.7798 158.843 90.8218 158.918 90.8404 159.011C90.8684 159.095 90.8591 159.188 90.8124 159.291C90.7751 159.394 90.6958 159.482 90.5744 159.557C90.2664 159.781 89.9024 159.954 89.4824 160.075C89.0624 160.196 88.6471 160.257 88.2364 160.257ZM95.5056 160.257C94.8243 160.257 94.2363 160.108 93.7416 159.809C93.247 159.51 92.8643 159.095 92.5936 158.563C92.3323 158.022 92.2016 157.396 92.2016 156.687C92.2016 156.146 92.2763 155.66 92.4256 155.231C92.575 154.802 92.7943 154.438 93.0836 154.139C93.373 153.831 93.7183 153.598 94.1196 153.439C94.5303 153.28 94.9923 153.201 95.5056 153.201C95.8416 153.201 96.1916 153.252 96.5556 153.355C96.9196 153.458 97.251 153.635 97.5496 153.887C97.643 153.952 97.7036 154.032 97.7316 154.125C97.7596 154.218 97.7596 154.312 97.7316 154.405C97.7036 154.489 97.657 154.564 97.5916 154.629C97.5263 154.685 97.4423 154.718 97.3396 154.727C97.2463 154.736 97.1483 154.704 97.0456 154.629C96.803 154.442 96.5556 154.312 96.3036 154.237C96.0516 154.162 95.809 154.125 95.5756 154.125C95.2116 154.125 94.8943 154.186 94.6236 154.307C94.353 154.419 94.1243 154.582 93.9376 154.797C93.751 155.012 93.6063 155.278 93.5036 155.595C93.4103 155.912 93.3636 156.281 93.3636 156.701C93.3636 157.513 93.555 158.157 93.9376 158.633C94.3203 159.1 94.8663 159.333 95.5756 159.333C95.809 159.333 96.047 159.296 96.2896 159.221C96.5416 159.146 96.7936 159.016 97.0456 158.829C97.1483 158.754 97.2463 158.722 97.3396 158.731C97.433 158.74 97.5123 158.778 97.5776 158.843C97.643 158.899 97.685 158.974 97.7036 159.067C97.7316 159.16 97.7316 159.254 97.7036 159.347C97.6756 159.431 97.615 159.506 97.5216 159.571C97.223 159.814 96.8963 159.991 96.5416 160.103C96.187 160.206 95.8416 160.257 95.5056 160.257ZM101.832 160.257C101.3 160.257 100.852 160.164 100.488 159.977C100.133 159.781 99.8674 159.501 99.6901 159.137C99.5128 158.764 99.4241 158.311 99.4241 157.779V154.209H98.4861C98.3274 154.209 98.2061 154.172 98.1221 154.097C98.0381 154.013 97.9961 153.901 97.9961 153.761C97.9961 153.621 98.0381 153.514 98.1221 153.439C98.2061 153.364 98.3274 153.327 98.4861 153.327H99.4241V151.717C99.4241 151.53 99.4754 151.39 99.5781 151.297C99.6808 151.194 99.8208 151.143 99.9981 151.143C100.175 151.143 100.311 151.194 100.404 151.297C100.507 151.39 100.558 151.53 100.558 151.717V153.327H102.322C102.481 153.327 102.602 153.364 102.686 153.439C102.77 153.514 102.812 153.621 102.812 153.761C102.812 153.901 102.77 154.013 102.686 154.097C102.602 154.172 102.481 154.209 102.322 154.209H100.558V157.667C100.558 158.199 100.67 158.605 100.894 158.885C101.118 159.156 101.482 159.291 101.986 159.291C102.163 159.291 102.313 159.272 102.434 159.235C102.565 159.198 102.672 159.179 102.756 159.179C102.84 159.17 102.91 159.198 102.966 159.263C103.022 159.328 103.05 159.44 103.05 159.599C103.05 159.711 103.027 159.814 102.98 159.907C102.943 160 102.873 160.066 102.77 160.103C102.658 160.14 102.509 160.173 102.322 160.201C102.145 160.238 101.981 160.257 101.832 160.257ZM104.571 160.229C104.384 160.229 104.239 160.178 104.137 160.075C104.043 159.972 103.997 159.828 103.997 159.641V153.803C103.997 153.616 104.043 153.476 104.137 153.383C104.23 153.28 104.365 153.229 104.543 153.229C104.72 153.229 104.855 153.28 104.949 153.383C105.051 153.476 105.103 153.616 105.103 153.803V154.937H104.963C105.112 154.386 105.397 153.962 105.817 153.663C106.237 153.364 106.755 153.206 107.371 153.187C107.511 153.178 107.623 153.21 107.707 153.285C107.791 153.35 107.837 153.467 107.847 153.635C107.856 153.794 107.819 153.92 107.735 154.013C107.651 154.106 107.52 154.162 107.343 154.181L107.119 154.209C106.484 154.265 105.994 154.47 105.649 154.825C105.313 155.17 105.145 155.646 105.145 156.253V159.641C105.145 159.828 105.093 159.972 104.991 160.075C104.897 160.178 104.757 160.229 104.571 160.229ZM111.76 160.257C111.097 160.257 110.523 160.112 110.038 159.823C109.553 159.534 109.175 159.128 108.904 158.605C108.643 158.073 108.512 157.448 108.512 156.729C108.512 156.188 108.587 155.702 108.736 155.273C108.885 154.834 109.105 154.461 109.394 154.153C109.683 153.845 110.024 153.612 110.416 153.453C110.817 153.285 111.265 153.201 111.76 153.201C112.423 153.201 112.997 153.346 113.482 153.635C113.967 153.924 114.341 154.335 114.602 154.867C114.873 155.39 115.008 156.01 115.008 156.729C115.008 157.27 114.933 157.756 114.784 158.185C114.635 158.614 114.415 158.988 114.126 159.305C113.837 159.613 113.491 159.851 113.09 160.019C112.698 160.178 112.255 160.257 111.76 160.257ZM111.76 159.347C112.18 159.347 112.549 159.244 112.866 159.039C113.183 158.834 113.426 158.535 113.594 158.143C113.771 157.751 113.86 157.28 113.86 156.729C113.86 155.88 113.669 155.231 113.286 154.783C112.913 154.335 112.404 154.111 111.76 154.111C111.331 154.111 110.957 154.214 110.64 154.419C110.332 154.615 110.089 154.909 109.912 155.301C109.744 155.684 109.66 156.16 109.66 156.729C109.66 157.569 109.851 158.218 110.234 158.675C110.617 159.123 111.125 159.347 111.76 159.347ZM117.271 160.229C117.085 160.229 116.945 160.178 116.851 160.075C116.758 159.972 116.711 159.828 116.711 159.641V153.803C116.711 153.616 116.758 153.476 116.851 153.383C116.945 153.28 117.08 153.229 117.257 153.229C117.435 153.229 117.57 153.28 117.663 153.383C117.766 153.476 117.817 153.616 117.817 153.803V155.007L117.663 154.839C117.859 154.298 118.177 153.892 118.615 153.621C119.063 153.341 119.577 153.201 120.155 153.201C120.697 153.201 121.145 153.299 121.499 153.495C121.863 153.691 122.134 153.99 122.311 154.391C122.489 154.783 122.577 155.282 122.577 155.889V159.641C122.577 159.828 122.526 159.972 122.423 160.075C122.33 160.178 122.195 160.229 122.017 160.229C121.831 160.229 121.686 160.178 121.583 160.075C121.49 159.972 121.443 159.828 121.443 159.641V155.959C121.443 155.324 121.317 154.862 121.065 154.573C120.823 154.274 120.431 154.125 119.889 154.125C119.264 154.125 118.765 154.321 118.391 154.713C118.027 155.096 117.845 155.609 117.845 156.253V159.641C117.845 160.033 117.654 160.229 117.271 160.229ZM125.228 160.201C125.042 160.201 124.902 160.15 124.808 160.047C124.715 159.935 124.668 159.781 124.668 159.585V153.859C124.668 153.663 124.715 153.514 124.808 153.411C124.902 153.308 125.042 153.257 125.228 153.257C125.406 153.257 125.546 153.308 125.648 153.411C125.751 153.514 125.802 153.663 125.802 153.859V159.585C125.802 159.781 125.751 159.935 125.648 160.047C125.555 160.15 125.415 160.201 125.228 160.201ZM125.228 151.689C124.995 151.689 124.813 151.628 124.682 151.507C124.552 151.376 124.486 151.204 124.486 150.989C124.486 150.765 124.552 150.597 124.682 150.485C124.813 150.364 124.995 150.303 125.228 150.303C125.471 150.303 125.653 150.364 125.774 150.485C125.905 150.597 125.97 150.765 125.97 150.989C125.97 151.204 125.905 151.376 125.774 151.507C125.653 151.628 125.471 151.689 125.228 151.689ZM130.806 160.257C130.125 160.257 129.537 160.108 129.042 159.809C128.548 159.51 128.165 159.095 127.894 158.563C127.633 158.022 127.502 157.396 127.502 156.687C127.502 156.146 127.577 155.66 127.726 155.231C127.876 154.802 128.095 154.438 128.384 154.139C128.674 153.831 129.019 153.598 129.42 153.439C129.831 153.28 130.293 153.201 130.806 153.201C131.142 153.201 131.492 153.252 131.856 153.355C132.22 153.458 132.552 153.635 132.85 153.887C132.944 153.952 133.004 154.032 133.032 154.125C133.06 154.218 133.06 154.312 133.032 154.405C133.004 154.489 132.958 154.564 132.892 154.629C132.827 154.685 132.743 154.718 132.64 154.727C132.547 154.736 132.449 154.704 132.346 154.629C132.104 154.442 131.856 154.312 131.604 154.237C131.352 154.162 131.11 154.125 130.876 154.125C130.512 154.125 130.195 154.186 129.924 154.307C129.654 154.419 129.425 154.582 129.238 154.797C129.052 155.012 128.907 155.278 128.804 155.595C128.711 155.912 128.664 156.281 128.664 156.701C128.664 157.513 128.856 158.157 129.238 158.633C129.621 159.1 130.167 159.333 130.876 159.333C131.11 159.333 131.348 159.296 131.59 159.221C131.842 159.146 132.094 159.016 132.346 158.829C132.449 158.754 132.547 158.722 132.64 158.731C132.734 158.74 132.813 158.778 132.878 158.843C132.944 158.899 132.986 158.974 133.004 159.067C133.032 159.16 133.032 159.254 133.004 159.347C132.976 159.431 132.916 159.506 132.822 159.571C132.524 159.814 132.197 159.991 131.842 160.103C131.488 160.206 131.142 160.257 130.806 160.257ZM141.022 162.777C140.528 162.777 140.042 162.716 139.566 162.595C139.1 162.483 138.675 162.301 138.292 162.049C138.18 161.984 138.106 161.904 138.068 161.811C138.04 161.718 138.036 161.624 138.054 161.531C138.073 161.447 138.115 161.368 138.18 161.293C138.246 161.228 138.32 161.186 138.404 161.167C138.498 161.148 138.591 161.162 138.684 161.209C139.095 161.461 139.487 161.634 139.86 161.727C140.234 161.82 140.602 161.867 140.966 161.867C141.629 161.867 142.128 161.69 142.464 161.335C142.81 160.98 142.982 160.467 142.982 159.795V158.213H143.122C142.982 158.754 142.684 159.184 142.226 159.501C141.778 159.818 141.251 159.977 140.644 159.977C140.019 159.977 139.478 159.837 139.02 159.557C138.563 159.268 138.208 158.866 137.956 158.353C137.714 157.84 137.592 157.247 137.592 156.575C137.592 156.071 137.662 155.614 137.802 155.203C137.942 154.783 138.143 154.428 138.404 154.139C138.675 153.84 138.997 153.612 139.37 153.453C139.753 153.285 140.178 153.201 140.644 153.201C141.26 153.201 141.792 153.36 142.24 153.677C142.688 153.985 142.978 154.405 143.108 154.937L142.968 155.105V153.803C142.968 153.616 143.015 153.476 143.108 153.383C143.211 153.28 143.351 153.229 143.528 153.229C143.715 153.229 143.855 153.28 143.948 153.383C144.042 153.476 144.088 153.616 144.088 153.803V159.641C144.088 160.677 143.827 161.456 143.304 161.979C142.791 162.511 142.03 162.777 141.022 162.777ZM140.854 159.053C141.293 159.053 141.671 158.955 141.988 158.759C142.306 158.554 142.548 158.264 142.716 157.891C142.894 157.518 142.982 157.079 142.982 156.575C142.982 155.819 142.791 155.222 142.408 154.783C142.026 154.335 141.508 154.111 140.854 154.111C140.425 154.111 140.052 154.214 139.734 154.419C139.417 154.615 139.17 154.9 138.992 155.273C138.824 155.637 138.74 156.071 138.74 156.575C138.74 157.331 138.932 157.933 139.314 158.381C139.697 158.829 140.21 159.053 140.854 159.053ZM149.043 160.257C148.381 160.257 147.807 160.112 147.321 159.823C146.836 159.534 146.458 159.128 146.187 158.605C145.926 158.073 145.795 157.448 145.795 156.729C145.795 156.188 145.87 155.702 146.019 155.273C146.169 154.834 146.388 154.461 146.677 154.153C146.967 153.845 147.307 153.612 147.699 153.453C148.101 153.285 148.549 153.201 149.043 153.201C149.706 153.201 150.28 153.346 150.765 153.635C151.251 153.924 151.624 154.335 151.885 154.867C152.156 155.39 152.291 156.01 152.291 156.729C152.291 157.27 152.217 157.756 152.067 158.185C151.918 158.614 151.699 158.988 151.409 159.305C151.12 159.613 150.775 159.851 150.373 160.019C149.981 160.178 149.538 160.257 149.043 160.257ZM149.043 159.347C149.463 159.347 149.832 159.244 150.149 159.039C150.467 158.834 150.709 158.535 150.877 158.143C151.055 157.751 151.143 157.28 151.143 156.729C151.143 155.88 150.952 155.231 150.569 154.783C150.196 154.335 149.687 154.111 149.043 154.111C148.614 154.111 148.241 154.214 147.923 154.419C147.615 154.615 147.373 154.909 147.195 155.301C147.027 155.684 146.943 156.16 146.943 156.729C146.943 157.569 147.135 158.218 147.517 158.675C147.9 159.123 148.409 159.347 149.043 159.347ZM156.823 160.257C156.16 160.257 155.586 160.112 155.101 159.823C154.615 159.534 154.237 159.128 153.967 158.605C153.705 158.073 153.575 157.448 153.575 156.729C153.575 156.188 153.649 155.702 153.799 155.273C153.948 154.834 154.167 154.461 154.457 154.153C154.746 153.845 155.087 153.612 155.479 153.453C155.88 153.285 156.328 153.201 156.823 153.201C157.485 153.201 158.059 153.346 158.545 153.635C159.03 153.924 159.403 154.335 159.665 154.867C159.935 155.39 160.071 156.01 160.071 156.729C160.071 157.27 159.996 157.756 159.847 158.185C159.697 158.614 159.478 158.988 159.189 159.305C158.899 159.613 158.554 159.851 158.153 160.019C157.761 160.178 157.317 160.257 156.823 160.257ZM156.823 159.347C157.243 159.347 157.611 159.244 157.929 159.039C158.246 158.834 158.489 158.535 158.657 158.143C158.834 157.751 158.923 157.28 158.923 156.729C158.923 155.88 158.731 155.231 158.349 154.783C157.975 154.335 157.467 154.111 156.823 154.111C156.393 154.111 156.02 154.214 155.703 154.419C155.395 154.615 155.152 154.909 154.975 155.301C154.807 155.684 154.723 156.16 154.723 156.729C154.723 157.569 154.914 158.218 155.297 158.675C155.679 159.123 156.188 159.347 156.823 159.347ZM164.364 160.257C163.757 160.257 163.225 160.112 162.768 159.823C162.32 159.534 161.97 159.128 161.718 158.605C161.475 158.073 161.354 157.448 161.354 156.729C161.354 156.001 161.475 155.376 161.718 154.853C161.97 154.321 162.32 153.915 162.768 153.635C163.225 153.346 163.757 153.201 164.364 153.201C164.98 153.201 165.507 153.355 165.946 153.663C166.385 153.971 166.679 154.386 166.828 154.909H166.674V150.737C166.674 150.55 166.721 150.41 166.814 150.317C166.917 150.214 167.061 150.163 167.248 150.163C167.425 150.163 167.561 150.214 167.654 150.317C167.757 150.41 167.808 150.55 167.808 150.737V159.641C167.808 159.828 167.761 159.972 167.668 160.075C167.575 160.178 167.435 160.229 167.248 160.229C167.071 160.229 166.931 160.178 166.828 160.075C166.735 159.972 166.688 159.828 166.688 159.641V158.311L166.842 158.507C166.693 159.039 166.394 159.464 165.946 159.781C165.507 160.098 164.98 160.257 164.364 160.257ZM164.602 159.347C165.022 159.347 165.391 159.244 165.708 159.039C166.025 158.834 166.268 158.535 166.436 158.143C166.613 157.751 166.702 157.28 166.702 156.729C166.702 155.88 166.511 155.231 166.128 154.783C165.755 154.335 165.246 154.111 164.602 154.111C164.173 154.111 163.799 154.214 163.482 154.419C163.174 154.615 162.931 154.909 162.754 155.301C162.586 155.684 162.502 156.16 162.502 156.729C162.502 157.569 162.693 158.218 163.076 158.675C163.459 159.123 163.967 159.347 164.602 159.347ZM172.232 160.257C171.812 160.257 171.387 160.206 170.958 160.103C170.538 160 170.146 159.823 169.782 159.571C169.689 159.506 169.623 159.431 169.586 159.347C169.549 159.254 169.535 159.165 169.544 159.081C169.563 158.988 169.6 158.908 169.656 158.843C169.721 158.778 169.796 158.74 169.88 158.731C169.973 158.712 170.076 158.731 170.188 158.787C170.552 159.011 170.902 159.17 171.238 159.263C171.583 159.347 171.924 159.389 172.26 159.389C172.792 159.389 173.193 159.291 173.464 159.095C173.735 158.899 173.87 158.633 173.87 158.297C173.87 158.036 173.781 157.83 173.604 157.681C173.427 157.522 173.147 157.401 172.764 157.317L171.49 157.037C170.902 156.916 170.463 156.706 170.174 156.407C169.894 156.108 169.754 155.721 169.754 155.245C169.754 154.825 169.861 154.466 170.076 154.167C170.3 153.859 170.613 153.621 171.014 153.453C171.415 153.285 171.882 153.201 172.414 153.201C172.825 153.201 173.212 153.257 173.576 153.369C173.949 153.472 174.285 153.64 174.584 153.873C174.677 153.938 174.738 154.018 174.766 154.111C174.803 154.195 174.808 154.284 174.78 154.377C174.761 154.461 174.719 154.536 174.654 154.601C174.589 154.657 174.509 154.69 174.416 154.699C174.323 154.708 174.225 154.68 174.122 154.615C173.842 154.428 173.557 154.293 173.268 154.209C172.979 154.116 172.694 154.069 172.414 154.069C171.891 154.069 171.495 154.172 171.224 154.377C170.953 154.582 170.818 154.853 170.818 155.189C170.818 155.45 170.902 155.665 171.07 155.833C171.238 156.001 171.499 156.122 171.854 156.197L173.128 156.463C173.735 156.594 174.187 156.804 174.486 157.093C174.794 157.373 174.948 157.756 174.948 158.241C174.948 158.857 174.701 159.347 174.206 159.711C173.711 160.075 173.053 160.257 172.232 160.257ZM177.28 161.461C177.187 161.582 177.089 161.652 176.986 161.671C176.883 161.69 176.795 161.671 176.72 161.615C176.645 161.559 176.603 161.48 176.594 161.377C176.594 161.274 176.641 161.162 176.734 161.041C176.883 160.845 176.986 160.644 177.042 160.439C177.098 160.243 177.126 160.061 177.126 159.893L177.182 160.187C176.939 160.187 176.743 160.117 176.594 159.977C176.454 159.828 176.384 159.641 176.384 159.417C176.384 159.193 176.449 159.011 176.58 158.871C176.72 158.722 176.902 158.647 177.126 158.647C177.369 158.647 177.56 158.731 177.7 158.899C177.84 159.058 177.91 159.291 177.91 159.599C177.91 159.795 177.891 159.996 177.854 160.201C177.817 160.416 177.751 160.63 177.658 160.845C177.565 161.06 177.439 161.265 177.28 161.461ZM186.469 160.257C185.75 160.257 185.13 160.117 184.607 159.837C184.094 159.548 183.692 159.142 183.403 158.619C183.123 158.096 182.983 157.471 182.983 156.743C182.983 156.034 183.123 155.418 183.403 154.895C183.683 154.363 184.066 153.948 184.551 153.649C185.046 153.35 185.615 153.201 186.259 153.201C186.716 153.201 187.127 153.28 187.491 153.439C187.855 153.588 188.163 153.808 188.415 154.097C188.676 154.386 188.872 154.736 189.003 155.147C189.143 155.558 189.213 156.02 189.213 156.533C189.213 156.682 189.171 156.794 189.087 156.869C189.003 156.934 188.882 156.967 188.723 156.967H183.851V156.225H188.457L188.233 156.407C188.233 155.903 188.158 155.478 188.009 155.133C187.86 154.778 187.64 154.508 187.351 154.321C187.071 154.134 186.716 154.041 186.287 154.041C185.811 154.041 185.405 154.153 185.069 154.377C184.742 154.592 184.495 154.895 184.327 155.287C184.159 155.67 184.075 156.118 184.075 156.631V156.715C184.075 157.574 184.28 158.227 184.691 158.675C185.111 159.123 185.704 159.347 186.469 159.347C186.786 159.347 187.099 159.305 187.407 159.221C187.724 159.137 188.032 158.997 188.331 158.801C188.462 158.717 188.578 158.68 188.681 158.689C188.793 158.689 188.882 158.722 188.947 158.787C189.012 158.843 189.054 158.918 189.073 159.011C189.101 159.095 189.092 159.188 189.045 159.291C189.008 159.394 188.928 159.482 188.807 159.557C188.499 159.781 188.135 159.954 187.715 160.075C187.295 160.196 186.88 160.257 186.469 160.257ZM193.584 160.257C193.052 160.257 192.604 160.164 192.24 159.977C191.885 159.781 191.619 159.501 191.442 159.137C191.265 158.764 191.176 158.311 191.176 157.779V154.209H190.238C190.079 154.209 189.958 154.172 189.874 154.097C189.79 154.013 189.748 153.901 189.748 153.761C189.748 153.621 189.79 153.514 189.874 153.439C189.958 153.364 190.079 153.327 190.238 153.327H191.176V151.717C191.176 151.53 191.227 151.39 191.33 151.297C191.433 151.194 191.573 151.143 191.75 151.143C191.927 151.143 192.063 151.194 192.156 151.297C192.259 151.39 192.31 151.53 192.31 151.717V153.327H194.074C194.233 153.327 194.354 153.364 194.438 153.439C194.522 153.514 194.564 153.621 194.564 153.761C194.564 153.901 194.522 154.013 194.438 154.097C194.354 154.172 194.233 154.209 194.074 154.209H192.31V157.667C192.31 158.199 192.422 158.605 192.646 158.885C192.87 159.156 193.234 159.291 193.738 159.291C193.915 159.291 194.065 159.272 194.186 159.235C194.317 159.198 194.424 159.179 194.508 159.179C194.592 159.17 194.662 159.198 194.718 159.263C194.774 159.328 194.802 159.44 194.802 159.599C194.802 159.711 194.779 159.814 194.732 159.907C194.695 160 194.625 160.066 194.522 160.103C194.41 160.14 194.261 160.173 194.074 160.201C193.897 160.238 193.733 160.257 193.584 160.257ZM198.564 160.257C197.883 160.257 197.295 160.108 196.8 159.809C196.306 159.51 195.923 159.095 195.652 158.563C195.391 158.022 195.26 157.396 195.26 156.687C195.26 156.146 195.335 155.66 195.484 155.231C195.634 154.802 195.853 154.438 196.142 154.139C196.432 153.831 196.777 153.598 197.178 153.439C197.589 153.28 198.051 153.201 198.564 153.201C198.9 153.201 199.25 153.252 199.614 153.355C199.978 153.458 200.31 153.635 200.608 153.887C200.702 153.952 200.762 154.032 200.79 154.125C200.818 154.218 200.818 154.312 200.79 154.405C200.762 154.489 200.716 154.564 200.65 154.629C200.585 154.685 200.501 154.718 200.398 154.727C200.305 154.736 200.207 154.704 200.104 154.629C199.862 154.442 199.614 154.312 199.362 154.237C199.11 154.162 198.868 154.125 198.634 154.125C198.27 154.125 197.953 154.186 197.682 154.307C197.412 154.419 197.183 154.582 196.996 154.797C196.81 155.012 196.665 155.278 196.562 155.595C196.469 155.912 196.422 156.281 196.422 156.701C196.422 157.513 196.614 158.157 196.996 158.633C197.379 159.1 197.925 159.333 198.634 159.333C198.868 159.333 199.106 159.296 199.348 159.221C199.6 159.146 199.852 159.016 200.104 158.829C200.207 158.754 200.305 158.722 200.398 158.731C200.492 158.74 200.571 158.778 200.636 158.843C200.702 158.899 200.744 158.974 200.762 159.067C200.79 159.16 200.79 159.254 200.762 159.347C200.734 159.431 200.674 159.506 200.58 159.571C200.282 159.814 199.955 159.991 199.6 160.103C199.246 160.206 198.9 160.257 198.564 160.257ZM202.843 160.187C202.61 160.187 202.423 160.117 202.283 159.977C202.143 159.828 202.073 159.641 202.073 159.417C202.073 159.193 202.143 159.011 202.283 158.871C202.423 158.722 202.61 158.647 202.843 158.647C203.077 158.647 203.259 158.722 203.389 158.871C203.529 159.011 203.599 159.193 203.599 159.417C203.599 159.641 203.529 159.828 203.389 159.977C203.259 160.117 203.077 160.187 202.843 160.187Z" fill="#6C7A81"/>
<defs>
<clipPath id="clip0_25707_21800">
<rect width="55.2443" height="49.1512" fill="white" transform="translate(112.28 6.55321)"/>
</clipPath>
</defs>
</svg>
